{"glyphs":{"0":{"ha":883,"x_min":null,"x_max":null,"o":"m 442 -21 b 58 494 218 -21 58 171 b 442 1010 58 818 218 1010 b 825 494 665 1010 825 818 b 442 -21 825 171 665 -21 m 442 79 b 639 494 557 79 639 218 b 442 910 639 771 557 910 b 244 494 326 910 244 771 b 442 79 244 218 326 79"},"1":{"ha":558,"x_min":null,"x_max":null,"o":"m 128 -4 b 86 31 99 -4 86 13 b 217 157 86 96 217 58 l 217 747 b 165 814 217 797 194 814 b 57 801 132 814 85 801 b 13 839 29 801 13 817 b 49 882 13 860 25 875 b 269 949 110 903 167 913 b 429 1006 360 979 400 1006 b 465 968 453 1006 465 988 b 401 835 465 917 401 915 l 401 157 b 532 31 401 58 532 96 b 489 -4 532 13 519 -4 b 308 0 444 -4 389 0 b 128 -4 226 0 172 -4"},"2":{"ha":828,"x_min":null,"x_max":null,"o":"m 763 306 b 797 268 781 306 797 290 b 758 160 797 246 786 219 l 696 26 b 633 -31 676 -14 661 -31 b 539 0 597 -31 592 0 l 196 0 b 74 -4 156 0 111 -4 b 25 39 39 -4 25 18 b 61 108 25 60 36 78 b 365 454 169 232 285 361 b 501 719 446 547 501 626 b 343 872 501 806 442 872 b 151 744 253 872 200 815 b 100 706 138 724 124 706 b 60 751 78 706 60 725 b 75 806 60 768 67 788 b 406 1010 135 921 247 1010 b 708 746 581 1010 708 897 b 524 422 708 610 614 508 b 228 150 422 325 317 246 l 493 150 b 710 269 586 150 618 171 b 763 306 729 293 743 306"},"3":{"ha":817,"x_min":null,"x_max":null,"o":"m 471 618 b 760 308 653 599 760 454 b 403 -22 760 124 599 -22 b 58 164 210 -22 97 83 b 40 226 47 188 40 211 b 83 274 40 256 61 274 b 131 238 103 274 117 260 b 357 110 169 175 246 110 b 558 299 472 110 558 185 b 381 494 558 415 474 494 b 313 486 351 494 331 486 b 265 535 282 486 265 508 b 329 603 265 565 301 576 b 558 854 410 688 486 771 l 358 854 b 151 735 271 854 235 831 b 100 700 132 713 121 700 b 67 739 83 700 67 714 b 97 835 67 767 79 790 l 146 947 b 208 1017 165 996 178 1017 b 299 986 242 1017 250 986 l 572 986 b 685 990 610 986 665 990 b 746 939 733 990 746 960 b 699 857 746 917 732 893 b 471 618 626 776 546 694"},"4":{"ha":813,"x_min":null,"x_max":null,"o":"m 725 375 b 771 322 760 375 771 367 l 771 286 b 725 233 771 239 760 233 l 638 233 l 638 153 b 726 29 638 54 726 86 b 683 -4 726 13 714 -4 b 544 0 650 -4 610 0 b 392 -4 476 0 428 -4 b 350 29 363 -4 350 13 b 453 153 350 90 453 56 l 453 233 l 72 233 b 6 293 25 233 6 251 b 69 428 6 332 33 371 l 396 918 b 511 989 432 972 451 989 l 558 989 b 638 932 619 989 638 972 l 638 375 l 725 375 m 157 375 l 458 375 l 458 832"},"5":{"ha":794,"x_min":null,"x_max":null,"o":"m 381 640 b 736 315 600 640 736 499 b 365 -24 736 119 578 -24 b 58 110 211 -24 103 51 b 32 174 40 135 32 157 b 75 217 32 199 51 217 b 122 189 96 217 106 206 b 328 103 164 146 232 103 b 535 293 449 103 535 174 b 324 492 535 414 443 492 b 139 450 225 492 179 450 b 100 504 117 450 93 468 l 174 942 b 233 988 181 976 196 988 l 606 988 b 669 1013 632 988 649 993 b 713 1038 686 1029 696 1038 b 744 1003 731 1038 744 1022 b 718 924 744 985 728 947 l 696 875 b 632 832 683 847 667 832 l 253 832 l 214 610 b 381 640 261 629 319 640"},"6":{"ha":831,"x_min":null,"x_max":null,"o":"m 476 661 b 789 335 649 661 789 538 b 433 -21 789 124 636 -21 b 60 465 203 -21 60 144 b 451 1006 60 774 193 1006 b 660 946 543 1006 615 976 b 708 878 688 926 708 907 b 667 833 708 851 692 833 b 619 851 650 833 635 842 b 481 893 590 869 546 893 b 257 572 335 893 265 765 b 476 661 308 624 383 661 m 436 76 b 603 317 539 76 603 172 b 426 550 603 467 536 550 b 251 340 332 550 251 489 b 436 76 251 208 315 76"},"7":{"ha":707,"x_min":null,"x_max":null,"o":"m 639 990 b 697 940 686 990 697 961 b 679 872 697 922 690 901 b 363 50 575 594 478 339 b 283 -3 347 11 321 -3 l 225 -3 b 165 42 185 -3 165 15 b 224 160 165 74 196 114 b 560 833 336 372 457 600 l 286 833 b 96 717 211 833 169 801 b 44 682 76 694 64 682 b 11 721 26 682 11 696 b 42 817 11 743 21 767 l 96 947 b 161 1017 117 999 132 1017 b 247 986 194 1017 200 986 l 525 986 b 639 990 563 986 621 990"},"8":{"ha":860,"x_min":null,"x_max":null,"o":"m 596 556 b 810 272 721 492 810 411 b 428 -22 810 99 653 -22 b 50 257 207 -22 50 99 b 244 515 50 367 115 460 b 103 742 157 568 103 640 b 431 1010 103 885 221 1010 b 747 772 629 1010 747 906 b 596 556 747 681 690 601 m 433 917 b 275 782 339 917 275 860 b 496 600 275 681 381 646 b 500 599 497 600 499 599 b 599 756 565 635 599 694 b 433 917 599 847 539 917 m 429 74 b 638 238 533 74 638 129 b 339 471 638 365 486 411 b 208 272 253 428 208 357 b 429 74 208 160 299 74"},"9":{"ha":843,"x_min":null,"x_max":null,"o":"m 410 1006 b 785 501 628 1006 785 850 b 372 -22 785 224 668 -22 b 131 49 274 -22 186 8 b 82 119 103 69 82 89 b 125 167 82 144 100 167 b 172 147 140 167 153 158 b 346 92 217 119 269 92 b 600 428 517 92 592 226 b 365 324 549 368 469 324 b 51 661 199 324 51 440 b 410 1006 51 853 196 1006 m 411 436 b 592 644 508 436 592 500 b 410 910 592 781 525 910 b 238 671 308 910 238 818 b 411 436 238 515 304 436"},"―":{"ha":650,"x_min":null,"x_max":null,"o":""},"‖":{"ha":650,"x_min":null,"x_max":null,"o":""},"‗":{"ha":650,"x_min":null,"x_max":null,"o":""},"‛":{"ha":650,"x_min":null,"x_max":null,"o":""},"‟":{"ha":650,"x_min":null,"x_max":null,"o":""},"‣":{"ha":650,"x_min":null,"x_max":null,"o":""},"․":{"ha":650,"x_min":null,"x_max":null,"o":""},"‥":{"ha":650,"x_min":null,"x_max":null,"o":""},"₻":{"ha":650,"x_min":null,"x_max":null,"o":""},"₼":{"ha":650,"x_min":null,"x_max":null,"o":""},"↔":{"ha":650,"x_min":null,"x_max":null,"o":""},"↕":{"ha":650,"x_min":null,"x_max":null,"o":""},"∃":{"ha":650,"x_min":null,"x_max":null,"o":""},"∄":{"ha":650,"x_min":null,"x_max":null,"o":""},"∅":{"ha":650,"x_min":null,"x_max":null,"o":""},"∐":{"ha":650,"x_min":null,"x_max":null,"o":""},"∛":{"ha":650,"x_min":null,"x_max":null,"o":""},"∜":{"ha":650,"x_min":null,"x_max":null,"o":""},"∝":{"ha":650,"x_min":null,"x_max":null,"o":""},"≡":{"ha":650,"x_min":null,"x_max":null,"o":""},"≢":{"ha":650,"x_min":null,"x_max":null,"o":""},"≣":{"ha":650,"x_min":null,"x_max":null,"o":""}," ":{"ha":342,"x_min":null,"x_max":null,"o":""},"!":{"ha":369,"x_min":null,"x_max":null,"o":"m 186 263 b 147 294 164 263 153 274 b 94 908 128 535 94 807 b 186 1014 94 971 122 1014 b 278 908 253 1014 278 974 b 225 294 278 807 244 535 b 186 263 221 272 207 263 m 190 168 b 290 82 250 168 290 136 b 176 -12 290 31 243 -12 b 76 74 117 -12 76 19 b 190 168 76 126 124 168"},"\"":{"ha":510,"x_min":null,"x_max":null,"o":"m 138 597 b 93 647 114 597 97 615 l 64 860 b 57 929 61 879 57 907 b 138 1006 57 975 90 1006 b 219 929 186 1006 219 975 b 213 860 219 907 215 879 l 183 647 b 138 597 179 615 163 597 z m 372 597 b 326 647 347 597 331 615 l 297 860 b 290 929 294 879 290 907 b 372 1006 290 975 324 1006 b 453 929 419 1006 453 975 b 446 860 453 907 449 879 l 417 647 b 372 597 413 615 396 597 z "},"#":{"ha":919,"x_min":null,"x_max":null,"o":"m 235 -6 b 185 43 197 -6 181 8 l 214 251 b 200 267 215 263 211 267 l 94 267 b 50 322 56 267 44 285 b 108 378 56 363 72 378 l 214 378 b 232 393 225 378 231 382 l 260 593 b 247 608 261 604 257 608 l 140 608 b 97 664 101 608 92 626 b 154 719 101 704 118 719 l 261 719 b 279 735 271 719 278 724 l 308 943 b 365 992 313 978 328 992 b 414 943 401 992 419 978 l 386 735 b 399 719 385 724 388 719 l 581 719 b 600 735 592 719 599 724 l 628 943 b 686 992 633 978 649 992 b 735 943 722 992 739 978 l 706 735 b 719 719 704 724 708 719 l 826 719 b 869 664 864 719 875 703 b 813 608 864 624 847 608 l 706 608 b 688 593 694 608 689 604 l 660 393 b 672 378 658 382 663 378 l 779 378 b 824 322 818 378 828 360 b 765 267 818 282 801 267 l 660 267 b 640 251 649 267 643 263 l 613 43 b 556 -6 607 8 592 -6 b 506 43 518 -6 501 8 l 535 251 b 521 267 536 263 532 267 l 339 267 b 321 251 328 267 322 263 l 292 43 b 235 -6 288 8 271 -6 m 535 378 b 553 393 546 378 551 382 l 581 593 b 568 608 582 604 578 608 l 385 608 b 367 593 375 608 368 604 l 339 393 b 353 378 338 382 342 378"},"$":{"ha":843,"x_min":null,"x_max":null,"o":"m 786 261 b 468 -22 786 75 650 -21 l 468 -139 b 421 -193 468 -176 456 -193 b 372 -139 386 -193 372 -176 l 372 -12 b 256 19 315 0 276 19 b 188 -28 221 19 218 -28 b 135 32 163 -28 147 -1 l 88 157 b 47 281 61 225 47 254 b 81 321 47 307 65 321 b 131 283 104 321 119 297 b 372 89 193 199 271 117 l 372 433 b 93 742 231 489 93 571 b 367 1008 93 893 210 1008 l 372 1008 l 372 1106 b 419 1160 372 1143 386 1160 b 468 1106 454 1160 468 1143 l 468 992 b 542 972 501 982 526 972 b 600 1015 572 972 567 1015 b 669 933 628 1015 644 982 l 701 869 b 751 743 735 803 751 765 b 722 711 751 724 738 711 b 672 747 704 711 689 725 b 468 899 619 819 549 876 l 468 596 b 786 261 631 533 786 460 m 261 778 b 372 636 261 715 299 674 l 372 907 b 261 778 306 897 261 849 m 468 81 b 619 226 561 88 619 140 b 468 396 619 311 558 356 l 468 81"},"%":{"ha":1239,"x_min":null,"x_max":null,"o":"m 269 -22 b 221 13 239 -22 221 -7 b 274 108 221 35 246 68 l 869 953 b 963 1018 886 975 911 1018 b 1011 982 993 1018 1011 1001 b 958 886 1011 960 988 926 l 363 43 b 269 -22 347 19 321 -22 m 289 450 b 40 732 143 450 40 557 b 289 1014 40 907 143 1014 b 538 732 435 1014 538 908 b 289 450 538 556 435 450 m 289 528 b 385 732 346 528 385 583 b 289 935 385 881 346 935 b 193 732 232 935 193 879 b 289 528 193 583 232 528 m 949 -7 b 700 275 803 -7 700 100 b 949 557 700 451 803 557 b 1197 275 1094 557 1197 451 b 949 -7 1197 99 1094 -7 m 949 71 b 1044 275 1006 71 1044 126 b 949 478 1044 424 1006 478 b 853 275 892 478 853 422 b 949 71 853 128 892 71"},"&":{"ha":1144,"x_min":null,"x_max":null,"o":"m 964 138 b 1131 28 1046 64 1131 81 b 1086 -4 1131 8 1118 -4 b 982 0 1067 -4 1035 0 b 874 -4 931 0 896 -4 b 817 33 825 -4 821 14 b 786 78 810 57 806 61 l 733 125 b 364 -21 621 31 488 -21 b 43 250 169 -21 43 96 b 269 549 43 379 133 486 b 154 772 206 614 154 685 b 449 1010 154 914 281 1010 b 707 814 610 1010 707 922 b 489 564 707 719 635 632 l 771 311 b 907 714 853 421 907 564 b 867 828 907 790 896 810 b 838 863 851 838 838 846 b 868 903 838 879 849 892 b 951 932 893 919 931 932 b 1011 765 999 932 1011 857 b 846 244 1011 551 944 375 l 964 138 m 439 921 b 315 801 375 921 315 879 b 425 622 315 742 351 692 b 557 801 515 676 557 743 b 439 921 557 868 511 921 m 432 101 b 660 193 508 101 588 135 l 328 493 b 231 297 274 447 231 378 b 432 101 231 174 314 101"},"'":{"ha":276,"x_min":null,"x_max":null,"o":"m 138 593 b 93 644 114 593 97 611 l 64 858 b 57 929 61 878 57 907 b 138 1006 57 975 90 1006 b 219 929 186 1006 219 975 b 213 858 219 907 215 878 l 183 644 b 138 593 179 611 163 593 z "},"(":{"ha":471,"x_min":null,"x_max":null,"o":"m 240 461 b 401 -28 240 233 306 76 b 457 -106 428 -56 457 -79 b 421 -139 457 -126 444 -139 b 264 -51 382 -139 324 -106 b 46 461 164 40 46 213 b 264 975 46 704 165 885 b 421 1063 324 1029 382 1063 b 457 1029 444 1063 457 1050 b 401 950 457 1003 428 979 b 240 461 306 847 240 690"},")":{"ha":471,"x_min":null,"x_max":null,"o":"m 231 461 b 71 950 231 690 165 847 b 15 1029 43 979 15 1003 b 51 1063 15 1050 26 1063 b 208 975 89 1063 149 1029 b 425 461 306 885 425 704 b 208 -51 425 213 307 40 b 51 -139 149 -106 89 -139 b 15 -106 26 -139 15 -126 b 71 -28 15 -79 43 -56 b 231 461 165 76 231 233"},"*":{"ha":697,"x_min":null,"x_max":null,"o":"m 218 446 b 142 515 189 446 142 482 b 156 557 142 528 146 542 b 271 671 182 593 224 633 b 279 681 276 675 279 678 b 251 689 279 688 272 688 b 106 713 197 693 143 701 b 61 768 75 724 61 743 b 122 846 61 800 82 846 b 296 767 160 846 235 800 b 304 764 299 765 301 764 b 310 768 307 764 310 765 b 307 782 310 771 310 772 b 281 939 290 839 281 896 b 349 1003 281 982 307 1003 b 417 939 392 1003 417 982 b 392 782 417 896 407 839 b 389 768 389 772 389 771 b 393 764 389 765 392 764 b 401 767 397 764 399 765 b 575 846 461 804 538 846 b 636 768 617 846 636 800 b 592 713 636 743 622 722 b 446 689 554 701 501 693 b 419 681 425 688 419 688 b 428 671 419 678 421 675 b 542 557 474 632 517 593 b 557 515 551 542 557 528 b 479 446 557 482 510 446 b 432 475 463 446 446 456 b 357 625 406 511 379 567 b 349 635 356 631 353 635 b 340 625 344 635 343 631 b 267 475 321 565 292 511 b 218 446 251 456 236 446"},"+":{"ha":808,"x_min":null,"x_max":null,"o":"m 404 82 b 346 118 367 82 346 93 l 346 350 b 329 367 346 361 340 367 l 113 367 b 75 424 86 367 75 386 b 113 479 75 458 86 479 l 329 479 b 346 496 340 479 346 485 l 346 713 b 404 750 346 739 367 750 b 463 713 442 750 463 739 l 463 496 b 479 479 463 485 468 479 l 696 479 b 732 424 722 479 732 458 b 696 367 732 386 722 367 l 479 367 b 463 350 468 367 463 361 l 463 118 b 404 82 463 93 442 82"},",":{"ha":354,"x_min":null,"x_max":null,"o":"m 179 182 b 294 65 257 182 294 142 b 104 -193 294 -65 168 -193 b 69 -162 83 -193 69 -181 b 97 -124 69 -146 82 -136 b 158 -37 121 -106 158 -71 b 113 4 158 -15 133 -7 b 57 82 85 18 57 36 b 179 182 57 138 110 182"},"-":{"ha":522,"x_min":null,"x_max":null,"o":"m 121 293 b 74 346 88 293 74 306 l 74 381 b 121 433 74 421 88 433 l 403 433 b 449 381 436 433 449 421 l 449 346 b 401 293 449 306 435 293 l 121 293"},".":{"ha":343,"x_min":null,"x_max":null,"o":"m 178 183 b 286 90 242 183 286 149 b 163 -12 286 33 235 -12 b 56 81 99 -12 56 22 b 178 183 56 138 107 183 z "},"/":{"ha":563,"x_min":null,"x_max":null,"o":"m 92 -42 b 38 -10 54 -42 38 -32 b 47 26 38 1 42 14 l 396 944 b 471 990 408 981 431 990 b 525 958 507 990 525 981 b 515 922 525 946 519 935 l 167 3 b 92 -42 153 -33 132 -42"},":":{"ha":374,"x_min":null,"x_max":null,"o":"m 194 619 b 301 528 258 619 301 586 b 178 426 301 472 250 426 b 72 518 115 426 72 461 b 194 619 72 575 124 619 z m 194 182 b 301 89 258 182 301 147 b 178 -12 301 33 250 -12 b 72 79 115 -12 72 22 b 194 182 72 136 124 182 z "},";":{"ha":389,"x_min":null,"x_max":null,"o":"m 197 619 b 304 528 261 619 304 585 b 182 425 304 471 253 425 b 75 518 118 425 75 460 b 197 619 75 574 126 619 m 200 182 b 315 65 276 182 315 142 b 125 -193 315 -65 189 -193 b 90 -162 104 -193 90 -181 b 118 -124 90 -146 103 -136 b 178 -37 142 -106 178 -71 b 133 4 178 -15 154 -7 b 78 82 106 18 78 36 b 200 182 78 138 131 182"},"<":{"ha":707,"x_min":null,"x_max":null,"o":"m 606 121 b 568 132 593 121 579 128 l 107 350 b 60 422 72 367 60 385 b 107 494 60 458 72 476 l 568 711 b 606 722 579 717 593 722 b 633 681 622 722 633 710 b 583 594 633 632 624 611 l 213 431 b 204 422 207 428 204 425 b 213 413 204 418 207 415 l 583 250 b 633 163 624 233 633 210 b 606 121 633 135 622 121"},"=":{"ha":821,"x_min":null,"x_max":null,"o":"m 118 499 b 82 556 92 499 82 518 b 118 611 82 590 92 611 l 703 611 b 740 556 729 611 740 590 b 703 499 740 518 729 499 l 118 499 m 118 233 b 82 292 92 233 82 254 b 118 347 82 326 92 347 l 703 347 b 740 292 729 347 740 326 b 703 233 740 254 729 233 l 118 233"},">":{"ha":707,"x_min":null,"x_max":null,"o":"m 101 121 b 74 163 83 121 74 135 b 122 250 74 210 82 233 l 494 413 b 501 422 500 415 501 418 b 494 431 501 425 500 428 l 122 594 b 74 681 83 611 74 632 b 101 722 74 710 85 722 b 139 711 113 722 126 717 l 599 494 b 646 422 635 476 646 458 b 599 350 646 385 635 367 l 139 132 b 101 121 126 128 113 121"},"?":{"ha":636,"x_min":null,"x_max":null,"o":"m 286 263 b 250 290 265 263 254 275 b 233 449 242 325 233 397 b 336 650 233 521 263 575 b 440 817 404 722 440 756 b 333 925 440 879 399 925 b 192 756 254 925 211 849 b 154 714 186 731 174 714 b 113 736 140 714 129 721 b 39 858 54 786 39 829 b 315 1014 39 922 157 1014 b 582 783 461 1014 582 925 b 443 532 582 664 514 601 b 339 393 378 468 347 433 b 322 289 331 339 326 311 b 286 263 319 275 310 263 m 300 164 b 400 81 360 164 400 133 b 286 -12 400 29 353 -12 b 186 72 226 -12 186 19 b 300 164 186 124 233 164"},"@":{"ha":1396,"x_min":null,"x_max":null,"o":"m 757 897 b 1346 386 1101 897 1346 692 b 1011 -28 1346 142 1188 -28 b 847 114 914 -28 860 21 b 603 -12 794 42 707 -12 b 361 263 471 -12 361 93 b 706 639 361 476 506 639 b 894 586 813 639 858 586 b 994 628 933 586 965 628 b 1025 588 1015 628 1028 613 l 985 214 b 978 139 982 183 978 151 b 1032 71 978 103 993 71 b 1201 376 1122 71 1201 200 b 740 807 1201 639 1014 807 b 201 257 440 807 201 585 b 671 -157 201 17 376 -157 b 944 -114 843 -157 913 -114 b 976 -146 957 -114 976 -124 b 917 -207 976 -171 960 -187 b 636 -253 861 -231 754 -253 b 44 244 282 -253 44 -50 b 757 897 44 624 351 897 m 682 99 b 849 279 760 99 836 164 b 857 372 851 314 857 353 b 703 557 857 474 792 557 b 525 308 585 557 525 429 b 682 99 525 175 596 99"},"A":{"ha":1024,"x_min":null,"x_max":null,"o":"m 925 151 b 1035 26 963 58 1035 79 b 999 -4 1035 8 1021 -4 b 861 0 969 -4 926 0 b 696 -4 796 0 735 -4 b 646 31 664 -4 646 7 b 739 119 646 81 739 64 b 728 168 739 132 735 147 l 671 308 b 628 340 663 332 654 340 l 315 340 b 272 308 289 340 281 332 l 217 169 b 203 121 208 147 203 133 b 299 31 203 65 299 79 b 249 -4 299 7 281 -4 b 128 0 210 -4 171 0 b 25 -4 85 0 56 -4 b -12 26 1 -4 -12 8 b 99 149 -12 82 63 57 l 321 714 b 393 908 347 781 375 854 b 514 996 419 986 431 996 b 631 908 596 996 604 985 b 704 714 650 854 678 781 l 925 151 m 594 432 b 614 457 617 432 619 444 l 471 819 l 329 458 b 346 432 324 443 328 432 l 594 432"},"B":{"ha":1008,"x_min":null,"x_max":null,"o":"m 738 538 b 963 279 868 503 963 417 b 551 -6 963 108 826 -6 b 238 0 424 -6 300 0 b 103 -4 175 0 129 -4 b 58 31 69 -4 58 11 b 147 150 58 86 147 54 l 147 836 b 58 956 147 932 58 900 b 103 990 58 975 69 990 b 238 986 129 990 175 986 b 508 993 317 986 399 993 b 886 740 732 993 886 906 b 738 538 886 651 838 575 m 331 606 b 374 572 331 582 339 572 l 493 572 b 686 729 618 572 686 625 b 471 900 686 836 613 900 l 444 900 b 331 831 360 900 331 883 m 511 88 b 760 276 664 88 760 157 b 493 483 760 403 672 483 l 372 483 b 331 446 340 483 331 474 l 331 171 b 457 88 331 101 357 88 l 511 88"},"C":{"ha":979,"x_min":null,"x_max":null,"o":"m 524 -28 b 51 472 276 -28 51 157 b 518 1011 51 792 272 1011 b 725 978 615 1011 692 978 b 789 1015 756 978 760 1015 b 850 943 814 1015 829 997 l 897 821 b 935 713 922 758 935 736 b 897 671 935 685 915 671 b 846 706 878 671 864 683 b 553 913 743 842 657 913 b 251 511 381 913 251 743 b 585 103 251 263 390 103 b 858 251 699 103 794 161 b 906 282 871 267 883 282 b 946 240 928 282 946 265 b 928 185 946 225 939 207 b 524 -28 878 94 736 -28"},"D":{"ha":1096,"x_min":null,"x_max":null,"o":"m 506 -6 b 238 0 417 -6 328 0 b 103 -4 175 0 128 -4 b 57 31 69 -4 57 11 b 147 150 57 86 147 54 l 147 836 b 57 956 147 932 57 900 b 103 990 57 975 69 990 b 238 986 128 990 175 986 b 468 993 314 986 392 993 b 1046 479 807 993 1046 782 b 506 -6 1046 192 831 -6 m 483 89 b 843 489 714 89 843 240 b 465 897 843 733 700 897 l 442 897 b 331 831 356 897 331 879 l 331 156 b 442 89 331 106 357 89"},"E":{"ha":967,"x_min":null,"x_max":null,"o":"m 917 299 b 951 263 933 299 951 285 b 913 157 951 238 942 215 l 853 29 b 790 -31 835 -10 817 -31 b 697 0 753 -31 749 0 l 238 0 b 103 -4 175 0 129 -4 b 58 31 69 -4 58 11 b 147 150 58 86 147 54 l 147 836 b 58 956 147 932 58 900 b 103 990 58 975 69 990 b 238 986 128 990 174 986 l 642 986 b 728 1017 690 986 694 1017 b 796 947 756 1017 772 999 l 849 835 b 885 735 875 782 885 758 b 851 699 885 711 868 699 b 799 732 832 699 819 711 b 532 896 703 835 647 896 l 429 896 b 331 828 343 896 331 876 l 331 579 b 371 546 331 556 339 546 l 482 546 b 615 649 568 546 564 649 b 651 603 636 649 651 636 b 647 501 651 569 647 536 b 651 399 647 465 651 431 b 615 353 651 365 636 353 b 482 456 564 353 568 456 l 371 456 b 331 422 339 456 331 446 l 331 158 b 429 90 331 108 344 90 l 585 90 b 865 264 704 90 767 157 b 917 299 885 286 897 299"},"F":{"ha":882,"x_min":null,"x_max":null,"o":"m 844 835 b 881 735 869 782 881 758 b 846 699 881 711 863 699 b 794 732 828 699 814 711 b 532 896 697 835 642 896 l 429 896 b 331 828 343 896 331 876 l 331 567 b 371 533 331 543 339 533 l 524 533 b 657 639 610 533 606 639 b 693 593 678 639 693 626 b 689 489 693 560 689 524 b 693 383 689 453 693 414 b 657 336 693 349 678 336 b 524 443 606 336 610 443 l 371 443 b 331 410 339 443 331 433 l 331 150 b 439 29 331 54 439 86 b 397 -4 439 13 426 -4 b 240 0 360 -4 311 0 b 100 -4 174 0 133 -4 b 58 29 69 -4 58 13 b 147 150 58 86 147 54 l 147 836 b 58 956 147 932 58 900 b 103 990 58 975 69 990 b 238 986 129 990 175 986 l 638 986 b 724 1017 686 986 690 1017 b 792 947 750 1017 768 999 l 844 835"},"G":{"ha":1067,"x_min":null,"x_max":null,"o":"m 600 -28 b 51 472 281 -28 51 150 b 519 1011 51 790 275 1011 b 749 978 643 1011 715 978 b 814 1015 776 978 782 1015 b 875 943 842 1015 860 985 l 921 821 b 960 713 946 758 960 733 b 921 671 960 688 942 671 b 869 706 903 671 892 681 b 557 913 789 807 704 913 b 254 492 371 913 254 718 b 631 78 254 268 369 78 b 767 139 728 78 767 108 l 767 333 b 672 453 767 428 672 394 b 718 488 672 472 683 488 l 992 488 b 1038 453 1025 488 1038 472 b 949 333 1038 397 949 428 l 949 161 b 983 71 949 97 983 104 b 942 29 983 51 972 40 b 600 -28 888 11 751 -28"},"H":{"ha":1139,"x_min":null,"x_max":null,"o":"m 993 150 b 1082 29 993 54 1082 86 b 1039 -4 1082 13 1069 -4 b 900 0 1006 -4 965 0 b 761 -4 835 0 794 -4 b 719 29 732 -4 719 13 b 808 150 719 86 808 54 l 808 422 b 768 456 808 446 800 456 l 371 456 b 331 422 339 456 331 446 l 331 150 b 419 29 331 54 419 86 b 378 -4 419 13 408 -4 b 238 0 344 -4 303 0 b 100 -4 172 0 133 -4 b 58 29 69 -4 58 13 b 147 150 58 86 147 54 l 147 836 b 58 957 147 932 58 900 b 103 990 58 974 72 990 b 238 986 136 990 172 986 b 378 990 303 986 344 990 b 419 957 408 990 419 974 b 331 836 419 900 331 932 l 331 579 b 371 546 331 556 339 546 l 768 546 b 808 579 800 546 808 556 l 808 836 b 719 957 808 932 719 900 b 761 990 719 974 732 990 b 900 986 794 990 835 986 b 1039 990 965 986 1006 990 b 1082 957 1069 990 1082 974 b 993 836 1082 900 993 932 l 993 150"},"I":{"ha":478,"x_min":null,"x_max":null,"o":"m 100 -4 b 58 29 69 -4 58 13 b 147 150 58 86 147 54 l 147 836 b 58 957 147 932 58 900 b 103 990 58 974 72 990 b 238 986 136 990 172 986 b 378 990 303 986 344 990 b 419 957 408 990 419 974 b 331 836 419 900 331 932 l 331 150 b 419 29 331 54 419 86 b 378 -4 419 13 408 -4 b 238 0 344 -4 303 0 b 100 -4 172 0 133 -4"},"J":{"ha":715,"x_min":null,"x_max":null,"o":"m 292 -19 b 11 113 149 -19 11 40 b 54 283 11 138 22 189 b 101 329 65 314 83 331 b 140 288 124 329 136 314 b 282 75 161 139 197 75 b 403 225 358 75 403 138 l 401 836 b 301 957 403 932 301 897 b 344 990 301 974 315 990 b 493 986 381 990 424 986 b 633 990 558 986 600 990 b 675 957 663 990 675 974 b 586 836 675 900 586 932 l 586 233 b 292 -19 586 65 474 -19"},"K":{"ha":1032,"x_min":null,"x_max":null,"o":"m 928 135 b 1042 28 975 63 1042 79 b 1003 -4 1042 10 1028 -4 b 850 0 976 -4 915 0 b 697 -4 785 0 738 -4 b 649 31 663 -4 649 10 b 724 115 649 79 724 64 b 706 163 724 128 718 144 l 478 515 l 331 379 l 331 150 b 419 29 331 54 419 86 b 378 -4 419 13 408 -4 b 238 0 344 -4 303 0 b 100 -4 172 0 133 -4 b 58 29 69 -4 58 13 b 147 150 58 86 147 54 l 147 836 b 58 957 147 932 58 900 b 103 990 58 974 72 990 b 238 986 136 990 172 986 b 378 990 303 986 344 990 b 419 957 408 990 419 974 b 331 836 419 900 331 932 l 331 510 l 678 835 b 715 890 701 858 715 869 b 650 954 715 925 650 910 b 701 989 650 978 669 989 b 832 985 740 989 790 985 b 969 989 874 985 939 989 b 1004 958 990 989 1004 976 b 860 868 1004 906 921 925 l 607 635 l 928 135"},"L":{"ha":894,"x_min":null,"x_max":null,"o":"m 733 -31 b 639 0 696 -31 692 0 l 238 0 b 103 -4 175 0 129 -4 b 58 31 69 -4 58 11 b 147 150 58 86 147 54 l 147 836 b 58 957 147 932 58 900 b 103 990 58 974 72 990 b 238 986 136 990 172 986 b 378 990 303 986 344 990 b 419 957 408 990 419 974 b 331 836 419 900 331 932 l 331 147 b 390 90 331 107 349 90 l 528 90 b 808 269 635 90 707 163 b 863 306 831 292 843 306 b 897 268 881 306 897 290 b 858 160 897 243 888 219 l 797 31 b 733 -31 778 -10 761 -31"},"M":{"ha":1353,"x_min":null,"x_max":null,"o":"m 1235 142 b 1340 29 1249 68 1340 83 b 1293 -4 1340 10 1322 -4 b 1160 0 1267 -4 1226 0 b 1007 -4 1096 0 1047 -4 b 957 31 975 -4 957 7 b 1049 121 957 81 1049 67 b 1042 171 1049 136 1046 151 l 956 682 l 714 114 b 658 76 701 86 681 76 b 603 114 633 76 615 86 l 324 690 l 242 171 b 236 121 239 151 236 136 b 326 31 236 67 326 81 b 278 -4 326 7 308 -4 b 163 0 243 -4 204 0 b 58 -4 122 0 88 -4 b 14 31 32 -4 14 8 b 122 143 14 82 110 68 l 226 763 b 233 843 233 796 233 826 b 153 957 233 921 153 903 b 203 990 153 974 165 990 b 342 986 232 990 286 986 b 475 990 400 986 440 990 b 519 956 504 990 519 975 b 449 860 519 906 449 917 b 490 749 449 836 467 799 l 694 318 l 875 749 b 908 857 896 796 908 832 b 832 956 908 922 832 903 b 876 990 832 975 849 990 b 1018 986 911 990 956 986 b 1147 990 1072 986 1114 990 b 1190 957 1176 990 1190 974 b 1113 857 1190 904 1113 921 b 1126 763 1113 836 1118 807 l 1235 142"},"N":{"ha":1081,"x_min":null,"x_max":null,"o":"m 994 990 b 1039 957 1025 990 1039 975 b 946 836 1039 900 946 932 l 946 36 b 899 -12 946 3 924 -12 b 831 28 867 -12 850 4 l 258 754 l 258 150 b 369 29 258 57 369 94 b 324 -4 369 10 354 -4 b 207 0 288 -4 242 0 b 99 -4 174 0 133 -4 b 56 31 69 -4 56 13 b 147 150 56 86 147 54 l 147 836 b 56 956 147 932 56 900 b 103 990 56 975 71 990 b 190 988 129 990 157 988 b 263 989 222 988 242 989 b 329 954 286 989 307 982 l 836 308 l 836 836 b 724 957 836 929 724 892 b 771 990 724 975 742 990 b 888 986 808 990 844 986 b 994 990 925 986 961 990"},"O":{"ha":1151,"x_min":null,"x_max":null,"o":"m 575 -28 b 50 472 276 -28 50 168 b 575 1014 50 782 276 1014 b 1101 474 878 1014 1101 782 b 575 -28 1101 169 878 -28 m 575 75 b 897 492 781 75 897 264 b 576 915 897 714 776 915 b 254 488 375 915 254 715 b 575 75 254 264 376 75"},"P":{"ha":938,"x_min":null,"x_max":null,"o":"m 463 994 b 913 650 756 994 913 864 b 460 317 913 457 788 317 b 331 297 340 317 331 329 l 331 151 b 442 29 331 56 442 92 b 400 -4 442 13 431 -4 b 238 0 363 -4 310 0 b 100 -4 172 0 133 -4 b 58 29 69 -4 58 13 b 147 150 58 86 147 54 l 147 836 b 58 957 147 932 58 900 b 103 990 58 974 72 990 b 238 986 136 990 172 986 b 463 994 294 986 389 994 m 440 410 b 710 650 631 410 710 500 b 447 900 710 817 611 900 b 331 832 331 900 331 858 l 331 467 b 440 410 331 424 367 410"},"Q":{"ha":1156,"x_min":null,"x_max":null,"o":"m 1074 33 b 1108 -3 1094 33 1108 18 b 1040 -122 1108 -29 1081 -71 b 933 -182 1001 -169 972 -182 b 733 -8 839 -182 769 -107 b 575 -28 685 -21 631 -28 b 50 472 276 -28 50 168 b 575 1014 50 782 276 1014 b 1101 474 878 1014 1101 782 b 861 43 1101 278 1008 126 b 950 -31 886 -3 913 -31 b 1074 33 999 -31 1039 33 m 254 488 b 575 75 254 264 376 75 b 704 104 624 75 667 85 b 561 265 665 218 628 265 b 464 232 513 265 485 232 b 436 261 447 232 436 244 b 586 351 436 293 504 351 b 796 176 683 351 749 289 b 897 492 863 253 897 367 b 576 915 897 714 776 915 b 254 488 375 915 254 715"},"R":{"ha":1029,"x_min":null,"x_max":null,"o":"m 864 174 b 1021 28 946 68 1021 85 b 983 -4 1021 8 1007 -4 b 824 0 953 -4 888 0 b 672 -4 764 0 708 -4 b 624 31 640 -4 624 7 b 693 110 624 78 693 61 b 663 172 693 131 678 151 l 547 325 b 483 358 526 350 508 360 b 364 358 444 357 404 357 b 331 328 339 360 331 350 l 331 150 b 422 29 331 54 422 86 b 381 -4 422 13 411 -4 b 238 0 347 -4 303 0 b 100 -4 172 0 133 -4 b 58 29 69 -4 58 13 b 147 150 58 86 147 54 l 147 836 b 58 957 147 932 58 900 b 104 990 58 974 69 990 b 231 986 131 990 179 986 b 458 994 289 986 382 994 b 931 668 774 994 931 861 b 707 382 931 525 843 421 l 864 174 m 454 443 b 728 667 615 443 728 490 b 451 900 728 822 611 900 b 331 832 367 900 331 886 l 331 492 b 454 443 331 453 357 443"},"S":{"ha":935,"x_min":null,"x_max":null,"o":"m 201 -28 b 143 32 175 -28 160 -4 l 86 154 b 39 278 54 226 39 253 b 74 318 39 304 57 318 b 128 283 96 318 115 297 b 518 78 228 176 350 78 b 729 239 657 78 729 143 b 454 440 729 356 619 392 b 75 754 276 492 75 556 b 371 1007 75 897 200 1007 b 575 974 485 1007 543 974 b 642 1015 608 974 607 1015 b 717 935 674 1015 686 985 l 756 869 b 813 744 800 794 813 764 b 783 713 813 726 799 713 b 726 749 763 713 747 728 b 396 910 636 842 526 910 b 244 792 303 910 244 864 b 506 621 244 699 340 671 b 900 276 703 564 900 497 b 532 -21 900 92 750 -21 b 278 19 399 -21 313 19 b 201 -28 240 19 235 -28"},"T":{"ha":1043,"x_min":null,"x_max":null,"o":"m 360 -4 b 319 31 331 -4 319 13 b 429 150 319 92 429 56 l 429 835 b 374 896 429 876 415 896 l 333 896 b 85 735 242 896 176 840 b 33 700 65 713 53 700 b 0 739 15 700 0 714 b 31 835 0 761 10 786 l 78 947 b 143 1017 99 999 115 1017 b 229 986 176 1017 182 986 l 813 986 b 900 1017 861 986 867 1017 b 965 947 928 1017 943 999 l 1013 835 b 1043 739 1032 786 1043 761 b 1008 700 1043 714 1026 700 b 958 735 990 700 978 713 b 708 896 867 840 800 896 l 669 896 b 614 835 628 896 614 876 l 614 150 b 724 31 614 56 724 92 b 682 -4 724 13 713 -4 b 521 0 642 -4 592 0 b 360 -4 451 0 400 -4"},"U":{"ha":1017,"x_min":null,"x_max":null,"o":"m 510 -28 b 99 308 283 -28 99 61 b 104 394 99 333 101 365 l 138 790 b 142 849 139 813 142 835 b 90 915 142 893 114 906 b 53 957 71 924 53 932 b 94 990 53 974 64 990 b 233 986 128 990 168 986 b 382 990 299 986 349 990 b 425 957 413 990 425 974 b 386 914 425 931 406 922 b 325 836 360 901 329 889 l 289 393 b 285 317 288 368 285 336 b 543 90 285 163 382 92 b 806 314 694 90 806 150 b 801 390 806 333 803 364 l 763 836 b 696 910 758 888 725 899 b 649 957 671 919 649 926 b 694 990 649 974 664 990 b 814 986 731 990 779 986 b 924 990 846 986 889 990 b 965 957 953 990 965 974 b 926 915 965 932 946 924 b 872 849 901 906 872 893 b 876 790 872 835 875 813 l 913 385 b 918 303 915 351 918 324 b 510 -28 918 61 736 -26"},"V":{"ha":1065,"x_min":null,"x_max":null,"o":"m 1035 989 b 1076 958 1061 989 1076 976 b 954 826 1076 903 996 929 l 633 38 b 531 -15 619 0 600 -15 b 429 38 460 -15 443 1 l 110 822 b -10 957 68 924 -10 903 b 31 989 -10 976 8 989 b 174 985 61 989 108 985 b 353 989 244 985 310 989 b 404 954 385 989 404 978 b 304 854 404 901 304 915 b 326 781 304 839 315 810 l 572 165 l 825 790 b 842 853 835 815 842 839 b 735 954 842 919 735 901 b 785 989 735 978 753 989 b 918 985 828 989 871 985 b 1035 989 964 985 1006 989"},"W":{"ha":1506,"x_min":null,"x_max":null,"o":"m 1483 989 b 1519 958 1506 989 1519 976 b 1414 836 1519 903 1444 928 l 1138 35 b 1044 -15 1126 1 1107 -15 b 951 35 979 -15 964 1 l 757 581 l 565 35 b 469 -15 553 1 535 -15 b 378 35 404 -15 390 1 l 92 833 b -14 958 58 925 -14 904 b 24 989 -14 976 3 989 b 161 985 54 989 96 985 b 318 989 225 985 281 989 b 367 954 349 989 367 978 b 286 863 367 906 286 918 b 304 785 286 846 292 821 l 513 185 l 701 735 l 667 833 b 564 958 635 925 564 904 b 601 989 564 976 581 989 b 736 985 632 989 669 985 b 896 989 800 985 857 989 b 942 954 926 989 942 978 b 860 863 942 906 860 918 b 878 785 860 846 865 819 l 1085 188 l 1279 779 b 1300 863 1294 826 1300 847 b 1210 954 1300 918 1210 906 b 1258 989 1210 978 1226 989 b 1381 985 1296 989 1340 985 b 1483 989 1421 985 1456 989"},"X":{"ha":1008,"x_min":null,"x_max":null,"o":"m 874 160 b 1018 29 951 56 1018 83 b 978 -4 1018 8 1000 -4 b 822 0 940 -4 889 0 b 639 -4 756 0 674 -4 b 592 29 610 -4 592 7 b 676 113 592 81 676 64 b 640 182 676 131 663 154 l 469 411 l 281 172 b 250 113 256 142 250 126 b 342 31 250 63 342 82 b 294 -4 342 8 325 -4 b 151 0 265 -4 192 0 b 32 -4 113 0 63 -4 b -10 29 7 -4 -10 7 b 156 178 -10 81 63 63 l 410 492 l 153 839 b 25 957 89 924 25 910 b 65 990 25 978 42 990 b 214 986 101 990 147 986 b 386 990 279 986 351 990 b 433 957 415 990 433 979 b 353 878 433 907 353 928 b 388 813 353 860 369 836 l 542 606 l 703 813 b 732 872 722 838 732 858 b 649 956 732 922 649 904 b 694 990 649 978 664 990 b 828 986 724 990 788 986 b 942 990 867 986 911 990 b 983 958 967 990 983 979 b 853 840 983 907 918 922 l 601 525 l 874 160"},"Y":{"ha":964,"x_min":null,"x_max":null,"o":"m 928 989 b 963 958 949 989 963 976 b 857 849 963 910 904 925 l 574 375 l 574 150 b 685 31 574 56 685 92 b 643 -4 685 13 672 -4 b 482 0 601 -4 553 0 b 321 -4 411 0 361 -4 b 279 31 290 -4 279 13 b 389 150 279 92 389 56 l 389 375 l 106 850 b 7 957 63 921 7 913 b 44 989 7 976 21 989 b 182 985 72 989 118 985 b 338 989 242 985 300 989 b 386 954 368 989 386 978 b 307 871 386 906 307 924 b 329 814 307 858 314 843 l 524 478 l 721 808 b 743 867 735 833 743 851 b 657 954 743 921 657 907 b 706 989 657 978 675 989 b 818 985 742 989 782 985 b 928 989 856 985 897 989"},"Z":{"ha":938,"x_min":null,"x_max":null,"o":"m 885 318 b 921 281 903 318 921 303 b 876 157 921 257 913 233 l 819 29 b 756 -31 800 -10 782 -31 b 663 0 719 -31 714 0 l 197 0 b 65 -4 133 0 92 -4 b 19 33 33 -4 19 15 b 31 65 19 44 24 56 l 631 896 l 411 896 b 144 728 297 896 242 832 b 92 694 124 707 111 694 b 57 732 75 694 57 707 b 94 833 57 754 69 776 l 147 947 b 215 1017 171 999 189 1017 b 301 986 249 1017 253 986 l 697 986 b 831 990 761 986 804 990 b 878 953 864 990 878 972 b 868 922 878 943 875 932 l 271 90 l 549 90 b 833 283 669 90 731 169 b 885 318 853 306 865 318"},"[":{"ha":489,"x_min":null,"x_max":null,"o":"m 194 -119 b 117 -40 147 -119 117 -87 l 117 963 b 194 1042 117 1010 147 1042 l 408 1042 b 472 996 447 1042 472 1028 b 408 950 472 961 447 950 l 311 950 b 282 925 289 950 282 942 l 282 -3 b 311 -28 282 -19 289 -28 l 408 -28 b 472 -74 447 -28 472 -39 b 408 -119 472 -106 447 -119 l 194 -119"},"\\":{"ha":563,"x_min":null,"x_max":null,"o":"m 471 -42 b 396 3 431 -42 410 -33 l 47 922 b 38 958 43 935 38 946 b 92 990 38 981 56 990 b 167 944 132 990 154 981 l 515 26 b 525 -10 521 14 525 1 b 471 -42 525 -32 508 -42"},"]":{"ha":489,"x_min":null,"x_max":null,"o":"m 81 -119 b 17 -74 42 -119 17 -106 b 81 -28 17 -39 42 -28 l 179 -28 b 208 -3 200 -28 208 -19 l 208 925 b 179 950 208 942 200 950 l 81 950 b 17 996 42 950 17 961 b 81 1042 17 1028 42 1042 l 294 1042 b 374 963 342 1042 374 1010 l 374 -40 b 294 -119 374 -87 342 -119"},"^":{"ha":685,"x_min":null,"x_max":null,"o":"m 90 564 b 46 592 63 564 46 575 b 60 625 46 603 53 614 l 271 947 b 343 994 296 986 310 994 b 414 947 376 994 390 986 l 625 625 b 639 592 633 614 639 603 b 596 564 639 575 622 564 b 497 615 551 564 519 578 l 351 860 b 343 867 349 864 347 867 b 333 860 338 867 336 864 l 188 615 b 90 564 167 578 133 564"},"_":{"ha":613,"x_min":null,"x_max":null,"o":"m 19 -172 b -26 -125 -14 -172 -26 -164 l -26 -99 b 19 -50 -26 -60 -14 -50 l 593 -50 b 639 -99 626 -50 638 -60 l 639 -125 b 593 -172 639 -165 626 -172 l 19 -172"},"`":{"ha":581,"x_min":null,"x_max":null,"o":"m 317 790 b 256 819 299 790 279 796 b 125 950 215 858 154 924 b 78 1021 93 983 78 1001 b 151 1050 78 1043 93 1050 b 229 1018 197 1050 213 1042 b 338 847 263 971 297 918 b 350 813 344 833 350 822 b 317 790 350 800 336 790"},"b":{"ha":882,"x_min":null,"x_max":null,"o":"m 525 708 b 839 356 707 708 839 572 b 475 -19 839 131 675 -19 b 249 31 344 -19 293 31 b 135 -14 208 31 167 -14 b 97 31 110 -14 97 4 l 97 829 b -8 931 97 915 -8 872 b 111 1014 -8 957 22 974 b 229 1056 189 1049 213 1056 b 264 1007 256 1056 264 1031 l 264 571 b 525 708 317 649 404 708 m 469 69 b 663 304 576 69 663 144 b 451 589 663 467 574 589 b 264 376 353 589 264 510 l 264 299 b 469 69 264 164 347 69"},"c":{"ha":733,"x_min":null,"x_max":null,"o":"m 396 -26 b 43 333 203 -26 43 104 b 410 714 43 563 213 714 b 683 558 561 714 683 622 b 610 429 683 528 665 483 b 567 406 592 413 581 406 b 529 450 546 406 533 424 b 383 633 511 543 481 633 b 218 397 286 633 218 540 b 468 93 218 214 335 93 b 647 178 543 93 603 128 b 681 197 661 190 669 197 b 710 164 699 197 710 182 b 697 125 710 153 704 139 b 396 -26 658 51 547 -26"},"d":{"ha":900,"x_min":null,"x_max":null,"o":"m 778 203 b 876 90 778 117 876 146 b 756 15 876 61 847 46 b 647 -17 678 -12 658 -17 b 611 42 613 -17 611 19 l 611 114 b 358 -19 560 38 475 -19 b 43 333 188 -19 43 111 b 401 708 43 553 199 708 b 611 633 492 708 561 679 l 611 832 b 501 935 611 918 501 872 b 625 1017 501 960 532 976 b 742 1056 704 1050 729 1056 b 778 997 771 1056 778 1028 l 778 203 m 431 100 b 611 303 521 100 611 172 l 611 372 b 404 621 611 521 507 621 b 219 383 290 621 219 524 b 431 100 219 207 325 100"},"e":{"ha":764,"x_min":null,"x_max":null,"o":"m 703 190 b 735 156 722 190 735 172 b 721 121 735 146 731 135 b 404 -26 672 49 549 -26 b 42 340 201 -26 42 111 b 406 715 42 565 211 715 b 707 443 589 715 707 579 b 672 393 707 408 696 400 l 240 263 b 475 89 282 163 367 89 b 663 167 550 89 614 121 b 703 190 681 183 690 190 m 382 622 b 213 404 285 622 213 538 b 217 344 213 383 214 364 l 499 433 b 531 474 522 440 531 449 b 382 622 531 540 469 622"},"f":{"ha":496,"x_min":null,"x_max":null,"o":"m 464 688 b 493 664 483 688 493 679 b 489 628 493 651 490 636 b 458 600 486 608 476 600 l 313 600 l 313 156 b 421 29 313 49 421 89 b 383 -4 421 14 410 -4 b 232 0 346 -4 300 0 b 100 -4 171 0 132 -4 b 61 29 72 -4 61 13 b 146 156 61 83 146 49 l 146 600 l 54 600 b 24 628 36 600 26 608 b 19 664 22 636 19 651 b 49 688 19 679 29 688 l 139 688 b 96 864 125 743 96 789 b 325 1061 96 986 192 1061 b 538 953 432 1061 538 1011 b 490 840 538 921 521 888 b 449 807 479 822 465 807 b 413 843 429 807 417 821 b 322 982 397 933 376 982 b 244 888 276 982 244 944 b 303 688 244 811 285 758 l 464 688"},"g":{"ha":811,"x_min":null,"x_max":null,"o":"m 596 147 b 817 -35 726 136 817 75 b 422 -265 817 -169 661 -265 b 31 -90 181 -265 31 -194 b 142 44 31 -35 72 14 b 64 153 94 67 64 104 b 167 294 64 207 113 258 b 57 467 97 332 57 392 b 410 714 57 599 181 714 b 469 711 431 714 450 713 b 619 910 488 839 571 910 b 738 863 658 910 692 896 b 772 815 757 849 772 833 b 729 779 772 794 758 779 b 544 699 643 778 563 769 b 735 490 664 667 735 590 b 383 247 735 361 615 247 b 240 265 331 247 283 253 b 200 214 219 249 200 233 b 282 176 200 192 225 182 b 596 147 408 163 531 153 m 389 635 b 225 488 293 635 225 576 b 401 326 225 386 304 326 b 565 474 497 326 565 383 b 389 635 565 574 486 635 m 425 -187 b 656 -87 575 -187 656 -137 b 533 -10 656 -46 617 -19 b 236 24 436 0 336 13 b 175 -76 200 1 175 -36 b 425 -187 175 -153 271 -187"},"i":{"ha":422,"x_min":null,"x_max":null,"o":"m 175 822 b 86 901 125 822 86 853 b 233 1029 86 963 150 1029 b 325 947 283 1029 325 997 b 175 822 325 886 257 822 m 90 -4 b 51 29 63 -4 51 13 b 136 156 51 83 136 49 l 136 472 b 40 575 136 560 40 517 b 156 657 40 600 69 618 b 265 699 236 694 253 699 b 303 642 293 699 303 676 l 303 156 b 389 29 303 49 389 83 b 350 -4 389 14 376 -4 b 219 0 318 -4 279 0 b 90 -4 160 0 122 -4"},"j":{"ha":388,"x_min":null,"x_max":null,"o":"m 164 822 b 75 901 114 822 75 853 b 221 1029 75 963 139 1029 b 314 947 271 1029 314 997 b 164 822 314 886 246 822 m 129 -129 b 124 -12 129 -96 124 -60 l 124 472 b 29 575 124 560 29 517 b 144 657 29 600 60 618 b 254 699 225 694 242 699 b 290 642 282 699 290 676 l 290 -6 b 33 -267 290 -172 164 -267 b -50 -189 -31 -267 -49 -242 b -1 -71 -51 -131 -39 -71 b 31 -99 14 -71 21 -81 b 99 -171 56 -149 75 -171 b 129 -129 115 -171 129 -158"},"k":{"ha":854,"x_min":null,"x_max":null,"o":"m 772 114 b 868 26 808 57 868 71 b 831 -4 868 7 851 -4 b 688 0 794 -4 753 0 b 558 -4 628 0 592 -4 b 513 29 529 -4 513 7 b 578 108 513 75 578 57 b 557 157 578 121 571 136 l 428 364 l 288 247 l 288 156 b 374 29 288 49 374 83 b 335 -4 374 14 361 -4 b 204 0 303 -4 264 0 b 76 -4 144 0 107 -4 b 36 29 47 -4 36 13 b 121 156 36 83 121 49 l 121 829 b 25 931 121 915 25 872 b 140 1014 25 957 56 974 b 253 1056 221 1051 238 1056 b 288 1007 279 1056 288 1033 l 288 353 l 508 546 b 544 596 531 565 544 578 b 485 660 544 631 485 615 b 529 693 485 682 500 693 b 643 689 557 693 606 689 b 779 693 681 689 749 693 b 818 661 801 693 818 681 b 675 571 818 611 739 625 l 546 463 l 772 114"},"l":{"ha":407,"x_min":null,"x_max":null,"o":"m 76 -4 b 36 29 47 -4 36 13 b 121 156 36 83 121 49 l 121 829 b 25 931 121 915 25 872 b 140 1014 25 957 56 974 b 251 1056 221 1051 238 1056 b 288 997 279 1056 288 1032 l 288 156 b 374 29 288 49 374 83 b 335 -4 374 14 361 -4 b 204 0 303 -4 264 0 b 76 -4 144 0 107 -4"},"o":{"ha":865,"x_min":null,"x_max":null,"o":"m 422 -26 b 42 338 192 -26 42 128 b 443 715 42 554 211 715 b 822 350 672 715 822 561 b 422 -26 822 132 650 -26 m 456 64 b 643 297 574 64 643 158 b 410 625 643 454 550 625 b 222 390 292 625 222 531 b 456 64 222 235 314 64"},"p":{"ha":900,"x_min":null,"x_max":null,"o":"m 546 708 b 857 350 724 708 857 567 b 510 -19 857 125 701 -19 b 290 53 400 -19 336 14 l 290 -93 b 390 -219 290 -199 390 -161 b 351 -253 390 -235 378 -253 b 207 -249 318 -253 272 -249 b 81 -253 149 -249 111 -253 b 40 -219 53 -253 40 -235 b 124 -93 40 -165 124 -200 l 124 472 b 31 575 124 560 31 517 b 146 657 31 601 60 618 b 254 699 225 694 239 699 b 290 642 288 699 290 664 l 290 571 b 546 708 342 649 426 708 m 490 69 b 679 306 596 69 679 147 b 475 589 679 469 593 589 b 290 376 378 589 290 510 l 290 299 b 490 69 290 163 374 69"},"q":{"ha":868,"x_min":null,"x_max":null,"o":"m 771 -93 b 854 -219 771 -200 854 -165 b 814 -253 854 -235 843 -253 b 688 -249 783 -253 746 -249 b 542 -253 622 -249 576 -253 b 503 -219 515 -253 503 -235 b 604 -93 503 -161 604 -200 l 604 111 b 353 -21 553 36 467 -21 b 43 335 183 -21 43 113 b 397 708 43 556 196 708 b 619 656 525 708 578 656 b 733 700 661 656 701 700 b 771 656 757 700 771 682 l 771 -93 m 426 100 b 604 303 517 100 604 171 l 604 371 b 401 619 604 519 500 619 b 219 383 288 619 219 522 b 426 100 219 206 322 100"},"r":{"ha":668,"x_min":null,"x_max":null,"o":"m 546 704 b 658 626 613 704 658 668 b 622 488 658 596 646 553 b 579 446 614 461 601 446 b 538 486 558 446 549 464 b 463 557 517 532 496 557 b 303 285 403 557 303 467 l 303 156 b 406 29 303 49 406 88 b 367 -4 406 14 394 -4 b 219 0 332 -4 286 0 b 90 -4 160 0 122 -4 b 51 29 63 -4 51 13 b 136 156 51 83 136 49 l 136 472 b 40 575 136 560 40 517 b 156 657 40 600 69 618 b 265 699 236 694 253 699 b 303 642 293 699 303 676 l 303 515 b 546 704 347 625 446 704"},"s":{"ha":749,"x_min":null,"x_max":null,"o":"m 169 -24 b 119 29 143 -24 131 6 l 75 124 b 39 215 53 171 39 193 b 71 250 39 238 53 250 b 119 221 86 250 101 238 b 414 69 206 136 306 69 b 547 167 497 69 547 114 b 350 279 547 238 468 251 b 56 503 208 311 56 361 b 306 704 56 618 160 704 b 469 679 385 704 446 679 b 524 707 494 679 494 707 b 582 657 550 707 564 683 l 631 579 b 663 504 647 551 663 522 b 633 472 663 485 649 472 b 585 501 617 472 601 488 b 326 621 511 567 414 621 b 221 543 261 621 221 589 b 414 435 221 481 289 467 b 711 203 565 400 711 354 b 417 -15 711 67 585 -15 b 236 13 321 -15 260 13 b 169 -24 204 13 201 -24"},"t":{"ha":571,"x_min":null,"x_max":null,"o":"m 526 160 b 560 125 547 160 560 143 b 528 64 560 106 547 83 b 324 -17 479 14 410 -17 b 129 124 211 -17 129 47 b 133 356 129 153 133 260 l 133 600 l 50 600 b 6 636 24 600 6 614 b 46 685 6 660 21 672 b 213 885 133 726 174 774 b 269 947 235 928 246 947 b 300 904 288 947 300 935 l 300 688 l 515 688 b 544 661 535 688 544 679 b 540 628 544 651 542 636 b 510 600 538 608 528 600 l 300 600 l 300 225 b 389 92 300 121 338 92 b 492 140 435 92 463 117 b 526 160 500 149 513 160"},"u":{"ha":896,"x_min":null,"x_max":null,"o":"m 764 197 b 875 78 764 111 875 126 b 743 10 875 46 846 32 b 633 -11 674 -7 649 -11 b 597 40 606 -11 597 15 l 597 118 b 360 -17 553 44 476 -17 b 124 251 208 -17 124 83 l 124 479 b 17 589 124 565 17 536 b 140 667 17 618 46 633 b 253 699 222 696 240 699 b 290 640 286 699 290 668 l 290 290 b 426 113 290 178 325 113 b 597 313 511 113 597 174 l 597 479 b 478 589 597 565 478 533 b 614 668 478 618 508 632 b 728 699 692 694 717 699 b 764 640 760 699 764 668 l 764 197"},"v":{"ha":810,"x_min":null,"x_max":null,"o":"m 771 693 b 810 661 793 693 810 682 b 706 547 810 614 740 629 l 494 43 b 406 -8 481 8 467 -8 b 315 44 346 -8 331 7 l 103 546 b 0 661 67 631 0 614 b 38 693 0 682 17 693 b 182 689 74 693 114 689 b 318 693 243 689 285 693 b 363 660 346 693 363 682 b 288 564 363 611 288 628 b 310 482 288 547 294 519 l 443 144 l 575 482 b 599 568 589 522 599 546 b 521 660 599 624 521 611 b 564 693 521 682 536 693 b 665 689 593 693 628 689 b 771 693 703 689 739 693"},"w":{"ha":1261,"x_min":null,"x_max":null,"o":"m 1225 693 b 1265 661 1244 693 1265 682 b 1157 539 1265 613 1194 629 l 947 44 b 858 -8 933 11 921 -8 b 768 46 792 -8 781 14 l 636 388 l 496 44 b 404 -8 485 18 478 -8 b 314 46 342 -8 329 11 l 103 540 b -4 661 64 631 -4 613 b 36 693 -4 682 14 693 b 181 689 72 693 114 689 b 314 693 243 689 282 693 b 361 660 343 693 361 682 b 290 563 361 613 290 626 b 310 489 290 550 299 518 l 444 153 l 589 513 l 578 540 b 479 661 542 632 479 613 b 519 693 479 682 497 693 b 658 689 554 693 590 689 b 796 693 715 689 763 693 b 843 660 825 693 843 682 b 760 563 843 613 760 619 b 778 489 760 543 765 525 l 896 151 l 1029 488 b 1050 567 1043 526 1050 550 b 969 660 1050 626 969 613 b 1018 693 969 682 989 693 b 1118 689 1046 693 1081 689 b 1225 693 1157 689 1193 693"},"x":{"ha":799,"x_min":null,"x_max":null,"o":"m 671 139 b 797 28 729 68 797 72 b 758 -4 797 8 779 -4 b 622 0 722 -4 686 0 b 483 -4 558 0 517 -4 b 439 29 454 -4 439 7 b 497 103 439 71 497 56 b 465 163 497 124 481 144 l 369 282 l 264 156 b 235 100 246 135 235 117 b 296 29 235 58 296 71 b 251 -4 296 8 281 -4 b 144 0 224 -4 182 0 b 36 -4 106 0 68 -4 b -1 28 14 -4 -1 8 b 125 133 -1 74 68 68 l 313 351 l 149 550 b 22 661 90 621 22 617 b 61 693 22 681 40 693 b 199 689 97 693 135 689 b 333 693 263 689 300 693 b 378 661 363 693 378 682 b 322 588 378 619 322 632 b 354 526 322 567 339 544 l 429 433 l 515 533 b 547 590 536 556 547 574 b 488 660 547 631 488 619 b 529 693 488 682 503 693 b 631 689 560 693 593 689 b 742 693 668 689 710 693 b 781 661 764 693 781 682 b 661 564 781 615 713 622 l 486 364 l 671 139"},"y":{"ha":813,"x_min":null,"x_max":null,"o":"m 771 693 b 810 661 793 693 810 682 b 700 533 810 615 740 629 l 453 -49 b 200 -267 394 -187 311 -267 b 96 -235 153 -267 110 -254 b 46 -67 72 -206 46 -111 b 79 -22 46 -42 60 -22 b 117 -47 94 -22 104 -29 b 238 -146 164 -115 197 -146 b 357 -11 285 -146 324 -93 l 360 -6 l 110 532 b -1 661 64 629 -1 615 b 38 693 -1 682 15 693 b 182 689 74 693 114 689 b 318 693 243 689 285 693 b 363 660 346 693 363 682 b 288 564 363 611 288 628 b 310 482 288 547 294 519 l 447 167 l 576 482 b 600 568 592 522 600 546 b 522 660 600 624 522 611 b 565 693 522 682 538 693 b 667 689 594 693 631 689 b 771 693 704 689 739 693"},"z":{"ha":736,"x_min":null,"x_max":null,"o":"m 682 243 b 714 208 699 243 714 231 b 694 139 714 186 703 161 l 646 24 b 594 -29 638 6 625 -29 b 524 0 565 -29 560 0 l 204 0 b 71 -4 146 0 97 -4 b 24 32 39 -4 24 11 b 40 71 24 46 32 58 l 447 603 l 322 603 b 128 497 243 603 189 569 b 83 468 113 479 99 468 b 53 501 68 468 53 481 b 72 567 53 524 64 546 l 115 669 b 161 717 124 689 133 717 b 229 688 192 717 194 688 l 499 688 b 632 692 563 688 606 692 b 679 657 665 692 679 678 b 665 624 679 644 674 633 l 257 86 l 394 86 b 635 213 499 86 565 125 b 682 243 649 229 663 243"},"{":{"ha":482,"x_min":null,"x_max":null,"o":"m 404 -29 b 453 -74 431 -29 453 -42 b 401 -118 453 -103 432 -115 b 310 -124 375 -122 328 -124 b 106 65 176 -124 106 -42 b 160 311 106 160 160 239 b 81 411 160 381 111 400 b 36 461 63 418 36 429 b 81 513 36 494 64 506 b 160 613 111 524 160 546 b 106 858 160 683 106 765 b 310 1046 106 964 176 1046 b 401 1042 328 1046 375 1044 b 453 996 433 1038 453 1025 b 404 953 453 964 431 953 l 351 954 b 274 874 296 954 274 922 b 329 615 274 793 329 694 b 214 463 329 549 293 492 b 329 308 293 432 329 375 b 274 50 329 228 274 129 b 351 -32 274 1 296 -32 b 404 -29 365 -32 393 -29"},"|":{"ha":365,"x_min":null,"x_max":null,"o":"m 182 -201 b 118 -150 142 -201 118 -189 l 118 1138 b 182 1188 118 1176 142 1188 b 247 1138 222 1188 247 1176 l 247 -150 b 182 -201 247 -189 222 -201"},"}":{"ha":482,"x_min":null,"x_max":null,"o":"m 401 514 b 446 463 418 508 446 496 b 401 414 446 431 419 419 b 322 313 371 401 322 382 b 378 68 322 240 378 161 b 172 -122 378 -40 306 -122 b 81 -117 154 -122 107 -121 b 29 -71 51 -112 29 -101 b 79 -28 29 -39 51 -28 l 132 -29 b 208 51 188 -29 208 3 b 153 310 208 132 153 229 b 269 464 153 376 189 433 b 153 617 189 493 153 550 b 208 875 153 697 208 794 b 132 956 208 924 188 956 l 79 954 b 29 997 51 954 29 965 b 81 1043 29 1026 49 1039 b 172 1047 107 1046 154 1047 b 378 860 306 1047 378 967 b 322 614 378 767 322 685 b 401 514 322 547 371 525"},"~":{"ha":817,"x_min":null,"x_max":null,"o":"m 135 324 b 75 378 99 324 75 350 b 81 406 75 386 76 396 b 272 546 110 486 174 546 b 544 438 388 546 468 438 b 649 522 592 438 626 467 b 683 549 656 538 667 549 b 743 493 719 549 743 521 b 739 467 743 486 742 475 b 547 326 708 385 646 326 b 274 433 432 326 349 433 b 169 349 226 433 192 406 b 135 324 163 333 151 324"}," ":{"ha":342,"x_min":null,"x_max":null,"o":""},"¡":{"ha":353,"x_min":null,"x_max":null,"o":"m 171 535 b 71 621 111 535 71 567 b 186 715 71 672 119 715 b 285 629 244 715 285 683 b 171 535 285 576 238 535 m 175 440 b 214 408 197 440 208 429 b 267 -206 233 168 267 -104 b 175 -311 267 -268 240 -311 b 83 -206 110 -311 83 -271 b 136 408 83 -104 117 168 b 175 440 142 429 154 440"},"¢":{"ha":821,"x_min":null,"x_max":null,"o":"m 735 211 b 769 176 754 211 769 196 b 751 126 769 163 764 146 b 486 -18 713 71 622 -3 l 486 -139 b 440 -193 486 -176 474 -193 b 394 -139 407 -193 394 -176 l 394 -19 b 71 332 200 -3 71 129 b 385 706 71 547 224 690 l 385 808 b 431 863 385 844 397 863 b 476 808 464 863 476 844 l 476 701 b 579 679 522 693 558 679 b 635 711 607 679 610 711 b 689 649 657 711 671 694 l 726 544 b 760 450 747 490 760 469 b 729 415 760 426 744 415 b 683 447 713 415 699 428 b 450 625 589 564 528 625 b 269 358 357 625 269 521 b 494 96 269 190 372 96 b 692 183 579 96 653 136 b 735 211 704 197 715 211"},"£":{"ha":875,"x_min":null,"x_max":null,"o":"m 800 231 b 833 175 819 231 833 214 b 624 -24 833 94 768 -24 b 306 75 513 -24 394 47 b 153 -18 263 22 217 -18 b 57 65 104 -18 57 13 b 243 196 57 135 140 194 b 260 278 254 219 260 246 b 233 422 260 326 249 375 l 135 422 b 63 485 104 422 63 442 b 115 526 63 526 99 526 l 193 526 b 140 732 165 596 140 664 b 467 1008 140 899 286 1008 b 774 849 624 1008 774 924 b 693 721 774 821 750 772 b 650 697 674 704 664 697 b 607 742 621 697 613 721 b 472 911 592 815 572 911 b 331 743 394 911 331 854 b 365 526 331 682 349 608 l 604 526 b 676 463 635 526 676 506 b 624 422 676 422 640 422 l 382 422 b 386 340 385 396 386 368 b 356 181 386 279 378 228 b 604 136 438 164 529 136 b 751 199 661 136 703 153 b 800 231 771 215 782 231"},"¤":{"ha":813,"x_min":null,"x_max":null,"o":"m 721 188 b 740 151 733 176 740 164 b 676 88 740 125 701 88 b 640 107 665 88 654 94 l 571 175 b 407 125 524 143 467 125 b 242 176 346 125 289 144 l 171 107 b 135 89 157 93 146 89 b 74 149 108 89 74 124 b 92 186 74 164 81 176 l 160 257 b 108 424 128 304 108 363 b 158 588 108 483 126 540 l 90 657 b 71 694 76 671 71 683 b 135 758 71 719 110 758 b 172 739 146 758 158 753 l 240 669 b 407 722 288 703 346 722 b 574 671 468 722 525 703 l 642 740 b 679 758 654 751 667 758 b 740 697 703 758 740 721 b 722 660 740 685 733 674 l 654 592 b 707 424 688 543 707 485 b 653 256 707 361 688 303 l 721 188 m 407 228 b 603 424 514 228 603 317 b 407 619 603 531 514 619 b 213 424 300 619 213 531 b 407 228 213 317 300 228"},"¥":{"ha":1006,"x_min":null,"x_max":null,"o":"m 939 989 b 975 958 961 989 975 976 b 874 864 975 910 915 921 l 618 504 l 772 504 b 822 461 807 504 822 492 b 772 418 822 432 807 418 l 592 418 l 592 303 l 772 303 b 822 260 807 303 822 290 b 772 217 822 231 807 217 l 592 217 l 592 150 b 703 31 592 56 703 92 b 661 -4 703 13 690 -4 b 500 0 619 -4 571 0 b 339 -4 429 0 379 -4 b 297 31 308 -4 297 13 b 407 150 297 92 407 56 l 407 217 l 226 217 b 176 260 193 217 176 231 b 226 303 176 290 193 303 l 407 303 l 407 418 l 226 418 b 176 461 193 418 176 432 b 226 504 176 492 193 504 l 383 504 l 131 861 b 32 957 90 918 32 913 b 67 989 32 976 46 989 b 206 985 97 989 142 985 b 360 989 265 985 324 989 b 408 954 390 989 408 978 b 339 872 408 906 339 924 b 354 828 339 860 344 842 l 547 554 l 738 822 b 756 868 747 835 756 853 b 681 954 756 921 681 906 b 731 989 681 978 700 989 b 842 985 767 989 804 985 b 939 989 879 985 910 989"},"¦":{"ha":365,"x_min":null,"x_max":null,"o":"m 182 614 b 118 664 142 614 118 625 l 118 1138 b 182 1188 118 1176 142 1188 b 247 1138 222 1188 247 1176 l 247 664 b 182 614 247 625 222 614 m 182 -201 b 118 -150 142 -201 118 -189 l 118 322 b 182 374 118 361 142 374 b 247 322 222 374 247 361 l 247 -150 b 182 -201 247 -189 222 -201"},"§":{"ha":879,"x_min":null,"x_max":null,"o":"m 656 286 b 781 108 729 249 781 194 b 464 -115 781 -33 646 -115 b 264 -87 358 -115 289 -87 b 192 -124 231 -87 228 -124 b 142 -69 165 -124 153 -94 l 93 26 b 51 121 67 76 51 101 b 85 157 51 144 67 157 b 138 126 103 157 119 142 b 461 -33 233 40 343 -33 b 615 74 556 -33 615 15 b 393 194 615 149 529 160 b 72 436 232 235 72 278 b 229 635 72 529 133 603 b 115 799 163 671 115 722 b 385 1007 115 918 226 1007 b 565 981 472 1007 540 981 b 624 1010 592 981 592 1010 b 685 958 650 1010 667 988 l 736 876 b 772 801 754 850 772 819 b 742 768 772 782 758 768 b 690 799 722 768 708 783 b 404 924 615 864 504 924 b 282 842 329 924 282 889 b 500 724 282 775 356 758 b 825 482 671 682 825 636 b 656 286 825 385 758 318 m 238 490 b 456 354 238 408 307 392 l 547 329 b 660 440 615 344 660 389 b 438 564 660 517 572 531 b 328 594 401 572 364 582 b 238 490 274 581 238 540"},"¨":{"ha":581,"x_min":null,"x_max":null,"o":"m 157 819 b 58 906 99 819 58 854 b 158 996 58 956 99 996 b 254 908 214 996 254 961 b 157 819 254 856 214 819 m 424 819 b 326 906 367 819 326 854 b 425 994 326 956 367 994 b 521 908 481 994 521 961 b 424 819 521 856 481 819"},"©":{"ha":1167,"x_min":null,"x_max":null,"o":"m 583 -22 b 71 494 297 -22 71 204 b 583 1010 71 783 297 1010 b 1096 494 871 1010 1096 783 b 583 -22 1096 204 871 -22 m 583 64 b 1008 494 821 64 1008 253 b 583 924 1008 735 821 924 b 158 494 346 924 158 735 b 583 64 158 253 346 64 m 578 221 b 317 485 424 221 317 321 b 574 769 317 654 444 769 b 694 751 628 769 674 751 b 733 772 711 751 715 772 b 769 733 747 772 758 763 l 796 661 b 817 601 808 629 817 615 b 793 574 817 583 807 574 b 761 597 781 574 771 583 b 601 708 701 674 660 708 b 461 504 524 708 461 629 b 624 307 461 376 533 307 b 765 372 688 307 736 336 b 796 394 774 385 783 394 b 821 368 810 394 821 382 b 808 333 821 358 817 347 b 578 221 779 285 700 221"},"ª":{"ha":581,"x_min":null,"x_max":null,"o":"m 575 574 b 593 556 588 572 593 567 b 476 485 593 529 549 485 b 374 551 433 485 394 507 b 194 482 336 515 274 482 b 22 631 89 482 22 543 b 226 789 22 718 96 789 b 336 772 268 789 306 782 l 335 788 b 229 906 324 864 292 906 b 118 865 186 906 149 888 b 83 851 103 857 93 851 b 58 878 72 851 58 861 b 89 925 58 896 75 913 b 274 994 124 961 190 994 b 468 824 400 994 454 922 l 492 661 b 575 574 500 597 521 585 m 253 564 b 358 611 294 564 336 586 l 344 713 b 269 724 321 719 294 724 b 167 646 207 724 167 697 b 253 564 167 596 203 564"},"«":{"ha":786,"x_min":null,"x_max":null,"o":"m 349 179 b 408 79 388 133 408 104 b 376 46 408 61 396 46 b 286 106 356 46 328 71 l 118 250 b 58 336 88 276 58 301 b 118 422 58 372 88 396 l 286 568 b 376 628 328 604 356 628 b 408 593 396 628 408 611 b 349 494 408 569 388 540 l 229 346 b 228 336 229 343 228 340 b 229 328 228 333 228 331 m 660 179 b 719 79 697 133 719 104 b 688 46 719 61 707 46 b 597 106 667 46 638 71 l 429 250 b 368 336 397 276 368 301 b 429 422 368 372 397 396 l 597 568 b 688 628 638 604 667 628 b 719 593 707 628 719 611 b 660 494 719 569 697 540 l 540 346 b 539 336 540 343 539 340 b 540 328 539 333 539 331"},"¬":{"ha":767,"x_min":null,"x_max":null,"o":"m 629 143 b 571 181 592 143 571 154 l 571 419 b 554 436 571 431 565 436 l 103 436 b 65 493 76 436 65 456 b 103 549 65 528 76 549 l 647 549 b 686 510 674 549 686 536 l 686 181 b 629 143 686 154 665 143"},"®":{"ha":951,"x_min":null,"x_max":null,"o":"m 475 1008 b 876 608 697 1008 876 829 b 475 208 876 388 697 208 b 74 608 254 208 74 388 b 475 1008 74 829 254 1008 m 475 283 b 800 608 656 283 800 429 b 475 933 800 789 656 933 b 150 608 296 933 150 789 b 475 283 150 429 296 283 m 643 479 b 697 428 668 447 697 453 b 679 411 697 419 690 411 b 604 414 665 411 635 414 b 535 411 575 414 551 411 b 510 429 521 411 510 418 b 539 467 510 451 539 443 b 524 493 539 476 531 485 l 488 540 b 453 558 476 554 471 558 l 419 558 b 406 543 414 558 406 556 l 406 482 b 443 429 406 443 443 454 b 421 411 443 421 436 411 b 357 414 407 411 389 414 b 293 411 322 414 307 411 b 271 429 278 411 271 422 b 307 482 271 454 307 443 l 307 749 b 271 801 307 789 271 776 b 294 819 271 810 281 819 b 356 817 310 819 322 817 b 468 821 383 817 411 821 b 660 688 588 821 660 768 b 569 574 660 633 626 594 l 643 479 m 460 604 b 553 689 514 604 553 631 b 457 775 553 749 508 775 b 406 749 411 775 406 764 l 406 624 b 444 604 406 604 426 604"},"¯":{"ha":581,"x_min":null,"x_max":null,"o":"m 124 867 b 82 917 93 867 82 883 b 124 965 82 949 93 965 l 289 964 b 457 965 331 964 425 965 b 499 917 486 965 499 949 b 457 867 499 883 486 867 b 290 869 421 867 331 869 b 124 867 250 869 156 867"},"°":{"ha":554,"x_min":null,"x_max":null,"o":"m 276 549 b 42 779 144 549 42 650 b 276 1010 42 908 144 1010 b 513 779 408 1010 513 908 b 276 549 513 650 408 549 m 276 643 b 411 779 353 643 411 703 b 276 915 411 856 353 915 b 143 779 201 915 143 856 b 276 643 143 703 201 643"},"±":{"ha":775,"x_min":null,"x_max":null,"o":"m 388 193 b 329 231 351 193 329 204 l 329 364 b 313 381 329 375 325 381 l 96 381 b 60 438 69 381 60 400 b 96 493 60 472 69 493 l 313 493 b 329 510 325 493 329 499 l 329 713 b 388 750 329 739 351 750 b 446 713 425 750 446 739 l 446 510 b 463 493 446 499 451 493 l 679 493 b 717 438 706 493 717 472 b 679 381 717 400 706 381 l 463 381 b 446 364 451 381 446 375 l 446 231 b 388 193 446 204 425 193 m 96 44 b 58 101 69 44 58 65 b 96 157 58 138 69 157 l 681 157 b 717 101 707 157 717 138 b 681 44 717 65 707 44 l 96 44"},"²":{"ha":599,"x_min":null,"x_max":null,"o":"m 543 572 b 569 543 556 572 569 560 b 543 471 569 525 561 510 l 500 383 b 451 339 488 356 476 339 b 383 361 426 339 422 361 l 150 361 b 60 358 124 361 89 358 b 24 390 33 358 24 376 b 49 438 24 404 31 418 b 257 657 126 525 119 511 b 344 822 310 713 344 767 b 244 913 344 872 306 913 b 119 839 188 913 151 882 b 79 808 107 821 93 808 b 50 842 63 808 50 825 b 61 882 50 854 54 869 b 293 1017 106 963 186 1017 b 508 843 425 1017 508 936 b 388 643 508 758 447 694 b 183 476 321 588 246 539 l 365 476 b 504 547 406 476 444 488 b 543 572 518 561 528 572"},"³":{"ha":586,"x_min":null,"x_max":null,"o":"m 347 765 b 542 564 471 750 542 654 b 290 347 542 446 433 347 b 49 472 150 347 74 421 b 36 519 40 489 36 507 b 67 550 36 536 51 550 b 104 525 83 550 92 540 b 253 449 133 483 183 449 b 382 557 326 449 382 493 b 268 672 382 626 326 672 b 221 667 250 672 235 667 b 188 701 199 667 188 683 b 238 754 188 726 214 733 b 386 901 278 789 340 851 l 247 901 b 115 826 207 901 182 899 b 78 804 100 810 90 804 b 53 833 67 804 53 814 b 74 897 53 850 64 874 l 107 976 b 154 1022 121 1010 132 1022 b 219 1001 179 1022 183 1001 l 406 1001 b 496 1004 433 1001 467 1004 b 533 964 522 1004 533 981 b 497 906 533 949 525 935 b 347 765 460 867 407 818"},"´":{"ha":581,"x_min":null,"x_max":null,"o":"m 250 790 b 217 813 229 790 217 800 b 229 847 217 822 221 833 b 336 1018 271 918 304 969 b 414 1050 353 1042 368 1050 b 488 1021 472 1050 488 1043 b 440 950 488 1001 474 983 b 310 819 410 921 350 857 b 250 790 286 796 268 790"},"µ":{"ha":800,"x_min":null,"x_max":null,"o":"m 731 104 b 761 56 750 104 761 90 b 722 -4 761 17 750 3 b 665 -11 704 -8 682 -11 b 538 61 603 -11 560 14 b 369 -14 499 14 439 -14 b 222 44 313 -14 258 8 l 222 -208 b 165 -256 222 -244 210 -256 b 108 -208 121 -256 108 -244 l 108 649 b 165 697 108 686 121 697 b 222 649 210 697 222 686 l 222 244 b 372 100 222 154 279 100 b 524 250 471 100 524 153 l 524 649 b 581 697 524 686 536 697 b 638 649 625 697 638 686 l 638 156 b 693 100 638 115 653 100 b 731 104 707 100 721 104"},"¶":{"ha":922,"x_min":null,"x_max":null,"o":"m 824 990 b 865 957 853 990 865 975 b 763 836 865 897 763 931 l 763 49 b 701 -11 763 8 746 -11 b 640 49 657 -11 640 8 l 640 843 b 582 897 640 876 625 897 b 525 843 542 897 525 878 l 525 49 b 465 -11 525 8 508 -11 b 403 49 419 -11 403 8 l 403 363 b 54 689 178 369 54 493 b 439 994 54 854 164 994 b 672 986 558 994 615 986 b 824 990 743 986 786 990"},"·":{"ha":364,"x_min":null,"x_max":null,"o":"m 189 417 b 297 324 253 417 297 382 b 174 221 297 268 246 221 b 67 314 110 221 67 256 b 189 417 67 371 118 417 z "},"¸":{"ha":581,"x_min":null,"x_max":null,"o":"m 311 -64 b 440 -167 385 -64 440 -107 b 288 -278 440 -232 376 -278 b 163 -249 239 -278 192 -265 b 143 -218 149 -239 143 -231 b 168 -190 143 -203 153 -190 b 201 -199 176 -190 189 -194 b 282 -217 224 -207 253 -217 b 346 -175 321 -217 346 -200 b 289 -136 346 -151 326 -136 b 228 -151 269 -136 249 -143 b 185 -111 214 -147 189 -126 l 222 24 l 290 24 l 267 -69 b 311 -64 281 -65 296 -64"},"¹":{"ha":425,"x_min":null,"x_max":null,"o":"m 100 358 b 68 385 78 358 68 372 b 156 472 68 429 156 404 l 156 835 b 121 878 156 864 142 878 b 49 871 97 878 68 871 b 17 897 29 871 17 882 b 44 929 17 911 25 924 b 204 975 92 944 135 953 b 319 1015 274 999 299 1015 b 347 989 336 1015 347 1001 b 301 904 347 956 301 953 l 301 472 b 390 385 301 404 390 429 b 358 358 390 371 381 358 b 229 361 326 358 290 361 b 100 358 167 361 132 358"},"º":{"ha":622,"x_min":null,"x_max":null,"o":"m 301 474 b 26 729 133 474 26 585 b 321 997 26 883 149 997 b 596 740 489 997 596 888 b 301 474 596 586 469 474 m 328 544 b 444 701 401 544 444 604 b 293 926 444 803 388 926 b 176 769 221 926 176 867 b 328 544 176 669 235 544"},"»":{"ha":786,"x_min":null,"x_max":null,"o":"m 417 336 b 357 250 417 301 388 276 l 188 106 b 99 46 147 71 119 46 b 67 79 79 46 67 61 b 126 179 67 104 88 133 l 246 329 b 247 336 247 332 247 333 b 246 343 247 339 247 340 l 126 494 b 67 593 88 540 67 569 b 99 628 67 611 79 628 b 188 568 119 628 147 604 l 357 422 b 417 336 388 396 417 372 m 667 422 b 728 336 699 396 728 372 b 667 250 728 301 699 276 l 499 106 b 410 46 458 71 429 46 b 376 79 390 46 376 61 b 436 179 376 104 399 133 l 557 331 b 558 336 558 332 558 333 b 557 342 558 339 558 340 l 436 494 b 376 593 399 540 376 569 b 410 628 376 611 390 628 b 499 568 429 628 458 604 l 667 422"},"¼":{"ha":1357,"x_min":null,"x_max":null,"o":"m 415 372 b 383 346 415 358 406 346 b 254 349 351 346 315 349 b 125 346 192 349 157 346 b 93 372 103 346 93 360 b 181 460 93 417 181 392 l 181 822 b 146 865 181 851 167 865 b 74 858 122 865 93 858 b 42 885 54 858 42 869 b 69 917 42 899 50 911 b 231 963 118 932 160 940 b 346 1003 299 986 324 1003 b 372 976 363 1003 372 989 b 326 892 372 943 326 940 l 326 460 b 415 372 326 392 415 417 m 1038 947 b 1011 885 1038 929 1032 915 l 440 40 b 374 -22 417 6 401 -22 b 317 26 342 -22 317 3 b 343 89 317 44 322 58 l 914 932 b 981 996 938 968 954 996 b 1038 947 1013 996 1038 969 m 1278 256 b 1313 215 1299 256 1313 253 l 1313 186 b 1278 146 1313 157 1308 146 l 1224 146 l 1224 104 b 1282 22 1224 42 1282 61 b 1250 -3 1282 10 1272 -3 b 1150 0 1226 -3 1200 0 b 1039 -3 1097 0 1064 -3 b 1007 22 1017 -3 1007 10 b 1076 104 1007 64 1076 42 l 1076 146 l 825 146 b 774 188 793 146 774 157 b 824 290 774 221 794 246 l 1032 586 b 1119 643 1061 629 1079 643 l 1176 643 b 1224 606 1204 643 1224 632 l 1224 256 l 1278 256 m 883 256 l 1082 256 l 1082 538"},"½":{"ha":1439,"x_min":null,"x_max":null,"o":"m 417 372 b 385 346 417 358 406 346 b 254 349 353 346 317 349 b 126 346 193 349 157 346 b 93 372 103 346 93 360 b 182 460 93 417 182 392 l 182 822 b 147 865 182 851 168 865 b 75 858 124 865 94 858 b 42 885 56 858 42 869 b 71 917 42 899 50 911 b 231 963 118 932 161 940 b 346 1003 300 986 324 1003 b 374 976 363 1003 374 989 b 328 892 374 943 328 940 l 328 460 b 417 372 328 392 417 417 m 1040 947 b 1013 885 1040 929 1033 915 l 442 40 b 375 -22 418 6 403 -22 b 318 26 344 -22 318 3 b 344 89 318 44 324 58 l 915 932 b 983 996 939 968 956 996 b 1040 947 1014 996 1040 969 m 1369 211 b 1397 182 1383 211 1397 199 b 1371 110 1397 164 1389 149 l 1328 22 b 1279 -22 1314 -6 1304 -22 b 1211 0 1254 -22 1250 0 l 978 0 b 888 -3 950 0 917 -3 b 850 29 861 -3 850 15 b 875 76 850 43 858 57 b 1083 296 954 164 947 150 b 1172 461 1138 351 1172 406 b 1072 551 1172 511 1133 551 b 947 478 1015 551 979 521 b 907 447 935 460 921 447 b 878 481 890 447 878 464 b 889 521 878 493 882 508 b 1121 656 933 601 1014 656 b 1336 482 1253 656 1336 575 b 1215 282 1336 397 1275 333 b 1011 115 1149 226 1074 178 l 1193 115 b 1332 186 1233 115 1272 126 b 1369 211 1346 200 1354 211"},"¾":{"ha":1417,"x_min":null,"x_max":null,"o":"m 553 551 b 301 335 553 433 444 335 b 60 460 161 335 85 408 b 47 507 51 476 47 494 b 78 538 47 524 63 538 b 115 513 94 538 103 528 b 264 436 144 471 194 436 b 393 544 338 436 393 481 b 279 660 393 614 338 660 b 232 654 261 660 246 654 b 199 689 210 654 199 671 b 249 742 199 714 225 721 b 397 889 289 776 351 839 l 258 889 b 126 814 218 889 193 886 b 89 792 111 797 101 792 b 64 821 78 792 64 801 b 85 885 64 838 75 861 l 118 964 b 165 1010 132 997 143 1010 b 231 989 190 1010 194 989 l 417 989 b 507 992 444 989 478 992 b 544 951 533 992 544 968 b 508 893 544 936 536 922 b 358 753 471 854 418 806 b 553 551 482 738 553 642 m 1124 947 b 1096 885 1124 929 1117 915 l 525 40 b 458 -22 501 6 486 -22 b 401 26 428 -22 401 3 b 428 89 401 44 407 58 l 999 932 b 1067 996 1022 968 1039 996 b 1124 947 1097 996 1124 969 m 1340 256 b 1375 215 1360 256 1375 253 l 1375 186 b 1340 146 1375 157 1369 146 l 1285 146 l 1285 104 b 1343 22 1285 42 1343 61 b 1311 -3 1343 10 1335 -3 b 1211 0 1289 -3 1261 0 b 1101 -3 1160 0 1125 -3 b 1069 22 1079 -3 1069 10 b 1139 104 1069 64 1139 42 l 1139 146 l 886 146 b 836 188 854 146 836 157 b 886 290 836 221 856 246 l 1094 586 b 1181 643 1122 629 1140 643 l 1238 643 b 1285 606 1267 643 1285 632 l 1285 256 l 1340 256 m 944 256 l 1144 256 l 1144 539"},"¿":{"ha":628,"x_min":null,"x_max":null,"o":"m 331 539 b 231 624 272 539 231 571 b 346 715 231 674 279 715 b 444 632 406 715 444 685 b 331 539 444 581 397 539 m 344 440 b 381 413 367 440 376 428 b 397 254 389 379 397 307 b 296 53 397 183 369 128 b 192 -112 226 -18 192 -53 b 297 -221 192 -176 232 -221 b 440 -51 376 -221 419 -146 b 478 -11 444 -28 457 -11 b 519 -33 492 -11 501 -18 b 593 -154 578 -82 593 -126 b 315 -310 593 -219 475 -310 b 49 -81 171 -310 49 -221 b 189 171 49 40 118 101 b 293 311 254 235 285 269 b 308 414 301 365 306 392 b 344 440 313 428 322 440"},"À":{"ha":1024,"x_min":null,"x_max":null,"o":"m 479 1078 b 349 1208 439 1117 378 1182 b 301 1279 317 1242 301 1260 b 375 1308 301 1301 317 1308 b 453 1276 421 1308 436 1300 b 561 1106 486 1229 521 1176 b 574 1071 568 1092 574 1081 b 540 1049 574 1058 560 1049 b 479 1078 522 1049 503 1054 m 925 151 b 1035 26 963 58 1035 79 b 999 -4 1035 8 1021 -4 b 861 0 969 -4 926 0 b 696 -4 796 0 735 -4 b 646 31 664 -4 646 7 b 739 119 646 81 739 64 b 728 168 739 132 735 147 l 671 308 b 628 340 663 332 654 340 l 315 340 b 272 308 289 340 281 332 l 217 169 b 203 121 208 147 203 133 b 299 31 203 65 299 79 b 249 -4 299 7 281 -4 b 128 0 210 -4 171 0 b 25 -4 85 0 56 -4 b -12 26 1 -4 -12 8 b 99 149 -12 82 63 57 l 321 714 b 393 908 347 781 375 854 b 514 996 419 986 431 996 b 631 908 596 996 604 985 b 704 714 650 854 678 781 l 925 151 m 594 432 b 614 457 617 432 619 444 l 471 819 l 329 458 b 346 432 324 443 328 432 l 594 432"},"Á":{"ha":1024,"x_min":null,"x_max":null,"o":"m 474 1049 b 440 1071 453 1049 440 1058 b 453 1106 440 1081 444 1092 b 560 1276 494 1176 528 1228 b 638 1308 576 1300 592 1308 b 711 1279 696 1308 711 1301 b 664 1208 711 1260 697 1242 b 533 1078 633 1179 574 1115 b 474 1049 510 1054 492 1049 m 925 151 b 1035 26 963 58 1035 79 b 999 -4 1035 8 1021 -4 b 861 0 969 -4 926 0 b 696 -4 796 0 735 -4 b 646 31 664 -4 646 7 b 739 119 646 81 739 64 b 728 168 739 132 735 147 l 671 308 b 628 340 663 332 654 340 l 315 340 b 272 308 289 340 281 332 l 217 169 b 203 121 208 147 203 133 b 299 31 203 65 299 79 b 249 -4 299 7 281 -4 b 128 0 210 -4 171 0 b 25 -4 85 0 56 -4 b -12 26 1 -4 -12 8 b 99 149 -12 82 63 57 l 321 714 b 393 908 347 781 375 854 b 514 996 419 986 431 996 b 631 908 596 996 604 985 b 704 714 650 854 678 781 l 925 151 m 594 432 b 614 457 617 432 619 444 l 471 819 l 329 458 b 346 432 324 443 328 432 l 594 432"},"Â":{"ha":1024,"x_min":null,"x_max":null,"o":"m 343 1060 b 307 1090 321 1060 307 1076 b 322 1128 307 1101 313 1113 b 435 1275 358 1178 394 1226 b 517 1311 457 1301 472 1311 b 599 1275 563 1311 576 1301 b 711 1128 640 1226 676 1179 b 728 1090 722 1113 728 1101 b 690 1060 728 1076 713 1060 b 633 1090 674 1060 656 1067 l 517 1208 l 400 1090 b 343 1060 378 1067 360 1060 m 925 151 b 1035 26 963 58 1035 79 b 999 -4 1035 8 1021 -4 b 861 0 969 -4 926 0 b 696 -4 796 0 735 -4 b 646 31 664 -4 646 7 b 739 119 646 81 739 64 b 728 168 739 132 735 147 l 671 308 b 628 340 663 332 654 340 l 315 340 b 272 308 289 340 281 332 l 217 169 b 203 121 208 147 203 133 b 299 31 203 65 299 79 b 249 -4 299 7 281 -4 b 128 0 210 -4 171 0 b 25 -4 85 0 56 -4 b -12 26 1 -4 -12 8 b 99 149 -12 82 63 57 l 321 714 b 393 908 347 781 375 854 b 514 996 419 986 431 996 b 631 908 596 996 604 985 b 704 714 650 854 678 781 l 925 151 m 594 432 b 614 457 617 432 619 444 l 471 819 l 329 458 b 346 432 324 443 328 432 l 594 432"},"Ã":{"ha":1024,"x_min":null,"x_max":null,"o":"m 332 1089 b 299 1124 311 1089 299 1101 b 308 1169 299 1132 301 1149 b 426 1281 328 1226 371 1281 b 606 1175 507 1281 565 1175 b 651 1222 621 1175 635 1190 b 699 1268 667 1249 674 1268 b 732 1233 719 1268 732 1256 b 722 1186 732 1224 729 1207 b 603 1076 701 1128 660 1076 b 425 1181 522 1076 458 1181 b 379 1135 410 1181 394 1163 b 332 1089 364 1108 356 1089 m 925 151 b 1035 26 963 58 1035 79 b 999 -4 1035 8 1021 -4 b 861 0 969 -4 926 0 b 696 -4 796 0 735 -4 b 646 31 664 -4 646 7 b 739 119 646 81 739 64 b 728 168 739 132 735 147 l 671 308 b 628 340 663 332 654 340 l 315 340 b 272 308 289 340 281 332 l 217 169 b 203 121 208 147 203 133 b 299 31 203 65 299 79 b 249 -4 299 7 281 -4 b 128 0 210 -4 171 0 b 25 -4 85 0 56 -4 b -12 26 1 -4 -12 8 b 99 149 -12 82 63 57 l 321 714 b 393 908 347 781 375 854 b 514 996 419 986 431 996 b 631 908 596 996 604 985 b 704 714 650 854 678 781 l 925 151 m 594 432 b 614 457 617 432 619 444 l 471 819 l 329 458 b 346 432 324 443 328 432 l 594 432"},"Ä":{"ha":1024,"x_min":null,"x_max":null,"o":"m 381 1078 b 282 1164 322 1078 282 1113 b 382 1254 282 1214 322 1254 b 478 1167 438 1254 478 1219 b 381 1078 478 1114 438 1078 m 647 1078 b 550 1164 590 1078 550 1113 b 649 1253 550 1214 590 1253 b 744 1167 704 1253 744 1219 b 647 1078 744 1114 704 1078 m 925 151 b 1035 26 963 58 1035 79 b 999 -4 1035 8 1021 -4 b 861 0 969 -4 926 0 b 696 -4 796 0 735 -4 b 646 31 664 -4 646 7 b 739 119 646 81 739 64 b 728 168 739 132 735 147 l 671 308 b 628 340 663 332 654 340 l 315 340 b 272 308 289 340 281 332 l 217 169 b 203 121 208 147 203 133 b 299 31 203 65 299 79 b 249 -4 299 7 281 -4 b 128 0 210 -4 171 0 b 25 -4 85 0 56 -4 b -12 26 1 -4 -12 8 b 99 149 -12 82 63 57 l 321 714 b 393 908 347 781 375 854 b 514 996 419 986 431 996 b 631 908 596 996 604 985 b 704 714 650 854 678 781 l 925 151 m 594 432 b 614 457 617 432 619 444 l 471 819 l 329 458 b 346 432 324 443 328 432 l 594 432"},"Å":{"ha":1024,"x_min":null,"x_max":null,"o":"m 513 1036 b 351 1181 408 1036 351 1088 b 521 1322 351 1271 415 1322 b 681 1186 621 1322 681 1274 b 513 1036 681 1090 618 1036 m 517 1264 b 446 1176 472 1264 446 1236 b 517 1097 446 1125 474 1097 b 585 1182 561 1097 585 1124 b 517 1264 585 1236 558 1264 m 925 151 b 1035 26 963 58 1035 79 b 999 -4 1035 8 1021 -4 b 861 0 969 -4 926 0 b 696 -4 796 0 735 -4 b 646 31 664 -4 646 7 b 739 119 646 81 739 64 b 728 168 739 132 735 147 l 671 308 b 628 340 663 332 654 340 l 315 340 b 272 308 289 340 281 332 l 217 169 b 203 121 208 147 203 133 b 299 31 203 65 299 79 b 249 -4 299 7 281 -4 b 128 0 210 -4 171 0 b 25 -4 85 0 56 -4 b -12 26 1 -4 -12 8 b 99 149 -12 82 63 57 l 321 714 b 393 908 347 781 375 854 b 514 996 419 986 431 996 b 631 908 596 996 604 985 b 704 714 650 854 678 781 l 925 151 m 594 432 b 614 457 617 432 619 444 l 471 819 l 329 458 b 346 432 324 443 328 432 l 594 432"},"Æ":{"ha":1511,"x_min":null,"x_max":null,"o":"m 1456 299 b 1490 263 1474 299 1490 285 b 1453 157 1490 238 1481 215 l 1393 29 b 1329 -31 1374 -10 1356 -31 b 1236 0 1293 -31 1288 0 l 799 0 b 664 -4 736 0 690 -4 b 619 31 631 -4 619 11 b 708 150 619 86 708 54 l 708 310 b 679 340 708 329 699 340 l 401 340 b 346 304 375 340 361 329 l 253 171 b 224 108 236 147 224 126 b 313 31 224 68 313 78 b 260 -4 313 7 293 -4 b 133 0 217 -4 176 0 b -1 -4 81 0 26 -4 b -36 26 -22 -4 -36 8 b 114 149 -36 88 43 47 l 549 771 b 590 851 564 793 590 824 b 499 956 590 921 499 899 b 546 990 499 975 514 990 b 681 986 572 990 618 986 l 1194 986 b 1281 1017 1243 986 1247 1017 b 1349 947 1308 1017 1325 999 l 1401 835 b 1438 735 1428 782 1438 758 b 1404 699 1438 711 1421 699 b 1351 732 1385 699 1372 711 b 1085 896 1256 835 1200 896 l 990 896 b 892 828 904 896 892 876 l 892 579 b 932 546 892 556 900 546 l 1040 546 b 1176 649 1126 546 1125 649 b 1208 603 1193 649 1208 636 b 1204 501 1208 569 1204 536 b 1208 399 1204 465 1208 431 b 1176 353 1208 365 1193 353 b 1040 456 1125 353 1126 456 l 932 456 b 892 422 900 456 892 446 l 892 158 b 990 90 892 108 906 90 l 1124 90 b 1404 264 1244 90 1308 156 b 1456 299 1424 286 1436 299 m 679 432 b 708 463 699 432 708 443 l 708 836 l 453 464 b 464 432 439 443 442 432 l 679 432"},"Ç":{"ha":979,"x_min":null,"x_max":null,"o":"m 906 282 b 946 240 928 282 946 265 b 928 185 946 225 939 207 b 524 -28 878 94 736 -28 l 518 -28 l 508 -69 b 553 -64 522 -65 538 -64 b 682 -167 626 -64 682 -107 b 529 -278 682 -232 618 -278 b 404 -249 481 -278 433 -265 b 385 -218 390 -239 385 -231 b 410 -190 385 -203 394 -190 b 443 -199 418 -190 431 -194 b 524 -217 465 -207 494 -217 b 588 -175 563 -217 588 -200 b 531 -136 588 -151 568 -136 b 469 -151 511 -136 490 -143 b 426 -111 456 -147 431 -126 l 451 -22 b 51 472 235 10 51 188 b 518 1011 51 792 272 1011 b 725 978 615 1011 692 978 b 789 1015 756 978 760 1015 b 850 943 814 1015 829 997 l 897 821 b 935 713 922 758 935 736 b 897 671 935 685 915 671 b 846 706 878 671 864 683 b 553 913 743 842 657 913 b 251 511 381 913 251 743 b 585 103 251 263 390 103 b 858 251 699 103 794 161 b 906 282 871 267 883 282"},"È":{"ha":967,"x_min":null,"x_max":null,"o":"m 431 1078 b 300 1208 390 1117 329 1182 b 253 1279 268 1242 253 1260 b 326 1308 253 1301 268 1308 b 404 1276 372 1308 388 1300 b 513 1106 438 1229 472 1176 b 525 1071 519 1092 525 1081 b 492 1049 525 1058 511 1049 b 431 1078 474 1049 454 1054 m 917 299 b 951 263 933 299 951 285 b 913 157 951 238 942 215 l 853 29 b 790 -31 835 -10 817 -31 b 697 0 753 -31 749 0 l 238 0 b 103 -4 175 0 129 -4 b 58 31 69 -4 58 11 b 147 150 58 86 147 54 l 147 836 b 58 956 147 932 58 900 b 103 990 58 975 69 990 b 238 986 128 990 174 986 l 642 986 b 728 1017 690 986 694 1017 b 796 947 756 1017 772 999 l 849 835 b 885 735 875 782 885 758 b 851 699 885 711 868 699 b 799 732 832 699 819 711 b 532 896 703 835 647 896 l 429 896 b 331 828 343 896 331 876 l 331 579 b 371 546 331 556 339 546 l 482 546 b 615 649 568 546 564 649 b 651 603 636 649 651 636 b 647 501 651 569 647 536 b 651 399 647 465 651 431 b 615 353 651 365 636 353 b 482 456 564 353 568 456 l 371 456 b 331 422 339 456 331 446 l 331 158 b 429 90 331 108 344 90 l 585 90 b 865 264 704 90 767 157 b 917 299 885 286 897 299"},"É":{"ha":967,"x_min":null,"x_max":null,"o":"m 425 1049 b 392 1071 404 1049 392 1058 b 404 1106 392 1081 396 1092 b 511 1276 446 1176 479 1228 b 589 1308 528 1300 543 1308 b 663 1279 647 1308 663 1301 b 615 1208 663 1260 649 1242 b 485 1078 585 1179 525 1115 b 425 1049 461 1054 443 1049 m 917 299 b 951 263 933 299 951 285 b 913 157 951 238 942 215 l 853 29 b 790 -31 835 -10 817 -31 b 697 0 753 -31 749 0 l 238 0 b 103 -4 175 0 129 -4 b 58 31 69 -4 58 11 b 147 150 58 86 147 54 l 147 836 b 58 956 147 932 58 900 b 103 990 58 975 69 990 b 238 986 128 990 174 986 l 642 986 b 728 1017 690 986 694 1017 b 796 947 756 1017 772 999 l 849 835 b 885 735 875 782 885 758 b 851 699 885 711 868 699 b 799 732 832 699 819 711 b 532 896 703 835 647 896 l 429 896 b 331 828 343 896 331 876 l 331 579 b 371 546 331 556 339 546 l 482 546 b 615 649 568 546 564 649 b 651 603 636 649 651 636 b 647 501 651 569 647 536 b 651 399 647 465 651 431 b 615 353 651 365 636 353 b 482 456 564 353 568 456 l 371 456 b 331 422 339 456 331 446 l 331 158 b 429 90 331 108 344 90 l 585 90 b 865 264 704 90 767 157 b 917 299 885 286 897 299"},"Ê":{"ha":967,"x_min":null,"x_max":null,"o":"m 294 1060 b 258 1090 272 1060 258 1076 b 274 1128 258 1101 264 1113 b 386 1275 310 1178 346 1226 b 468 1311 408 1301 424 1311 b 550 1275 514 1311 528 1301 b 663 1128 592 1226 628 1179 b 679 1090 674 1113 679 1101 b 642 1060 679 1076 664 1060 b 585 1090 625 1060 607 1067 l 468 1208 l 351 1090 b 294 1060 329 1067 311 1060 m 917 299 b 951 263 933 299 951 285 b 913 157 951 238 942 215 l 853 29 b 790 -31 835 -10 817 -31 b 697 0 753 -31 749 0 l 238 0 b 103 -4 175 0 129 -4 b 58 31 69 -4 58 11 b 147 150 58 86 147 54 l 147 836 b 58 956 147 932 58 900 b 103 990 58 975 69 990 b 238 986 128 990 174 986 l 642 986 b 728 1017 690 986 694 1017 b 796 947 756 1017 772 999 l 849 835 b 885 735 875 782 885 758 b 851 699 885 711 868 699 b 799 732 832 699 819 711 b 532 896 703 835 647 896 l 429 896 b 331 828 343 896 331 876 l 331 579 b 371 546 331 556 339 546 l 482 546 b 615 649 568 546 564 649 b 651 603 636 649 651 636 b 647 501 651 569 647 536 b 651 399 647 465 651 431 b 615 353 651 365 636 353 b 482 456 564 353 568 456 l 371 456 b 331 422 339 456 331 446 l 331 158 b 429 90 331 108 344 90 l 585 90 b 865 264 704 90 767 157 b 917 299 885 286 897 299"},"Ë":{"ha":967,"x_min":null,"x_max":null,"o":"m 332 1078 b 233 1164 274 1078 233 1113 b 333 1254 233 1214 274 1254 b 429 1167 389 1254 429 1219 b 332 1078 429 1114 389 1078 m 599 1078 b 501 1164 542 1078 501 1113 b 600 1253 501 1214 542 1253 b 696 1167 656 1253 696 1219 b 599 1078 696 1114 656 1078 m 917 299 b 951 263 933 299 951 285 b 913 157 951 238 942 215 l 853 29 b 790 -31 835 -10 817 -31 b 697 0 753 -31 749 0 l 238 0 b 103 -4 175 0 129 -4 b 58 31 69 -4 58 11 b 147 150 58 86 147 54 l 147 836 b 58 956 147 932 58 900 b 103 990 58 975 69 990 b 238 986 128 990 174 986 l 642 986 b 728 1017 690 986 694 1017 b 796 947 756 1017 772 999 l 849 835 b 885 735 875 782 885 758 b 851 699 885 711 868 699 b 799 732 832 699 819 711 b 532 896 703 835 647 896 l 429 896 b 331 828 343 896 331 876 l 331 579 b 371 546 331 556 339 546 l 482 546 b 615 649 568 546 564 649 b 651 603 636 649 651 636 b 647 501 651 569 647 536 b 651 399 647 465 651 431 b 615 353 651 365 636 353 b 482 456 564 353 568 456 l 371 456 b 331 422 339 456 331 446 l 331 158 b 429 90 331 108 344 90 l 585 90 b 865 264 704 90 767 157 b 917 299 885 286 897 299"},"Ì":{"ha":478,"x_min":null,"x_max":null,"o":"m 257 1049 b 196 1078 239 1049 219 1054 b 65 1208 156 1117 94 1182 b 18 1279 33 1242 18 1260 b 92 1308 18 1301 33 1308 b 169 1276 138 1308 153 1300 b 278 1106 203 1229 238 1176 b 290 1071 285 1092 290 1081 b 257 1049 290 1058 276 1049 m 100 -4 b 58 29 69 -4 58 13 b 147 150 58 86 147 54 l 147 836 b 58 957 147 932 58 900 b 103 990 58 974 72 990 b 238 986 136 990 172 986 b 378 990 303 986 344 990 b 419 957 408 990 419 974 b 331 836 419 900 331 932 l 331 150 b 419 29 331 54 419 86 b 378 -4 419 13 408 -4 b 238 0 344 -4 303 0 b 100 -4 172 0 133 -4"},"Í":{"ha":478,"x_min":null,"x_max":null,"o":"m 190 1049 b 157 1071 169 1049 157 1058 b 169 1106 157 1081 161 1092 b 276 1276 211 1176 244 1228 b 354 1308 293 1300 308 1308 b 428 1279 413 1308 428 1301 b 381 1208 428 1260 414 1242 b 250 1078 350 1179 290 1115 b 190 1049 226 1054 208 1049 m 100 -4 b 58 29 69 -4 58 13 b 147 150 58 86 147 54 l 147 836 b 58 957 147 932 58 900 b 103 990 58 974 72 990 b 238 986 136 990 172 986 b 378 990 303 986 344 990 b 419 957 408 990 419 974 b 331 836 419 900 331 932 l 331 150 b 419 29 331 54 419 86 b 378 -4 419 13 408 -4 b 238 0 344 -4 303 0 b 100 -4 172 0 133 -4"},"Î":{"ha":478,"x_min":null,"x_max":null,"o":"m 428 1128 b 444 1090 439 1113 444 1101 b 407 1060 444 1076 429 1060 b 350 1090 390 1060 372 1067 l 233 1208 l 117 1090 b 60 1060 94 1067 76 1060 b 24 1090 38 1060 24 1076 b 39 1128 24 1101 29 1113 b 151 1275 75 1178 111 1226 b 233 1311 174 1301 189 1311 b 315 1275 279 1311 293 1301 b 428 1128 357 1226 393 1179 m 419 957 b 331 836 419 900 331 932 l 331 150 b 419 29 331 54 419 86 b 378 -4 419 13 408 -4 b 238 0 344 -4 303 0 b 100 -4 172 0 133 -4 b 58 29 69 -4 58 13 b 147 150 58 86 147 54 l 147 836 b 58 957 147 932 58 900 b 103 990 58 974 72 990 b 238 986 136 990 172 986 b 378 990 303 986 344 990 b 419 957 408 990 419 974"},"Ï":{"ha":478,"x_min":null,"x_max":null,"o":"m 97 1078 b -1 1164 39 1078 -1 1113 b 99 1254 -1 1214 39 1254 b 194 1167 154 1254 194 1219 b 97 1078 194 1114 154 1078 m 364 1078 b 267 1164 307 1078 267 1113 b 365 1253 267 1214 307 1253 b 461 1167 421 1253 461 1219 b 364 1078 461 1114 421 1078 m 100 -4 b 58 29 69 -4 58 13 b 147 150 58 86 147 54 l 147 836 b 58 957 147 932 58 900 b 103 990 58 974 72 990 b 238 986 136 990 172 986 b 378 990 303 986 344 990 b 419 957 408 990 419 974 b 331 836 419 900 331 932 l 331 150 b 419 29 331 54 419 86 b 378 -4 419 13 408 -4 b 238 0 344 -4 303 0 b 100 -4 172 0 133 -4"},"Ð":{"ha":1100,"x_min":null,"x_max":null,"o":"m 472 993 b 1050 479 811 993 1050 782 b 510 -6 1050 192 833 -6 b 242 0 419 -6 331 0 b 106 -4 178 0 132 -4 b 61 31 74 -4 61 11 b 150 150 61 86 150 54 l 150 460 l 76 460 b 28 504 42 460 28 474 b 76 550 28 535 42 550 l 150 550 l 150 836 b 61 956 150 932 61 900 b 106 990 61 975 74 990 b 242 986 132 990 178 986 b 472 993 318 986 396 993 m 486 89 b 846 489 718 89 846 240 b 469 897 846 733 703 897 l 444 897 b 335 831 358 897 335 879 l 335 550 l 526 550 b 575 504 561 550 575 535 b 526 460 575 474 561 460 l 335 460 l 335 156 b 444 89 335 106 360 89 l 486 89"},"Ñ":{"ha":1081,"x_min":null,"x_max":null,"o":"m 361 1089 b 328 1124 340 1089 328 1101 b 338 1169 328 1132 331 1149 b 456 1281 357 1226 400 1281 b 635 1175 536 1281 594 1175 b 681 1222 650 1175 664 1190 b 728 1268 696 1249 703 1268 b 761 1233 749 1268 761 1256 b 751 1186 761 1224 758 1207 b 632 1076 731 1128 689 1076 b 454 1181 551 1076 488 1181 b 408 1135 439 1181 424 1163 b 361 1089 393 1108 385 1089 m 994 990 b 1039 957 1025 990 1039 975 b 946 836 1039 900 946 932 l 946 36 b 899 -12 946 3 924 -12 b 831 28 867 -12 850 4 l 258 754 l 258 150 b 369 29 258 57 369 94 b 324 -4 369 10 354 -4 b 207 0 288 -4 242 0 b 99 -4 174 0 133 -4 b 56 31 69 -4 56 13 b 147 150 56 86 147 54 l 147 836 b 56 956 147 932 56 900 b 103 990 56 975 71 990 b 190 988 129 990 157 988 b 263 989 222 988 242 989 b 329 954 286 989 307 982 l 836 308 l 836 836 b 724 957 836 929 724 892 b 771 990 724 975 742 990 b 888 986 808 990 844 986 b 994 990 925 986 961 990"},"Ò":{"ha":1151,"x_min":null,"x_max":null,"o":"m 600 1049 b 539 1078 582 1049 563 1054 b 408 1208 499 1117 438 1182 b 361 1279 376 1242 361 1260 b 435 1308 361 1301 376 1308 b 513 1276 481 1308 496 1300 b 621 1106 546 1229 581 1176 b 633 1071 628 1092 633 1081 b 600 1049 633 1058 619 1049 m 575 -28 b 50 472 276 -28 50 168 b 575 1014 50 782 276 1014 b 1101 474 878 1014 1101 782 b 575 -28 1101 169 878 -28 m 575 75 b 897 492 781 75 897 264 b 576 915 897 714 776 915 b 254 488 375 915 254 715 b 575 75 254 264 376 75"},"Ó":{"ha":1151,"x_min":null,"x_max":null,"o":"m 533 1049 b 500 1071 513 1049 500 1058 b 513 1106 500 1081 504 1092 b 619 1276 554 1176 588 1228 b 697 1308 636 1300 651 1308 b 771 1279 756 1308 771 1301 b 724 1208 771 1260 757 1242 b 593 1078 693 1179 633 1115 b 533 1049 569 1054 551 1049 m 575 -28 b 50 472 276 -28 50 168 b 575 1014 50 782 276 1014 b 1101 474 878 1014 1101 782 b 575 -28 1101 169 878 -28 m 575 75 b 897 492 781 75 897 264 b 576 915 897 714 776 915 b 254 488 375 915 254 715 b 575 75 254 264 376 75"},"Ô":{"ha":1151,"x_min":null,"x_max":null,"o":"m 403 1060 b 367 1090 381 1060 367 1076 b 382 1128 367 1101 372 1113 b 494 1275 418 1178 454 1226 b 576 1311 517 1301 532 1311 b 658 1275 622 1311 636 1301 b 771 1128 700 1226 736 1179 b 788 1090 782 1113 788 1101 b 750 1060 788 1076 772 1060 b 693 1090 733 1060 715 1067 l 576 1208 l 460 1090 b 403 1060 438 1067 419 1060 m 575 1014 b 1101 474 878 1014 1101 782 b 575 -28 1101 169 878 -28 b 50 472 276 -28 50 168 b 575 1014 50 782 276 1014 m 575 75 b 897 492 781 75 897 264 b 576 915 897 714 776 915 b 254 488 375 915 254 715 b 575 75 254 264 376 75"},"Õ":{"ha":1151,"x_min":null,"x_max":null,"o":"m 663 1076 b 485 1181 582 1076 518 1181 b 439 1135 469 1181 454 1163 b 392 1089 424 1108 415 1089 b 358 1124 371 1089 358 1101 b 368 1169 358 1132 361 1149 b 486 1281 388 1226 431 1281 b 665 1175 567 1281 625 1175 b 711 1222 681 1175 694 1190 b 758 1268 726 1249 733 1268 b 792 1233 779 1268 792 1256 b 782 1186 792 1224 789 1207 b 663 1076 761 1128 719 1076 m 575 -28 b 50 472 276 -28 50 168 b 575 1014 50 782 276 1014 b 1101 474 878 1014 1101 782 b 575 -28 1101 169 878 -28 m 575 75 b 897 492 781 75 897 264 b 576 915 897 714 776 915 b 254 488 375 915 254 715 b 575 75 254 264 376 75"},"Ö":{"ha":1151,"x_min":null,"x_max":null,"o":"m 440 1078 b 342 1164 382 1078 342 1113 b 442 1254 342 1214 382 1254 b 538 1167 497 1254 538 1219 b 440 1078 538 1114 497 1078 m 707 1078 b 610 1164 650 1078 610 1113 b 708 1253 610 1214 650 1253 b 804 1167 764 1253 804 1219 b 707 1078 804 1114 764 1078 m 575 -28 b 50 472 276 -28 50 168 b 575 1014 50 782 276 1014 b 1101 474 878 1014 1101 782 b 575 -28 1101 169 878 -28 m 575 75 b 897 492 781 75 897 264 b 576 915 897 714 776 915 b 254 488 375 915 254 715 b 575 75 254 264 376 75"},"×":{"ha":696,"x_min":null,"x_max":null,"o":"m 129 138 b 63 204 104 138 63 174 b 72 228 63 211 65 219 l 256 410 b 263 424 258 414 263 418 b 256 435 263 428 258 432 l 72 618 b 63 642 65 626 63 632 b 129 708 63 669 101 708 b 153 699 138 708 144 706 l 336 515 b 349 508 339 511 343 508 b 360 515 353 508 357 511 l 543 699 b 567 708 551 706 558 708 b 633 642 592 708 633 671 b 624 618 633 633 632 626 l 440 435 b 433 424 438 432 433 428 b 440 410 433 418 438 414 l 624 228 b 633 204 632 219 633 213 b 567 138 633 176 593 138 b 543 147 558 138 551 139 l 360 331 b 349 338 357 333 353 338 b 336 331 343 338 339 333 l 153 147 b 129 138 144 139 139 138"},"Ø":{"ha":1163,"x_min":null,"x_max":null,"o":"m 985 829 b 1107 474 1061 735 1107 613 b 581 -28 1107 169 883 -28 b 228 90 443 -28 319 14 l 139 3 b 104 -15 126 -10 117 -15 b 58 33 88 -15 58 7 b 76 68 58 44 64 57 l 164 154 b 57 472 96 238 57 344 b 581 1014 57 782 282 1014 b 921 893 713 1014 831 969 l 1011 982 b 1047 1000 1024 993 1035 1000 b 1094 953 1063 1000 1094 978 b 1075 917 1094 940 1088 929 l 985 829 m 582 915 b 260 488 382 915 260 715 b 299 281 260 413 274 342 l 817 789 b 582 915 761 867 682 915 m 581 75 b 904 492 788 75 904 264 b 860 713 904 571 889 647 l 342 203 b 581 75 397 125 479 75"},"Ù":{"ha":1017,"x_min":null,"x_max":null,"o":"m 551 1049 b 490 1078 533 1049 514 1054 b 360 1208 450 1117 389 1182 b 313 1279 328 1242 313 1260 b 386 1308 313 1301 328 1308 b 464 1276 432 1308 447 1300 b 572 1106 497 1229 532 1176 b 585 1071 579 1092 585 1081 b 551 1049 585 1058 571 1049 m 510 -28 b 99 308 283 -28 99 61 b 104 394 99 333 101 365 l 138 790 b 142 849 139 813 142 835 b 90 915 142 893 114 906 b 53 957 71 924 53 932 b 94 990 53 974 64 990 b 233 986 128 990 168 986 b 382 990 299 986 349 990 b 425 957 413 990 425 974 b 386 914 425 931 406 922 b 325 836 360 901 329 889 l 289 393 b 285 317 288 368 285 336 b 543 90 285 163 382 92 b 806 314 694 90 806 150 b 801 390 806 333 803 364 l 763 836 b 696 910 758 888 725 899 b 649 957 671 919 649 926 b 694 990 649 974 664 990 b 814 986 731 990 779 986 b 924 990 846 986 889 990 b 965 957 953 990 965 974 b 926 915 965 932 946 924 b 872 849 901 906 872 893 b 876 790 872 835 875 813 l 913 385 b 918 303 915 351 918 324 b 510 -28 918 61 736 -26"},"Ú":{"ha":1017,"x_min":null,"x_max":null,"o":"m 485 1049 b 451 1071 464 1049 451 1058 b 464 1106 451 1081 456 1092 b 571 1276 506 1176 539 1228 b 649 1308 588 1300 603 1308 b 722 1279 707 1308 722 1301 b 675 1208 722 1260 708 1242 b 544 1078 644 1179 585 1115 b 485 1049 521 1054 503 1049 m 510 -28 b 99 308 283 -28 99 61 b 104 394 99 333 101 365 l 138 790 b 142 849 139 813 142 835 b 90 915 142 893 114 906 b 53 957 71 924 53 932 b 94 990 53 974 64 990 b 233 986 128 990 168 986 b 382 990 299 986 349 990 b 425 957 413 990 425 974 b 386 914 425 931 406 922 b 325 836 360 901 329 889 l 289 393 b 285 317 288 368 285 336 b 543 90 285 163 382 92 b 806 314 694 90 806 150 b 801 390 806 333 803 364 l 763 836 b 696 910 758 888 725 899 b 649 957 671 919 649 926 b 694 990 649 974 664 990 b 814 986 731 990 779 986 b 924 990 846 986 889 990 b 965 957 953 990 965 974 b 926 915 965 932 946 924 b 872 849 901 906 872 893 b 876 790 872 835 875 813 l 913 385 b 918 303 915 351 918 324 b 510 -28 918 61 736 -26"},"Û":{"ha":1017,"x_min":null,"x_max":null,"o":"m 354 1060 b 318 1090 332 1060 318 1076 b 333 1128 318 1101 324 1113 b 446 1275 369 1178 406 1226 b 528 1311 468 1301 483 1311 b 610 1275 574 1311 588 1301 b 722 1128 651 1226 688 1179 b 739 1090 733 1113 739 1101 b 701 1060 739 1076 724 1060 b 644 1090 685 1060 667 1067 l 528 1208 l 411 1090 b 354 1060 389 1067 371 1060 m 924 990 b 965 957 953 990 965 974 b 926 915 965 932 946 924 b 872 849 901 906 872 893 b 876 790 872 835 875 813 l 913 385 b 918 303 915 351 918 324 b 510 -28 918 61 736 -26 b 99 308 283 -28 99 61 b 104 394 99 333 101 365 l 138 790 b 142 849 139 813 142 835 b 90 915 142 893 114 906 b 53 957 71 924 53 932 b 94 990 53 974 64 990 b 233 986 128 990 168 986 b 382 990 299 986 349 990 b 425 957 413 990 425 974 b 386 914 425 931 406 922 b 325 836 360 901 329 889 l 289 393 b 285 317 288 368 285 336 b 543 90 285 163 382 92 b 806 314 694 90 806 150 b 801 390 806 333 803 364 l 763 836 b 696 910 758 888 725 899 b 649 957 671 919 649 926 b 694 990 649 974 664 990 b 814 986 731 990 779 986 b 924 990 846 986 889 990"},"Ü":{"ha":1017,"x_min":null,"x_max":null,"o":"m 392 1078 b 293 1164 333 1078 293 1113 b 393 1254 293 1214 333 1254 b 489 1167 449 1254 489 1219 b 392 1078 489 1114 449 1078 m 658 1078 b 561 1164 601 1078 561 1113 b 660 1253 561 1214 601 1253 b 756 1167 715 1253 756 1219 b 658 1078 756 1114 715 1078 m 510 -28 b 99 308 283 -28 99 61 b 104 394 99 333 101 365 l 138 790 b 142 849 139 813 142 835 b 90 915 142 893 114 906 b 53 957 71 924 53 932 b 94 990 53 974 64 990 b 233 986 128 990 168 986 b 382 990 299 986 349 990 b 425 957 413 990 425 974 b 386 914 425 931 406 922 b 325 836 360 901 329 889 l 289 393 b 285 317 288 368 285 336 b 543 90 285 163 382 92 b 806 314 694 90 806 150 b 801 390 806 333 803 364 l 763 836 b 696 910 758 888 725 899 b 649 957 671 919 649 926 b 694 990 649 974 664 990 b 814 986 731 990 779 986 b 924 990 846 986 889 990 b 965 957 953 990 965 974 b 926 915 965 932 946 924 b 872 849 901 906 872 893 b 876 790 872 835 875 813 l 913 385 b 918 303 915 351 918 324 b 510 -28 918 61 736 -26"},"Ý":{"ha":964,"x_min":null,"x_max":null,"o":"m 464 1049 b 431 1071 443 1049 431 1058 b 443 1106 431 1081 435 1092 b 550 1276 485 1176 518 1228 b 628 1308 567 1300 582 1308 b 701 1279 686 1308 701 1301 b 654 1208 701 1260 688 1242 b 524 1078 624 1179 564 1115 b 464 1049 500 1054 482 1049 m 928 989 b 963 958 949 989 963 976 b 857 849 963 910 904 925 l 574 375 l 574 150 b 685 31 574 56 685 92 b 643 -4 685 13 672 -4 b 482 0 601 -4 553 0 b 321 -4 411 0 361 -4 b 279 31 290 -4 279 13 b 389 150 279 92 389 56 l 389 375 l 106 850 b 7 957 63 921 7 913 b 44 989 7 976 21 989 b 182 985 72 989 118 985 b 338 989 242 985 300 989 b 386 954 368 989 386 978 b 307 871 386 906 307 924 b 329 814 307 858 314 843 l 524 478 l 721 808 b 743 867 735 833 743 851 b 657 954 743 921 657 907 b 706 989 657 978 675 989 b 818 985 742 989 782 985 b 928 989 856 985 897 989"},"Þ":{"ha":971,"x_min":null,"x_max":null,"o":"m 496 842 b 928 506 763 842 928 715 b 458 168 928 311 794 168 b 331 172 413 168 369 169 l 331 150 b 442 29 331 54 442 92 b 400 -4 442 13 431 -4 b 238 0 363 -4 310 0 b 100 -4 172 0 133 -4 b 58 29 69 -4 58 13 b 147 150 58 86 147 54 l 147 836 b 58 957 147 932 58 900 b 100 990 58 974 69 990 b 238 986 133 990 172 986 b 400 990 310 986 363 990 b 442 957 431 990 442 974 b 331 839 442 894 331 935 l 331 835 b 496 842 374 839 426 842 m 467 261 b 725 501 631 261 725 354 b 468 749 725 669 619 749 b 331 682 368 749 331 736 l 331 318 b 467 261 331 268 375 261"},"ß":{"ha":960,"x_min":null,"x_max":null,"o":"m 492 -29 b 446 25 468 -29 456 1 l 410 119 b 379 213 390 169 379 193 b 410 249 379 235 394 249 b 453 217 425 249 438 236 b 681 63 518 129 592 63 b 785 158 740 63 785 106 b 617 294 785 231 708 258 b 408 501 510 339 408 381 b 589 835 408 663 585 693 b 460 954 590 915 529 954 b 288 714 349 954 288 868 l 288 156 b 363 29 288 49 363 83 b 325 -4 363 14 351 -4 b 207 0 294 -4 263 0 b 76 -4 146 0 107 -4 b 36 29 47 -4 36 13 b 121 156 36 83 121 49 l 119 688 b 454 1051 119 928 247 1051 b 746 839 606 1051 750 979 b 574 556 743 676 574 657 b 699 453 574 508 614 486 b 939 203 821 403 939 349 b 683 -21 939 64 815 -21 b 549 7 608 -21 569 7 b 492 -29 524 7 521 -29"},"à":{"ha":800,"x_min":null,"x_max":null,"o":"m 356 819 b 225 950 315 858 254 924 b 178 1021 193 983 178 1001 b 251 1050 178 1043 193 1050 b 329 1018 297 1050 313 1042 b 438 847 363 971 397 918 b 450 813 444 833 450 822 b 417 790 450 800 436 790 b 356 819 399 790 379 796 m 793 100 b 817 75 808 97 817 89 b 671 -11 817 43 758 -11 b 532 89 611 -11 558 22 b 278 -15 479 32 389 -15 b 35 194 129 -15 35 71 b 322 417 35 318 140 417 b 485 393 385 417 438 407 l 482 410 b 322 592 463 546 408 592 b 161 525 261 592 207 563 b 117 507 143 514 129 507 b 85 540 101 507 85 519 b 118 597 85 560 101 579 b 378 706 168 657 267 706 b 642 456 554 706 621 600 l 674 225 b 793 100 688 126 719 114 m 343 86 b 514 171 413 86 479 126 l 496 311 b 369 333 456 326 414 333 b 210 211 268 333 210 289 b 343 86 210 136 264 86"},"á":{"ha":800,"x_min":null,"x_max":null,"o":"m 350 790 b 317 813 329 790 317 800 b 329 847 317 822 321 833 b 436 1018 371 918 404 969 b 514 1050 453 1042 468 1050 b 588 1021 572 1050 588 1043 b 540 950 588 1001 574 983 b 410 819 510 921 450 857 b 350 790 386 796 368 790 m 793 100 b 817 75 808 97 817 89 b 671 -11 817 43 758 -11 b 532 89 611 -11 558 22 b 278 -15 479 32 389 -15 b 35 194 129 -15 35 71 b 322 417 35 318 140 417 b 485 393 385 417 438 407 l 482 410 b 322 592 463 546 408 592 b 161 525 261 592 207 563 b 117 507 143 514 129 507 b 85 540 101 507 85 519 b 118 597 85 560 101 579 b 378 706 168 657 267 706 b 642 456 554 706 621 600 l 674 225 b 793 100 688 126 719 114 m 343 86 b 514 171 413 86 479 126 l 496 311 b 369 333 456 326 414 333 b 210 211 268 333 210 289 b 343 86 210 136 264 86"},"â":{"ha":800,"x_min":null,"x_max":null,"o":"m 219 801 b 183 832 197 801 183 818 b 199 869 183 843 189 854 b 311 1017 235 919 271 968 b 393 1053 333 1043 349 1053 b 475 1017 439 1053 453 1043 b 588 869 517 968 553 921 b 604 832 599 854 604 843 b 567 801 604 818 589 801 b 510 832 550 801 532 808 l 393 950 l 276 832 b 219 801 254 808 236 801 m 793 100 b 817 75 808 97 817 89 b 671 -11 817 43 758 -11 b 532 89 611 -11 558 22 b 278 -15 479 32 389 -15 b 35 194 129 -15 35 71 b 322 417 35 318 140 417 b 485 393 385 417 438 407 l 482 410 b 322 592 463 546 408 592 b 161 525 261 592 207 563 b 117 507 143 514 129 507 b 85 540 101 507 85 519 b 118 597 85 560 101 579 b 378 706 168 657 267 706 b 642 456 554 706 621 600 l 674 225 b 793 100 688 126 719 114 m 343 86 b 514 171 413 86 479 126 l 496 311 b 369 333 456 326 414 333 b 210 211 268 333 210 289 b 343 86 210 136 264 86"},"ã":{"ha":800,"x_min":null,"x_max":null,"o":"m 208 831 b 175 865 188 831 175 843 b 185 911 175 874 178 890 b 303 1022 204 968 247 1022 b 482 917 383 1022 442 917 b 528 964 497 917 511 932 b 575 1010 543 990 550 1010 b 608 975 596 1010 608 997 b 599 928 608 965 606 949 b 479 818 578 869 536 818 b 301 922 399 818 335 922 b 256 876 286 922 271 904 b 208 831 240 850 232 831 m 793 100 b 817 75 808 97 817 89 b 671 -11 817 43 758 -11 b 532 89 611 -11 558 22 b 278 -15 479 32 389 -15 b 35 194 129 -15 35 71 b 322 417 35 318 140 417 b 485 393 385 417 438 407 l 482 410 b 322 592 463 546 408 592 b 161 525 261 592 207 563 b 117 507 143 514 129 507 b 85 540 101 507 85 519 b 118 597 85 560 101 579 b 378 706 168 657 267 706 b 642 456 554 706 621 600 l 674 225 b 793 100 688 126 719 114 m 343 86 b 514 171 413 86 479 126 l 496 311 b 369 333 456 326 414 333 b 210 211 268 333 210 289 b 343 86 210 136 264 86"},"ä":{"ha":800,"x_min":null,"x_max":null,"o":"m 257 819 b 158 906 199 819 158 854 b 258 996 158 956 199 996 b 354 908 314 996 354 961 b 257 819 354 856 314 819 m 524 819 b 426 906 467 819 426 854 b 525 994 426 956 467 994 b 621 908 581 994 621 961 b 524 819 621 856 581 819 m 793 100 b 817 75 808 97 817 89 b 671 -11 817 43 758 -11 b 532 89 611 -11 558 22 b 278 -15 479 32 389 -15 b 35 194 129 -15 35 71 b 322 417 35 318 140 417 b 485 393 385 417 438 407 l 482 410 b 322 592 463 546 408 592 b 161 525 261 592 207 563 b 117 507 143 514 129 507 b 85 540 101 507 85 519 b 118 597 85 560 101 579 b 378 706 168 657 267 706 b 642 456 554 706 621 600 l 674 225 b 793 100 688 126 719 114 m 343 86 b 514 171 413 86 479 126 l 496 311 b 369 333 456 326 414 333 b 210 211 268 333 210 289 b 343 86 210 136 264 86"},"å":{"ha":800,"x_min":null,"x_max":null,"o":"m 389 778 b 228 922 285 778 228 829 b 397 1064 228 1013 292 1064 b 557 928 497 1064 557 1015 b 389 778 557 832 494 778 m 393 1006 b 322 918 349 1006 322 978 b 393 839 322 867 350 839 b 461 924 438 839 461 865 b 393 1006 461 978 435 1006 m 793 100 b 817 75 808 97 817 89 b 671 -11 817 43 758 -11 b 532 89 611 -11 558 22 b 278 -15 479 32 389 -15 b 35 194 129 -15 35 71 b 322 417 35 318 140 417 b 485 393 385 417 438 407 l 482 410 b 322 592 463 546 408 592 b 161 525 261 592 207 563 b 117 507 143 514 129 507 b 85 540 101 507 85 519 b 118 597 85 560 101 579 b 378 706 168 657 267 706 b 642 456 554 706 621 600 l 674 225 b 793 100 688 126 719 114 m 343 86 b 514 171 413 86 479 126 l 496 311 b 369 333 456 326 414 333 b 210 211 268 333 210 289 b 343 86 210 136 264 86"},"æ":{"ha":1204,"x_min":null,"x_max":null,"o":"m 1139 190 b 1168 156 1156 190 1168 172 b 1156 119 1168 146 1164 133 b 849 -26 1111 49 988 -26 b 576 101 738 -26 639 19 b 281 -15 522 40 417 -15 b 35 194 131 -15 35 71 b 325 417 35 318 140 417 b 500 393 396 417 451 407 l 497 413 b 325 596 478 549 419 596 b 160 529 261 596 207 567 b 117 510 143 518 129 510 b 85 543 101 510 85 522 b 117 600 85 564 100 582 b 385 708 169 660 267 708 b 606 603 499 708 565 667 b 860 715 669 674 761 715 b 1151 444 1035 715 1151 579 b 1118 393 1151 411 1142 401 l 697 263 b 918 89 736 163 817 89 b 1099 168 990 89 1051 121 b 1139 190 1115 183 1126 190 m 832 622 b 671 404 740 622 671 536 b 675 344 671 385 672 364 l 944 433 b 976 474 965 440 976 447 b 832 622 976 540 917 622 m 349 86 b 539 161 425 86 500 122 b 501 315 518 206 506 257 b 375 333 464 328 421 333 b 210 211 268 333 210 289 b 349 86 210 136 265 86"},"ç":{"ha":733,"x_min":null,"x_max":null,"o":"m 681 197 b 710 164 699 197 710 182 b 697 125 710 153 704 139 b 400 -26 658 51 549 -25 l 389 -69 b 433 -64 403 -65 418 -64 b 563 -167 507 -64 563 -107 b 410 -278 563 -232 499 -278 b 285 -249 361 -278 314 -265 b 265 -218 271 -239 265 -231 b 290 -190 265 -203 275 -190 b 324 -199 299 -190 311 -194 b 404 -217 346 -207 375 -217 b 468 -175 443 -217 468 -200 b 411 -136 468 -151 449 -136 b 350 -151 392 -136 371 -143 b 307 -111 336 -147 311 -126 l 332 -21 b 43 333 168 4 43 131 b 410 714 43 563 213 714 b 683 558 561 714 683 622 b 610 429 683 528 665 483 b 567 406 592 413 581 406 b 529 450 546 406 533 424 b 383 633 511 543 481 633 b 218 397 286 633 218 540 b 468 93 218 214 335 93 b 647 178 543 93 603 128 b 681 197 661 190 669 197"},"è":{"ha":764,"x_min":null,"x_max":null,"o":"m 361 819 b 231 950 321 858 260 924 b 183 1021 199 983 183 1001 b 257 1050 183 1043 199 1050 b 335 1018 303 1050 318 1042 b 443 847 368 971 403 918 b 456 813 450 833 456 822 b 422 790 456 800 442 790 b 361 819 404 790 385 796 m 703 190 b 735 156 722 190 735 172 b 721 121 735 146 731 135 b 404 -26 672 49 549 -26 b 42 340 201 -26 42 111 b 406 715 42 565 211 715 b 707 443 589 715 707 579 b 672 393 707 408 696 400 l 240 263 b 475 89 282 163 367 89 b 663 167 550 89 614 121 b 703 190 681 183 690 190 m 382 622 b 213 404 285 622 213 538 b 217 344 213 383 214 364 l 499 433 b 531 474 522 440 531 449 b 382 622 531 540 469 622"},"é":{"ha":764,"x_min":null,"x_max":null,"o":"m 356 790 b 322 813 335 790 322 800 b 335 847 322 822 326 833 b 442 1018 376 918 410 969 b 519 1050 458 1042 474 1050 b 593 1021 578 1050 593 1043 b 546 950 593 1001 579 983 b 415 819 515 921 456 857 b 356 790 392 796 374 790 m 703 190 b 735 156 722 190 735 172 b 721 121 735 146 731 135 b 404 -26 672 49 549 -26 b 42 340 201 -26 42 111 b 406 715 42 565 211 715 b 707 443 589 715 707 579 b 672 393 707 408 696 400 l 240 263 b 475 89 282 163 367 89 b 663 167 550 89 614 121 b 703 190 681 183 690 190 m 382 622 b 213 404 285 622 213 538 b 217 344 213 383 214 364 l 499 433 b 531 474 522 440 531 449 b 382 622 531 540 469 622"},"ê":{"ha":764,"x_min":null,"x_max":null,"o":"m 225 801 b 189 832 203 801 189 818 b 204 869 189 843 194 854 b 317 1017 240 919 276 968 b 399 1053 339 1043 354 1053 b 481 1017 444 1053 458 1043 b 593 869 522 968 558 921 b 610 832 604 854 610 843 b 572 801 610 818 594 801 b 515 832 556 801 538 808 l 399 950 l 282 832 b 225 801 260 808 242 801 m 703 190 b 735 156 722 190 735 172 b 721 121 735 146 731 135 b 404 -26 672 49 549 -26 b 42 340 201 -26 42 111 b 406 715 42 565 211 715 b 707 443 589 715 707 579 b 672 393 707 408 696 400 l 240 263 b 475 89 282 163 367 89 b 663 167 550 89 614 121 b 703 190 681 183 690 190 m 382 622 b 213 404 285 622 213 538 b 217 344 213 383 214 364 l 499 433 b 531 474 522 440 531 449 b 382 622 531 540 469 622"},"ë":{"ha":764,"x_min":null,"x_max":null,"o":"m 263 819 b 164 906 204 819 164 854 b 264 996 164 956 204 996 b 360 908 319 996 360 961 b 263 819 360 856 319 819 m 529 819 b 432 906 472 819 432 854 b 531 994 432 956 472 994 b 626 908 586 994 626 961 b 529 819 626 856 586 819 m 703 190 b 735 156 722 190 735 172 b 721 121 735 146 731 135 b 404 -26 672 49 549 -26 b 42 340 201 -26 42 111 b 406 715 42 565 211 715 b 707 443 589 715 707 579 b 672 393 707 408 696 400 l 240 263 b 475 89 282 163 367 89 b 663 167 550 89 614 121 b 703 190 681 183 690 190 m 382 622 b 213 404 285 622 213 538 b 217 344 213 383 214 364 l 499 433 b 531 474 522 440 531 449 b 382 622 531 540 469 622"},"ì":{"ha":422,"x_min":null,"x_max":null,"o":"m 232 790 b 171 819 214 790 194 796 b 40 950 131 858 69 924 b -7 1021 8 983 -7 1001 b 67 1050 -7 1043 8 1050 b 144 1018 113 1050 128 1042 b 253 847 178 971 213 918 b 265 813 260 833 265 822 b 232 790 265 800 251 790 m 90 -4 b 51 29 63 -4 51 13 b 136 156 51 83 136 49 l 136 472 b 40 575 136 560 40 517 b 156 657 40 600 69 618 b 265 699 236 694 253 699 b 303 642 293 699 303 676 l 303 156 b 389 29 303 49 389 83 b 350 -4 389 14 376 -4 b 219 0 318 -4 279 0 b 90 -4 160 0 122 -4"},"í":{"ha":422,"x_min":null,"x_max":null,"o":"m 165 790 b 132 813 144 790 132 800 b 144 847 132 822 136 833 b 251 1018 186 918 219 969 b 329 1050 268 1042 283 1050 b 403 1021 388 1050 403 1043 b 356 950 403 1001 389 983 b 225 819 325 921 265 857 b 165 790 201 796 183 790 m 90 -4 b 51 29 63 -4 51 13 b 136 156 51 83 136 49 l 136 472 b 40 575 136 560 40 517 b 156 657 40 600 69 618 b 265 699 236 694 253 699 b 303 642 293 699 303 676 l 303 156 b 389 29 303 49 389 83 b 350 -4 389 14 376 -4 b 219 0 318 -4 279 0 b 90 -4 160 0 122 -4"},"î":{"ha":422,"x_min":null,"x_max":null,"o":"m 403 869 b 419 832 414 854 419 843 b 382 801 419 818 404 801 b 325 832 365 801 347 808 l 208 950 l 92 832 b 35 801 69 808 51 801 b -1 832 13 801 -1 818 b 14 869 -1 843 4 854 b 126 1017 50 919 86 968 b 208 1053 149 1043 164 1053 b 290 1017 254 1053 268 1043 b 403 869 332 968 368 921 m 303 156 b 389 29 303 49 389 83 b 350 -4 389 14 376 -4 b 219 0 318 -4 279 0 b 90 -4 160 0 122 -4 b 51 29 63 -4 51 13 b 136 156 51 83 136 49 l 136 472 b 40 575 136 560 40 517 b 156 657 40 600 69 618 b 265 699 236 694 253 699 b 303 642 293 699 303 676 l 303 156"},"ï":{"ha":422,"x_min":null,"x_max":null,"o":"m 72 819 b -26 906 14 819 -26 854 b 74 996 -26 956 14 996 b 169 908 129 996 169 961 b 72 819 169 856 129 819 m 339 819 b 242 906 282 819 242 854 b 340 994 242 956 282 994 b 436 908 396 994 436 961 b 339 819 436 856 396 819 m 90 -4 b 51 29 63 -4 51 13 b 136 156 51 83 136 49 l 136 472 b 40 575 136 560 40 517 b 156 657 40 600 69 618 b 265 699 236 694 253 699 b 303 642 293 699 303 676 l 303 156 b 389 29 303 49 389 83 b 350 -4 389 14 376 -4 b 219 0 318 -4 279 0 b 90 -4 160 0 122 -4"},"ð":{"ha":835,"x_min":null,"x_max":null,"o":"m 564 897 b 785 394 686 785 785 613 b 400 -19 785 118 601 -19 b 43 338 200 -19 43 117 b 388 708 43 558 186 708 b 535 675 444 708 494 696 b 425 828 507 733 469 785 l 285 757 b 253 749 272 751 264 749 b 217 792 235 749 217 764 b 246 831 217 807 225 819 l 356 885 b 300 919 339 897 319 908 b 200 1006 226 963 200 978 b 251 1044 200 1031 221 1044 b 404 1004 293 1044 351 1028 b 493 953 433 990 464 974 l 640 1026 b 671 1036 651 1032 660 1036 b 708 992 689 1036 708 1019 b 678 954 708 976 700 965 l 564 897 m 431 82 b 614 328 518 82 614 150 b 400 615 614 506 500 615 b 219 378 288 615 219 517 b 431 82 219 196 328 82"},"ñ":{"ha":885,"x_min":null,"x_max":null,"o":"m 253 831 b 219 865 232 831 219 843 b 229 911 219 874 222 890 b 347 1022 249 968 292 1022 b 526 917 428 1022 486 917 b 572 964 542 917 556 932 b 619 1010 588 990 594 1010 b 653 975 640 1010 653 997 b 643 928 653 965 650 949 b 524 818 622 869 581 818 b 346 922 443 818 379 922 b 300 876 331 922 315 904 b 253 831 285 850 276 831 m 789 171 b 885 29 806 43 885 85 b 842 -4 885 8 867 -4 b 713 0 806 -4 776 0 b 582 -4 646 0 619 -4 b 536 31 551 -4 536 11 b 624 135 536 81 624 54 b 618 188 624 147 621 167 l 589 394 b 454 572 576 478 547 572 b 303 375 382 572 303 515 l 303 156 b 389 29 303 49 389 83 b 350 -4 389 14 376 -4 b 219 0 318 -4 279 0 b 90 -4 160 0 122 -4 b 51 29 63 -4 51 13 b 136 156 51 83 136 49 l 136 472 b 40 575 136 560 40 517 b 156 657 40 600 69 618 b 265 699 236 694 253 699 b 303 642 293 699 303 676 l 303 568 b 529 704 347 640 422 704 b 753 431 683 704 736 561 l 789 171"},"ò":{"ha":865,"x_min":null,"x_max":null,"o":"m 454 790 b 393 819 436 790 417 796 b 263 950 353 858 292 924 b 215 1021 231 983 215 1001 b 289 1050 215 1043 231 1050 b 367 1018 335 1050 350 1042 b 475 847 400 971 435 918 b 488 813 482 833 488 822 b 454 790 488 800 474 790 m 422 -26 b 42 338 192 -26 42 128 b 443 715 42 554 211 715 b 822 350 672 715 822 561 b 422 -26 822 132 650 -26 m 456 64 b 643 297 574 64 643 158 b 410 625 643 454 550 625 b 222 390 292 625 222 531 b 456 64 222 235 314 64"},"ó":{"ha":865,"x_min":null,"x_max":null,"o":"m 388 790 b 354 813 367 790 354 800 b 367 847 354 822 358 833 b 474 1018 408 918 442 969 b 551 1050 490 1042 506 1050 b 625 1021 610 1050 625 1043 b 578 950 625 1001 611 983 b 447 819 547 921 488 857 b 388 790 424 796 406 790 m 422 -26 b 42 338 192 -26 42 128 b 443 715 42 554 211 715 b 822 350 672 715 822 561 b 422 -26 822 132 650 -26 m 456 64 b 643 297 574 64 643 158 b 410 625 643 454 550 625 b 222 390 292 625 222 531 b 456 64 222 235 314 64"},"ô":{"ha":865,"x_min":null,"x_max":null,"o":"m 257 801 b 221 832 235 801 221 818 b 236 869 221 843 226 854 b 349 1017 272 919 308 968 b 431 1053 371 1043 386 1053 b 513 1017 476 1053 490 1043 b 625 869 554 968 590 921 b 642 832 636 854 642 843 b 604 801 642 818 626 801 b 547 832 588 801 569 808 l 431 950 l 314 832 b 257 801 292 808 274 801 m 443 715 b 822 350 672 715 822 561 b 422 -26 822 132 650 -26 b 42 338 192 -26 42 128 b 443 715 42 554 211 715 m 456 64 b 643 297 574 64 643 158 b 410 625 643 454 550 625 b 222 390 292 625 222 531 b 456 64 222 235 314 64"},"õ":{"ha":865,"x_min":null,"x_max":null,"o":"m 517 818 b 339 922 436 818 372 922 b 293 876 324 922 308 904 b 246 831 278 850 269 831 b 213 865 225 831 213 843 b 222 911 213 874 215 890 b 340 1022 242 968 285 1022 b 519 917 421 1022 479 917 b 565 964 535 917 549 932 b 613 1010 581 990 588 1010 b 646 975 633 1010 646 997 b 636 928 646 965 643 949 b 517 818 615 869 574 818 m 422 -26 b 42 338 192 -26 42 128 b 443 715 42 554 211 715 b 822 350 672 715 822 561 b 422 -26 822 132 650 -26 m 456 64 b 643 297 574 64 643 158 b 410 625 643 454 550 625 b 222 390 292 625 222 531 b 456 64 222 235 314 64"},"ö":{"ha":865,"x_min":null,"x_max":null,"o":"m 294 819 b 196 906 236 819 196 854 b 296 996 196 956 236 996 b 392 908 351 996 392 961 b 294 819 392 856 351 819 m 561 819 b 464 906 504 819 464 854 b 563 994 464 956 504 994 b 658 908 618 994 658 961 b 561 819 658 856 618 819 m 422 -26 b 42 338 192 -26 42 128 b 443 715 42 554 211 715 b 822 350 672 715 822 561 b 422 -26 822 132 650 -26 m 456 64 b 643 297 574 64 643 158 b 410 625 643 454 550 625 b 222 390 292 625 222 531 b 456 64 222 235 314 64"},"÷":{"ha":796,"x_min":null,"x_max":null,"o":"m 399 599 b 314 674 349 599 314 632 b 399 749 314 717 349 749 b 482 674 447 749 482 717 b 399 599 482 632 447 599 m 107 367 b 69 424 81 367 69 386 b 107 479 69 458 81 479 l 690 479 b 726 424 715 479 726 458 b 690 367 726 386 715 367 l 107 367 m 399 97 b 314 172 349 97 314 129 b 399 246 314 214 349 246 b 482 172 447 246 482 214 b 399 97 482 129 447 97"},"ø":{"ha":889,"x_min":null,"x_max":null,"o":"m 757 583 b 835 350 807 522 835 442 b 435 -26 835 132 664 -26 b 192 49 338 -26 254 1 l 139 -1 b 103 -21 125 -12 114 -21 b 63 24 85 -21 63 4 b 83 60 63 35 69 47 l 132 106 b 56 338 83 168 56 247 b 456 715 56 554 224 715 b 699 640 553 715 636 688 l 751 690 b 788 708 764 703 776 708 b 828 665 804 708 828 686 b 807 631 828 654 821 643 l 757 583 m 422 625 b 235 390 304 625 235 531 b 267 229 235 336 246 279 l 585 531 b 422 625 544 588 489 625 m 468 64 b 656 297 586 64 656 158 b 622 460 656 353 644 410 l 306 158 b 468 64 346 101 401 64"},"ù":{"ha":896,"x_min":null,"x_max":null,"o":"m 399 819 b 268 950 358 858 297 924 b 221 1021 236 983 221 1001 b 294 1050 221 1043 236 1050 b 372 1018 340 1050 356 1042 b 481 847 406 971 440 918 b 493 813 488 833 493 822 b 460 790 493 800 479 790 b 399 819 442 790 422 796 m 764 197 b 875 78 764 111 875 126 b 743 10 875 46 846 32 b 633 -11 674 -7 649 -11 b 597 40 606 -11 597 15 l 597 118 b 360 -17 553 44 476 -17 b 124 251 208 -17 124 83 l 124 479 b 17 589 124 565 17 536 b 140 667 17 618 46 633 b 253 699 222 696 240 699 b 290 640 286 699 290 668 l 290 290 b 426 113 290 178 325 113 b 597 313 511 113 597 174 l 597 479 b 478 589 597 565 478 533 b 614 668 478 618 508 632 b 728 699 692 694 717 699 b 764 640 760 699 764 668 l 764 197"},"ú":{"ha":896,"x_min":null,"x_max":null,"o":"m 393 790 b 360 813 372 790 360 800 b 372 847 360 822 364 833 b 479 1018 414 918 447 969 b 557 1050 496 1042 511 1050 b 631 1021 615 1050 631 1043 b 583 950 631 1001 617 983 b 453 819 553 921 493 857 b 393 790 429 796 411 790 m 764 197 b 875 78 764 111 875 126 b 743 10 875 46 846 32 b 633 -11 674 -7 649 -11 b 597 40 606 -11 597 15 l 597 118 b 360 -17 553 44 476 -17 b 124 251 208 -17 124 83 l 124 479 b 17 589 124 565 17 536 b 140 667 17 618 46 633 b 253 699 222 696 240 699 b 290 640 286 699 290 668 l 290 290 b 426 113 290 178 325 113 b 597 313 511 113 597 174 l 597 479 b 478 589 597 565 478 533 b 614 668 478 618 508 632 b 728 699 692 694 717 699 b 764 640 760 699 764 668 l 764 197"},"û":{"ha":896,"x_min":null,"x_max":null,"o":"m 263 801 b 226 832 240 801 226 818 b 242 869 226 843 232 854 b 354 1017 278 919 314 968 b 436 1053 376 1043 392 1053 b 518 1017 482 1053 496 1043 b 631 869 560 968 596 921 b 647 832 642 854 647 843 b 610 801 647 818 632 801 b 553 832 593 801 575 808 l 436 950 l 319 832 b 263 801 297 808 279 801 m 764 197 b 875 78 764 111 875 126 b 743 10 875 46 846 32 b 633 -11 674 -7 649 -11 b 597 40 606 -11 597 15 l 597 118 b 360 -17 553 44 476 -17 b 124 251 208 -17 124 83 l 124 479 b 17 589 124 565 17 536 b 140 667 17 618 46 633 b 253 699 222 696 240 699 b 290 640 286 699 290 668 l 290 290 b 426 113 290 178 325 113 b 597 313 511 113 597 174 l 597 479 b 478 589 597 565 478 533 b 614 668 478 618 508 632 b 728 699 692 694 717 699 b 764 640 760 699 764 668 l 764 197"},"ü":{"ha":896,"x_min":null,"x_max":null,"o":"m 300 819 b 201 906 242 819 201 854 b 301 996 201 956 242 996 b 397 908 357 996 397 961 b 300 819 397 856 357 819 m 567 819 b 469 906 510 819 469 854 b 568 994 469 956 510 994 b 664 908 624 994 664 961 b 567 819 664 856 624 819 m 764 197 b 875 78 764 111 875 126 b 743 10 875 46 846 32 b 633 -11 674 -7 649 -11 b 597 40 606 -11 597 15 l 597 118 b 360 -17 553 44 476 -17 b 124 251 208 -17 124 83 l 124 479 b 17 589 124 565 17 536 b 140 667 17 618 46 633 b 253 699 222 696 240 699 b 290 640 286 699 290 668 l 290 290 b 426 113 290 178 325 113 b 597 313 511 113 597 174 l 597 479 b 478 589 597 565 478 533 b 614 668 478 618 508 632 b 728 699 692 694 717 699 b 764 640 760 699 764 668 l 764 197"},"ý":{"ha":813,"x_min":null,"x_max":null,"o":"m 381 790 b 347 813 360 790 347 800 b 360 847 347 822 351 833 b 467 1018 401 918 435 969 b 544 1050 483 1042 499 1050 b 618 1021 603 1050 618 1043 b 571 950 618 1001 604 983 b 440 819 540 921 481 857 b 381 790 417 796 399 790 m 771 693 b 810 661 793 693 810 682 b 700 533 810 615 740 629 l 453 -49 b 200 -267 394 -187 311 -267 b 96 -235 153 -267 110 -254 b 46 -67 72 -206 46 -111 b 79 -22 46 -42 60 -22 b 117 -47 94 -22 104 -29 b 238 -146 164 -115 197 -146 b 357 -11 285 -146 324 -93 l 360 -6 l 110 532 b -1 661 64 629 -1 615 b 38 693 -1 682 15 693 b 182 689 74 693 114 689 b 318 693 243 689 285 693 b 363 660 346 693 363 682 b 288 564 363 611 288 628 b 310 482 288 547 294 519 l 447 167 l 576 482 b 600 568 592 522 600 546 b 522 660 600 624 522 611 b 565 693 522 682 538 693 b 667 689 594 693 631 689 b 771 693 704 689 739 693"},"þ":{"ha":874,"x_min":null,"x_max":null,"o":"m 519 708 b 831 350 697 708 831 567 b 483 -19 831 125 675 -19 b 264 53 374 -19 310 14 l 264 -93 b 364 -219 264 -199 364 -161 b 325 -253 364 -235 351 -253 b 181 -249 292 -253 246 -249 b 54 -253 122 -249 85 -253 b 14 -219 26 -253 14 -235 b 97 -93 14 -165 97 -199 l 97 829 b 3 931 97 915 3 872 b 118 1014 3 957 32 974 b 228 1056 199 1051 215 1056 b 264 997 256 1056 264 1032 l 264 571 b 519 708 315 649 400 708 m 465 69 b 653 307 571 69 653 150 b 446 589 653 472 565 589 b 264 376 351 589 264 508 l 264 293 b 465 69 264 167 347 69"},"ÿ":{"ha":813,"x_min":null,"x_max":null,"o":"m 288 819 b 189 906 229 819 189 854 b 289 996 189 956 229 996 b 385 908 344 996 385 961 b 288 819 385 856 344 819 m 554 819 b 457 906 497 819 457 854 b 556 994 457 956 497 994 b 651 908 611 994 651 961 b 554 819 651 856 611 819 m 771 693 b 810 661 793 693 810 682 b 700 533 810 615 740 629 l 453 -49 b 200 -267 394 -187 311 -267 b 96 -235 153 -267 110 -254 b 46 -67 72 -206 46 -111 b 79 -22 46 -42 60 -22 b 117 -47 94 -22 104 -29 b 238 -146 164 -115 197 -146 b 357 -11 285 -146 324 -93 l 360 -6 l 110 532 b -1 661 64 629 -1 615 b 38 693 -1 682 15 693 b 182 689 74 693 114 689 b 318 693 243 689 285 693 b 363 660 346 693 363 682 b 288 564 363 611 288 628 b 310 482 288 547 294 519 l 447 167 l 576 482 b 600 568 592 522 600 546 b 522 660 600 624 522 611 b 565 693 522 682 538 693 b 667 689 594 693 631 689 b 771 693 704 689 739 693"},"Ā":{"ha":1024,"x_min":null,"x_max":null,"o":"m 347 1125 b 306 1175 317 1125 306 1142 b 347 1224 306 1207 317 1224 l 513 1222 b 681 1224 554 1222 649 1224 b 722 1175 710 1224 722 1207 b 681 1125 722 1142 710 1125 b 514 1128 644 1125 554 1128 b 347 1125 474 1128 379 1125 m 925 151 b 1035 26 963 58 1035 79 b 999 -4 1035 8 1021 -4 b 861 0 969 -4 926 0 b 696 -4 796 0 735 -4 b 646 31 664 -4 646 7 b 739 119 646 81 739 64 b 728 168 739 132 735 147 l 671 308 b 628 340 663 332 654 340 l 315 340 b 272 308 289 340 281 332 l 217 169 b 203 121 208 147 203 133 b 299 31 203 65 299 79 b 249 -4 299 7 281 -4 b 128 0 210 -4 171 0 b 25 -4 85 0 56 -4 b -12 26 1 -4 -12 8 b 99 149 -12 82 63 57 l 321 714 b 393 908 347 781 375 854 b 514 996 419 986 431 996 b 631 908 596 996 604 985 b 704 714 650 854 678 781 l 925 151 m 594 432 b 614 457 617 432 619 444 l 471 819 l 329 458 b 346 432 324 443 328 432 l 594 432"},"ā":{"ha":800,"x_min":null,"x_max":null,"o":"m 224 867 b 182 917 193 867 182 883 b 224 965 182 949 193 965 l 389 964 b 557 965 431 964 525 965 b 599 917 586 965 599 949 b 557 867 599 883 586 867 b 390 869 521 867 431 869 b 224 867 350 869 256 867 m 793 100 b 817 75 808 97 817 89 b 671 -11 817 43 758 -11 b 532 89 611 -11 558 22 b 278 -15 479 32 389 -15 b 35 194 129 -15 35 71 b 322 417 35 318 140 417 b 485 393 385 417 438 407 l 482 410 b 322 592 463 546 408 592 b 161 525 261 592 207 563 b 117 507 143 514 129 507 b 85 540 101 507 85 519 b 118 597 85 560 101 579 b 378 706 168 657 267 706 b 642 456 554 706 621 600 l 674 225 b 793 100 688 126 719 114 m 343 86 b 514 171 413 86 479 126 l 496 311 b 369 333 456 326 414 333 b 210 211 268 333 210 289 b 343 86 210 136 264 86"},"Ă":{"ha":1024,"x_min":null,"x_max":null,"o":"m 514 1065 b 329 1203 426 1065 364 1115 b 311 1272 317 1229 311 1256 b 349 1307 311 1294 329 1307 b 406 1253 374 1307 388 1283 b 514 1167 435 1197 468 1167 b 624 1253 561 1167 594 1197 b 681 1307 642 1283 654 1307 b 718 1272 700 1307 718 1294 b 700 1203 718 1256 713 1229 b 514 1065 665 1115 603 1065 m 925 151 b 1035 26 963 58 1035 79 b 999 -4 1035 8 1021 -4 b 861 0 969 -4 926 0 b 696 -4 796 0 735 -4 b 646 31 664 -4 646 7 b 739 119 646 81 739 64 b 728 168 739 132 735 147 l 671 308 b 628 340 663 332 654 340 l 315 340 b 272 308 289 340 281 332 l 217 169 b 203 121 208 147 203 133 b 299 31 203 65 299 79 b 249 -4 299 7 281 -4 b 128 0 210 -4 171 0 b 25 -4 85 0 56 -4 b -12 26 1 -4 -12 8 b 99 149 -12 82 63 57 l 321 714 b 393 908 347 781 375 854 b 514 996 419 986 431 996 b 631 908 596 996 604 985 b 704 714 650 854 678 781 l 925 151 m 594 432 b 614 457 617 432 619 444 l 471 819 l 329 458 b 346 432 324 443 328 432 l 594 432"},"ă":{"ha":800,"x_min":null,"x_max":null,"o":"m 390 807 b 206 944 303 807 240 857 b 188 1014 193 971 188 997 b 225 1049 188 1036 206 1049 b 282 994 250 1049 264 1025 b 390 908 311 939 344 908 b 500 994 438 908 471 939 b 557 1049 518 1025 531 1049 b 594 1014 576 1049 594 1036 b 576 944 594 997 589 971 b 390 807 542 857 479 807 m 793 100 b 817 75 808 97 817 89 b 671 -11 817 43 758 -11 b 532 89 611 -11 558 22 b 278 -15 479 32 389 -15 b 35 194 129 -15 35 71 b 322 417 35 318 140 417 b 485 393 385 417 438 407 l 482 410 b 322 592 463 546 408 592 b 161 525 261 592 207 563 b 117 507 143 514 129 507 b 85 540 101 507 85 519 b 118 597 85 560 101 579 b 378 706 168 657 267 706 b 642 456 554 706 621 600 l 674 225 b 793 100 688 126 719 114 m 343 86 b 514 171 413 86 479 126 l 496 311 b 369 333 456 326 414 333 b 210 211 268 333 210 289 b 343 86 210 136 264 86"},"Ą":{"ha":1024,"x_min":null,"x_max":null,"o":"m 925 151 b 1035 26 963 58 1035 79 b 999 -4 1035 8 1021 -4 b 892 0 974 -4 940 -1 b 818 -149 846 -47 818 -93 b 857 -203 818 -185 835 -203 b 893 -193 872 -203 882 -199 b 914 -185 900 -190 907 -185 b 939 -211 928 -185 939 -197 b 919 -246 939 -225 932 -235 b 822 -278 897 -264 864 -278 b 715 -168 764 -278 715 -236 b 810 -1 715 -110 749 -54 b 696 -4 765 -1 725 -4 b 646 31 664 -4 646 7 b 739 119 646 81 739 64 b 728 168 739 132 735 147 l 671 308 b 628 340 663 332 654 340 l 315 340 b 272 308 289 340 281 332 l 217 169 b 203 121 208 147 203 133 b 299 31 203 65 299 79 b 249 -4 299 7 281 -4 b 128 0 210 -4 171 0 b 25 -4 85 0 56 -4 b -12 26 1 -4 -12 8 b 99 149 -12 82 63 57 l 321 714 b 393 908 347 781 375 854 b 514 996 419 986 431 996 b 631 908 596 996 604 985 b 704 714 650 854 678 781 l 925 151 m 594 432 b 614 457 617 432 619 444 l 471 819 l 329 458 b 346 432 324 443 328 432 l 594 432"},"ą":{"ha":800,"x_min":null,"x_max":null,"o":"m 817 75 b 728 -3 817 50 783 14 b 657 -149 683 -50 657 -94 b 696 -203 657 -185 674 -203 b 732 -193 711 -203 721 -199 b 753 -185 739 -190 746 -185 b 778 -211 767 -185 778 -197 b 758 -246 778 -225 771 -235 b 661 -278 736 -264 703 -278 b 554 -168 603 -278 554 -236 b 640 -8 554 -112 585 -60 b 532 89 593 1 554 33 b 278 -15 479 32 389 -15 b 35 194 129 -15 35 71 b 322 417 35 318 140 417 b 485 393 385 417 438 407 l 482 410 b 322 592 463 546 408 592 b 161 525 261 592 207 563 b 117 507 143 514 129 507 b 85 540 101 507 85 519 b 118 597 85 560 101 579 b 378 706 168 657 267 706 b 642 456 554 706 621 600 l 674 225 b 793 100 688 126 719 114 b 817 75 808 97 817 89 m 343 86 b 514 171 413 86 479 126 l 496 311 b 369 333 456 326 414 333 b 210 211 268 333 210 289 b 343 86 210 136 264 86"},"Ć":{"ha":979,"x_min":null,"x_max":null,"o":"m 489 1049 b 456 1071 468 1049 456 1058 b 468 1106 456 1081 460 1092 b 575 1276 510 1176 543 1228 b 653 1308 592 1300 607 1308 b 726 1279 711 1308 726 1301 b 679 1208 726 1260 713 1242 b 549 1078 649 1179 589 1115 b 489 1049 525 1054 507 1049 m 524 -28 b 51 472 276 -28 51 157 b 518 1011 51 792 272 1011 b 725 978 615 1011 692 978 b 789 1015 756 978 760 1015 b 850 943 814 1015 829 997 l 897 821 b 935 713 922 758 935 736 b 897 671 935 685 915 671 b 846 706 878 671 864 683 b 553 913 743 842 657 913 b 251 511 381 913 251 743 b 585 103 251 263 390 103 b 858 251 699 103 794 161 b 906 282 871 267 883 282 b 946 240 928 282 946 265 b 928 185 946 225 939 207 b 524 -28 878 94 736 -28"},"ć":{"ha":733,"x_min":null,"x_max":null,"o":"m 357 790 b 324 813 336 790 324 800 b 336 847 324 822 328 833 b 443 1018 378 918 411 969 b 521 1050 460 1042 475 1050 b 594 1021 579 1050 594 1043 b 547 950 594 1001 581 983 b 417 819 517 921 457 857 b 357 790 393 796 375 790 m 396 -26 b 43 333 203 -26 43 104 b 410 714 43 563 213 714 b 683 558 561 714 683 622 b 610 429 683 528 665 483 b 567 406 592 413 581 406 b 529 450 546 406 533 424 b 383 633 511 543 481 633 b 218 397 286 633 218 540 b 468 93 218 214 335 93 b 647 178 543 93 603 128 b 681 197 661 190 669 197 b 710 164 699 197 710 182 b 697 125 710 153 704 139 b 396 -26 658 51 547 -26"},"Ĉ":{"ha":979,"x_min":null,"x_max":null,"o":"m 358 1060 b 322 1090 336 1060 322 1076 b 338 1128 322 1101 328 1113 b 450 1275 374 1178 410 1226 b 532 1311 472 1301 488 1311 b 614 1275 578 1311 592 1301 b 726 1128 656 1226 692 1179 b 743 1090 738 1113 743 1101 b 706 1060 743 1076 728 1060 b 649 1090 689 1060 671 1067 l 532 1208 l 415 1090 b 358 1060 393 1067 375 1060 m 906 282 b 946 240 928 282 946 265 b 928 185 946 225 939 207 b 524 -28 878 94 736 -28 b 51 472 276 -28 51 157 b 518 1011 51 792 272 1011 b 725 978 615 1011 692 978 b 789 1015 756 978 760 1015 b 850 943 814 1015 829 997 l 897 821 b 935 713 922 758 935 736 b 897 671 935 685 915 671 b 846 706 878 671 864 683 b 553 913 743 842 657 913 b 251 511 381 913 251 743 b 585 103 251 263 390 103 b 858 251 699 103 794 161 b 906 282 871 267 883 282"},"ĉ":{"ha":733,"x_min":null,"x_max":null,"o":"m 226 801 b 190 832 204 801 190 818 b 206 869 190 843 196 854 b 318 1017 242 919 278 968 b 400 1053 340 1043 356 1053 b 482 1017 446 1053 460 1043 b 594 869 524 968 560 921 b 611 832 606 854 611 843 b 574 801 611 818 596 801 b 517 832 557 801 539 808 l 400 950 l 283 832 b 226 801 261 808 243 801 m 681 197 b 710 164 699 197 710 182 b 697 125 710 153 704 139 b 396 -26 658 51 547 -26 b 43 333 203 -26 43 104 b 410 714 43 563 213 714 b 683 558 561 714 683 622 b 610 429 683 528 665 483 b 567 406 592 413 581 406 b 529 450 546 406 533 424 b 383 633 511 543 481 633 b 218 397 286 633 218 540 b 468 93 218 214 335 93 b 647 178 543 93 603 128 b 681 197 661 190 669 197"},"Ċ":{"ha":979,"x_min":null,"x_max":null,"o":"m 531 1078 b 432 1164 474 1078 432 1113 b 531 1254 432 1214 472 1254 b 629 1167 588 1254 629 1219 b 531 1078 629 1114 588 1078 m 524 -28 b 51 472 276 -28 51 157 b 518 1011 51 792 272 1011 b 725 978 615 1011 692 978 b 789 1015 756 978 760 1015 b 850 943 814 1015 829 997 l 897 821 b 935 713 922 758 935 736 b 897 671 935 685 915 671 b 846 706 878 671 864 683 b 553 913 743 842 657 913 b 251 511 381 913 251 743 b 585 103 251 263 390 103 b 858 251 699 103 794 161 b 906 282 871 267 883 282 b 946 240 928 282 946 265 b 928 185 946 225 939 207 b 524 -28 878 94 736 -28"},"ċ":{"ha":733,"x_min":null,"x_max":null,"o":"m 399 819 b 300 906 342 819 300 854 b 399 996 300 956 340 996 b 497 908 456 996 497 961 b 399 819 497 856 456 819 m 396 -26 b 43 333 203 -26 43 104 b 410 714 43 563 213 714 b 683 558 561 714 683 622 b 610 429 683 528 665 483 b 567 406 592 413 581 406 b 529 450 546 406 533 424 b 383 633 511 543 481 633 b 218 397 286 633 218 540 b 468 93 218 214 335 93 b 647 178 543 93 603 128 b 681 197 661 190 669 197 b 710 164 699 197 710 182 b 697 125 710 153 704 139 b 396 -26 658 51 547 -26"},"Č":{"ha":979,"x_min":null,"x_max":null,"o":"m 449 1103 b 338 1250 408 1151 372 1199 b 321 1288 326 1265 321 1276 b 357 1318 321 1301 335 1318 b 415 1288 374 1318 392 1311 l 532 1172 l 647 1288 b 706 1318 671 1311 689 1318 b 742 1288 728 1318 742 1301 b 725 1250 742 1276 736 1265 b 614 1103 689 1200 653 1151 b 531 1067 590 1076 576 1067 b 449 1103 486 1067 472 1076 m 906 282 b 946 240 928 282 946 265 b 928 185 946 225 939 207 b 524 -28 878 94 736 -28 b 51 472 276 -28 51 157 b 518 1011 51 792 272 1011 b 725 978 615 1011 692 978 b 789 1015 756 978 760 1015 b 850 943 814 1015 829 997 l 897 821 b 935 713 922 758 935 736 b 897 671 935 685 915 671 b 846 706 878 671 864 683 b 553 913 743 842 657 913 b 251 511 381 913 251 743 b 585 103 251 263 390 103 b 858 251 699 103 794 161 b 906 282 871 267 883 282"},"č":{"ha":733,"x_min":null,"x_max":null,"o":"m 317 844 b 206 992 276 893 240 940 b 189 1029 194 1007 189 1018 b 225 1060 189 1043 203 1060 b 283 1029 242 1060 260 1053 l 400 914 l 515 1029 b 574 1060 539 1053 557 1060 b 610 1029 596 1060 610 1043 b 593 992 610 1018 604 1007 b 482 844 557 942 521 893 b 399 808 458 818 444 808 b 317 844 354 808 340 818 m 681 197 b 710 164 699 197 710 182 b 697 125 710 153 704 139 b 396 -26 658 51 547 -26 b 43 333 203 -26 43 104 b 410 714 43 563 213 714 b 683 558 561 714 683 622 b 610 429 683 528 665 483 b 567 406 592 413 581 406 b 529 450 546 406 533 424 b 383 633 511 543 481 633 b 218 397 286 633 218 540 b 468 93 218 214 335 93 b 647 178 543 93 603 128 b 681 197 661 190 669 197"},"Ď":{"ha":1096,"x_min":null,"x_max":null,"o":"m 401 1103 b 290 1250 361 1151 325 1199 b 274 1288 279 1265 274 1276 b 310 1318 274 1301 288 1318 b 368 1288 326 1318 344 1311 l 485 1172 l 600 1288 b 658 1318 624 1311 642 1318 b 694 1288 681 1318 694 1301 b 678 1250 694 1276 689 1265 b 567 1103 642 1200 606 1151 b 483 1067 543 1076 529 1067 b 401 1103 439 1067 425 1076 m 468 993 b 1046 479 807 993 1046 782 b 506 -6 1046 192 831 -6 b 238 0 417 -6 328 0 b 103 -4 175 0 128 -4 b 57 31 69 -4 57 11 b 147 150 57 86 147 54 l 147 836 b 57 956 147 932 57 900 b 103 990 57 975 69 990 b 238 986 128 990 175 986 b 468 993 314 986 392 993 m 483 89 b 843 489 714 89 843 240 b 465 897 843 733 700 897 l 442 897 b 331 831 356 897 331 879 l 331 156 b 442 89 331 106 357 89 l 483 89"},"ď":{"ha":900,"x_min":null,"x_max":null,"o":"m 918 1082 b 983 1040 963 1082 983 1069 b 946 758 983 965 963 831 b 904 722 939 735 926 722 b 872 754 883 722 872 731 l 874 1040 b 918 1082 874 1072 883 1082 m 778 203 b 876 90 778 117 876 146 b 756 15 876 61 847 46 b 647 -17 678 -12 658 -17 b 611 42 613 -17 611 19 l 611 114 b 358 -19 560 38 475 -19 b 43 333 188 -19 43 111 b 401 708 43 553 199 708 b 611 633 492 708 561 679 l 611 832 b 501 935 611 918 501 872 b 625 1017 501 960 532 976 b 742 1056 704 1050 729 1056 b 778 997 771 1056 778 1028 l 778 203 m 431 100 b 611 303 521 100 611 172 l 611 372 b 404 621 611 521 507 621 b 219 383 290 621 219 524 b 431 100 219 207 325 100"},"Đ":{"ha":1100,"x_min":null,"x_max":null,"o":"m 472 993 b 1050 479 811 993 1050 782 b 510 -6 1050 192 833 -6 b 242 0 419 -6 331 0 b 106 -4 178 0 132 -4 b 61 31 74 -4 61 11 b 150 150 61 86 150 54 l 150 460 l 76 460 b 28 504 42 460 28 474 b 76 550 28 535 42 550 l 150 550 l 150 836 b 61 956 150 932 61 900 b 106 990 61 975 74 990 b 242 986 132 990 178 986 b 472 993 318 986 396 993 m 486 89 b 846 489 718 89 846 240 b 469 897 846 733 703 897 l 444 897 b 335 831 358 897 335 879 l 335 550 l 526 550 b 575 504 561 550 575 535 b 526 460 575 474 561 460 l 335 460 l 335 156 b 444 89 335 106 360 89 l 486 89"},"đ":{"ha":900,"x_min":null,"x_max":null,"o":"m 778 203 b 876 90 778 117 876 146 b 756 15 876 61 847 46 b 647 -17 678 -12 658 -17 b 611 42 613 -17 611 19 l 611 108 b 358 -19 560 35 475 -19 b 43 319 188 -19 43 106 b 401 682 43 532 199 682 b 611 610 492 682 561 653 l 611 751 l 386 751 b 338 794 350 751 338 767 b 386 836 338 821 350 836 l 611 836 l 611 838 b 501 936 611 918 501 879 b 625 1018 501 965 532 982 b 742 1056 704 1050 729 1056 b 778 997 771 1056 778 1028 l 778 836 l 838 836 b 886 794 872 836 886 821 b 838 751 886 767 872 751 l 778 751 l 778 203 m 431 94 b 611 292 521 94 611 164 l 611 357 b 404 596 611 501 507 596 b 219 369 290 596 219 503 b 431 94 219 199 325 94"},"Ē":{"ha":967,"x_min":null,"x_max":null,"o":"m 299 1125 b 257 1175 268 1125 257 1142 b 299 1224 257 1207 268 1224 l 464 1222 b 632 1224 506 1222 600 1224 b 674 1175 661 1224 674 1207 b 632 1125 674 1142 661 1125 b 465 1128 596 1125 506 1128 b 299 1125 425 1128 331 1125 m 917 299 b 951 263 933 299 951 285 b 913 157 951 238 942 215 l 853 29 b 790 -31 835 -10 817 -31 b 697 0 753 -31 749 0 l 238 0 b 103 -4 175 0 129 -4 b 58 31 69 -4 58 11 b 147 150 58 86 147 54 l 147 836 b 58 956 147 932 58 900 b 103 990 58 975 69 990 b 238 986 128 990 174 986 l 642 986 b 728 1017 690 986 694 1017 b 796 947 756 1017 772 999 l 849 835 b 885 735 875 782 885 758 b 851 699 885 711 868 699 b 799 732 832 699 819 711 b 532 896 703 835 647 896 l 429 896 b 331 828 343 896 331 876 l 331 579 b 371 546 331 556 339 546 l 482 546 b 615 649 568 546 564 649 b 651 603 636 649 651 636 b 647 501 651 569 647 536 b 651 399 647 465 651 431 b 615 353 651 365 636 353 b 482 456 564 353 568 456 l 371 456 b 331 422 339 456 331 446 l 331 158 b 429 90 331 108 344 90 l 585 90 b 865 264 704 90 767 157 b 917 299 885 286 897 299"},"ē":{"ha":764,"x_min":null,"x_max":null,"o":"m 229 867 b 188 917 199 867 188 883 b 229 965 188 949 199 965 l 394 964 b 563 965 436 964 531 965 b 604 917 592 965 604 949 b 563 867 604 883 592 867 b 396 869 526 867 436 869 b 229 867 356 869 261 867 m 703 190 b 735 156 722 190 735 172 b 721 121 735 146 731 135 b 404 -26 672 49 549 -26 b 42 340 201 -26 42 111 b 406 715 42 565 211 715 b 707 443 589 715 707 579 b 672 393 707 408 696 400 l 240 263 b 475 89 282 163 367 89 b 663 167 550 89 614 121 b 703 190 681 183 690 190 m 382 622 b 213 404 285 622 213 538 b 217 344 213 383 214 364 l 499 433 b 531 474 522 440 531 449 b 382 622 531 540 469 622"},"Ĕ":{"ha":967,"x_min":null,"x_max":null,"o":"m 465 1065 b 281 1203 378 1065 315 1115 b 263 1272 268 1229 263 1256 b 300 1307 263 1294 281 1307 b 357 1253 325 1307 339 1283 b 465 1167 386 1197 419 1167 b 575 1253 513 1167 546 1197 b 632 1307 593 1283 606 1307 b 669 1272 651 1307 669 1294 b 651 1203 669 1256 664 1229 b 465 1065 617 1115 554 1065 m 917 299 b 951 263 933 299 951 285 b 913 157 951 238 942 215 l 853 29 b 790 -31 835 -10 817 -31 b 697 0 753 -31 749 0 l 238 0 b 103 -4 175 0 129 -4 b 58 31 69 -4 58 11 b 147 150 58 86 147 54 l 147 836 b 58 956 147 932 58 900 b 103 990 58 975 69 990 b 238 986 128 990 174 986 l 642 986 b 728 1017 690 986 694 1017 b 796 947 756 1017 772 999 l 849 835 b 885 735 875 782 885 758 b 851 699 885 711 868 699 b 799 732 832 699 819 711 b 532 896 703 835 647 896 l 429 896 b 331 828 343 896 331 876 l 331 579 b 371 546 331 556 339 546 l 482 546 b 615 649 568 546 564 649 b 651 603 636 649 651 636 b 647 501 651 569 647 536 b 651 399 647 465 651 431 b 615 353 651 365 636 353 b 482 456 564 353 568 456 l 371 456 b 331 422 339 456 331 446 l 331 158 b 429 90 331 108 344 90 l 585 90 b 865 264 704 90 767 157 b 917 299 885 286 897 299"},"ĕ":{"ha":764,"x_min":null,"x_max":null,"o":"m 396 807 b 211 944 308 807 246 857 b 193 1014 199 971 193 997 b 231 1049 193 1036 211 1049 b 288 994 256 1049 269 1025 b 396 908 317 939 350 908 b 506 994 443 908 476 939 b 563 1049 524 1025 536 1049 b 600 1014 582 1049 600 1036 b 582 944 600 997 594 971 b 396 807 547 857 485 807 m 703 190 b 735 156 722 190 735 172 b 721 121 735 146 731 135 b 404 -26 672 49 549 -26 b 42 340 201 -26 42 111 b 406 715 42 565 211 715 b 707 443 589 715 707 579 b 672 393 707 408 696 400 l 240 263 b 475 89 282 163 367 89 b 663 167 550 89 614 121 b 703 190 681 183 690 190 m 382 622 b 213 404 285 622 213 538 b 217 344 213 383 214 364 l 499 433 b 531 474 522 440 531 449 b 382 622 531 540 469 622"},"Ė":{"ha":967,"x_min":null,"x_max":null,"o":"m 467 1078 b 368 1164 410 1078 368 1113 b 467 1254 368 1214 408 1254 b 565 1167 524 1254 565 1219 b 467 1078 565 1114 524 1078 m 917 299 b 951 263 933 299 951 285 b 913 157 951 238 942 215 l 853 29 b 790 -31 835 -10 817 -31 b 697 0 753 -31 749 0 l 238 0 b 103 -4 175 0 129 -4 b 58 31 69 -4 58 11 b 147 150 58 86 147 54 l 147 836 b 58 956 147 932 58 900 b 103 990 58 975 69 990 b 238 986 128 990 174 986 l 642 986 b 728 1017 690 986 694 1017 b 796 947 756 1017 772 999 l 849 835 b 885 735 875 782 885 758 b 851 699 885 711 868 699 b 799 732 832 699 819 711 b 532 896 703 835 647 896 l 429 896 b 331 828 343 896 331 876 l 331 579 b 371 546 331 556 339 546 l 482 546 b 615 649 568 546 564 649 b 651 603 636 649 651 636 b 647 501 651 569 647 536 b 651 399 647 465 651 431 b 615 353 651 365 636 353 b 482 456 564 353 568 456 l 371 456 b 331 422 339 456 331 446 l 331 158 b 429 90 331 108 344 90 l 585 90 b 865 264 704 90 767 157 b 917 299 885 286 897 299"},"ė":{"ha":764,"x_min":null,"x_max":null,"o":"m 397 819 b 299 906 340 819 299 854 b 397 996 299 956 339 996 b 496 908 454 996 496 961 b 397 819 496 856 454 819 m 703 190 b 735 156 722 190 735 172 b 721 121 735 146 731 135 b 404 -26 672 49 549 -26 b 42 340 201 -26 42 111 b 406 715 42 565 211 715 b 707 443 589 715 707 579 b 672 393 707 408 696 400 l 240 263 b 475 89 282 163 367 89 b 663 167 550 89 614 121 b 703 190 681 183 690 190 m 382 622 b 213 404 285 622 213 538 b 217 344 213 383 214 364 l 499 433 b 531 474 522 440 531 449 b 382 622 531 540 469 622"},"Ę":{"ha":967,"x_min":null,"x_max":null,"o":"m 917 299 b 951 263 933 299 951 285 b 913 157 951 238 942 215 l 853 29 b 790 -31 835 -10 817 -31 b 717 -1 758 -31 750 -8 b 644 -149 672 -49 644 -93 b 683 -203 644 -185 661 -203 b 719 -193 699 -203 708 -199 b 740 -185 726 -190 733 -185 b 765 -211 754 -185 765 -197 b 746 -246 765 -225 758 -235 b 649 -278 724 -264 690 -278 b 542 -168 590 -278 542 -236 b 638 0 542 -110 575 -54 l 238 0 b 103 -4 175 0 129 -4 b 58 31 69 -4 58 11 b 147 150 58 86 147 54 l 147 836 b 58 956 147 932 58 900 b 103 990 58 975 69 990 b 238 986 128 990 174 986 l 642 986 b 728 1017 690 986 694 1017 b 796 947 756 1017 772 999 l 849 835 b 885 735 875 782 885 758 b 851 699 885 711 868 699 b 799 732 832 699 819 711 b 532 896 703 835 647 896 l 429 896 b 331 828 343 896 331 876 l 331 579 b 371 546 331 556 339 546 l 482 546 b 615 649 568 546 564 649 b 651 603 636 649 651 636 b 647 501 651 569 647 536 b 651 399 647 465 651 431 b 615 353 651 365 636 353 b 482 456 564 353 568 456 l 371 456 b 331 422 339 456 331 446 l 331 158 b 429 90 331 108 344 90 l 585 90 b 865 264 704 90 767 157 b 917 299 885 286 897 299"},"ę":{"ha":764,"x_min":null,"x_max":null,"o":"m 703 190 b 735 156 722 190 735 172 b 721 121 735 146 731 135 b 547 -1 689 74 626 26 b 475 -149 503 -49 475 -93 b 514 -203 475 -185 492 -203 b 550 -193 529 -203 539 -199 b 571 -185 557 -190 564 -185 b 596 -211 585 -185 596 -197 b 576 -246 596 -225 589 -235 b 479 -278 554 -264 521 -278 b 372 -168 421 -278 372 -236 b 442 -25 372 -118 396 -71 b 404 -26 429 -26 417 -26 b 42 340 201 -26 42 111 b 406 715 42 565 211 715 b 707 443 589 715 707 579 b 672 393 707 408 696 400 l 240 263 b 475 89 282 163 367 89 b 663 167 550 89 614 121 b 703 190 681 183 690 190 m 382 622 b 213 404 285 622 213 538 b 217 344 213 383 214 364 l 499 433 b 531 474 522 440 531 449 b 382 622 531 540 469 622"},"Ě":{"ha":967,"x_min":null,"x_max":null,"o":"m 385 1103 b 274 1250 344 1151 308 1199 b 257 1288 263 1265 257 1276 b 293 1318 257 1301 271 1318 b 351 1288 310 1318 328 1311 l 468 1172 l 583 1288 b 642 1318 607 1311 625 1318 b 678 1288 664 1318 678 1301 b 661 1250 678 1276 672 1265 b 550 1103 625 1200 589 1151 b 467 1067 526 1076 513 1067 b 385 1103 422 1067 408 1076 m 917 299 b 951 263 933 299 951 285 b 913 157 951 238 942 215 l 853 29 b 790 -31 835 -10 817 -31 b 697 0 753 -31 749 0 l 238 0 b 103 -4 175 0 129 -4 b 58 31 69 -4 58 11 b 147 150 58 86 147 54 l 147 836 b 58 956 147 932 58 900 b 103 990 58 975 69 990 b 238 986 128 990 174 986 l 642 986 b 728 1017 690 986 694 1017 b 796 947 756 1017 772 999 l 849 835 b 885 735 875 782 885 758 b 851 699 885 711 868 699 b 799 732 832 699 819 711 b 532 896 703 835 647 896 l 429 896 b 331 828 343 896 331 876 l 331 579 b 371 546 331 556 339 546 l 482 546 b 615 649 568 546 564 649 b 651 603 636 649 651 636 b 647 501 651 569 647 536 b 651 399 647 465 651 431 b 615 353 651 365 636 353 b 482 456 564 353 568 456 l 371 456 b 331 422 339 456 331 446 l 331 158 b 429 90 331 108 344 90 l 585 90 b 865 264 704 90 767 157 b 917 299 885 286 897 299"},"ě":{"ha":764,"x_min":null,"x_max":null,"o":"m 315 844 b 204 992 275 893 239 940 b 188 1029 193 1007 188 1018 b 224 1060 188 1043 201 1060 b 282 1029 240 1060 258 1053 l 399 914 l 514 1029 b 572 1060 538 1053 556 1060 b 608 1029 594 1060 608 1043 b 592 992 608 1018 603 1007 b 481 844 556 942 519 893 b 397 808 457 818 443 808 b 315 844 353 808 339 818 m 703 190 b 735 156 722 190 735 172 b 721 121 735 146 731 135 b 404 -26 672 49 549 -26 b 42 340 201 -26 42 111 b 406 715 42 565 211 715 b 707 443 589 715 707 579 b 672 393 707 408 696 400 l 240 263 b 475 89 282 163 367 89 b 663 167 550 89 614 121 b 703 190 681 183 690 190 m 382 622 b 213 404 285 622 213 538 b 217 344 213 383 214 364 l 499 433 b 531 474 522 440 531 449 b 382 622 531 540 469 622"},"Ĝ":{"ha":1067,"x_min":null,"x_max":null,"o":"m 371 1060 b 335 1090 349 1060 335 1076 b 350 1128 335 1101 340 1113 b 463 1275 386 1178 422 1226 b 544 1311 485 1301 500 1311 b 626 1275 590 1311 604 1301 b 739 1128 668 1226 704 1179 b 756 1090 750 1113 756 1101 b 718 1060 756 1076 740 1060 b 661 1090 701 1060 683 1067 l 544 1208 l 428 1090 b 371 1060 406 1067 388 1060 m 1038 453 b 949 333 1038 397 949 428 l 949 161 b 983 71 949 97 983 104 b 942 29 983 51 972 40 b 600 -28 888 11 751 -28 b 51 472 281 -28 51 150 b 519 1011 51 790 275 1011 b 749 978 643 1011 715 978 b 814 1015 776 978 782 1015 b 875 943 842 1015 860 985 l 921 821 b 960 713 946 758 960 733 b 921 671 960 688 942 671 b 869 706 903 671 892 681 b 557 913 789 807 704 913 b 254 492 371 913 254 718 b 631 78 254 268 369 78 b 767 139 728 78 767 108 l 767 333 b 672 453 767 428 672 394 b 718 488 672 472 683 488 l 992 488 b 1038 453 1025 488 1038 472"},"ĝ":{"ha":811,"x_min":null,"x_max":null,"o":"m 596 147 b 817 -35 726 136 817 75 b 422 -265 817 -169 661 -265 b 31 -90 181 -265 31 -194 b 142 44 31 -35 72 14 b 64 153 94 67 64 104 b 167 294 64 207 113 258 b 57 467 97 332 57 392 b 410 714 57 599 181 714 b 510 706 446 714 479 711 b 558 801 522 744 539 776 b 506 832 542 803 525 811 l 389 950 l 272 832 b 215 801 250 808 232 801 b 179 832 193 801 179 818 b 194 869 179 843 185 854 b 307 1017 231 919 267 968 b 389 1053 329 1043 344 1053 b 471 1017 435 1053 449 1043 b 583 869 513 968 549 921 b 597 844 590 860 596 851 b 688 885 631 872 664 885 b 800 821 721 885 763 860 b 825 776 815 807 825 794 b 788 742 825 754 810 742 b 581 686 742 742 624 781 b 735 490 678 650 735 581 b 383 247 735 361 615 247 b 240 265 331 247 283 253 b 200 214 219 249 200 233 b 282 176 200 192 225 182 b 596 147 407 163 532 153 m 389 635 b 225 488 293 635 225 576 b 401 326 225 386 304 326 b 565 474 497 326 565 383 b 389 635 565 574 486 635 m 425 -187 b 656 -87 575 -187 656 -137 b 533 -10 656 -46 617 -19 b 236 24 417 3 331 13 b 175 -76 200 1 175 -36 b 425 -187 175 -153 271 -187"},"Ğ":{"ha":1067,"x_min":null,"x_max":null,"o":"m 542 1065 b 357 1203 454 1065 392 1115 b 339 1272 344 1229 339 1256 b 376 1307 339 1294 357 1307 b 433 1253 401 1307 415 1283 b 542 1167 463 1197 496 1167 b 651 1253 589 1167 622 1197 b 708 1307 669 1283 682 1307 b 746 1272 728 1307 746 1294 b 728 1203 746 1256 740 1229 b 542 1065 693 1115 631 1065 m 600 -28 b 51 472 281 -28 51 150 b 519 1011 51 790 275 1011 b 749 978 643 1011 715 978 b 814 1015 776 978 782 1015 b 875 943 842 1015 860 985 l 921 821 b 960 713 946 758 960 733 b 921 671 960 688 942 671 b 869 706 903 671 892 681 b 557 913 789 807 704 913 b 254 492 371 913 254 718 b 631 78 254 268 369 78 b 767 139 728 78 767 108 l 767 333 b 672 453 767 428 672 394 b 718 488 672 472 683 488 l 992 488 b 1038 453 1025 488 1038 472 b 949 333 1038 397 949 428 l 949 161 b 983 71 949 97 983 104 b 942 29 983 51 972 40 b 600 -28 888 11 751 -28"},"ğ":{"ha":811,"x_min":null,"x_max":null,"o":"m 386 807 b 201 944 299 807 236 857 b 183 1014 189 971 183 997 b 221 1049 183 1036 201 1049 b 278 994 246 1049 260 1025 b 386 908 307 939 340 908 b 496 994 433 908 467 939 b 553 1049 514 1025 526 1049 b 590 1014 572 1049 590 1036 b 572 944 590 997 585 971 b 386 807 538 857 475 807 m 596 147 b 817 -35 726 136 817 75 b 422 -265 817 -169 661 -265 b 31 -90 181 -265 31 -194 b 142 44 31 -35 72 14 b 64 153 94 67 64 104 b 167 294 64 207 113 258 b 57 467 97 332 57 392 b 410 714 57 599 181 714 b 510 706 446 714 479 711 b 688 885 550 833 640 885 b 800 821 721 885 763 860 b 825 776 815 807 825 794 b 788 742 825 754 810 742 b 581 686 742 742 624 781 b 735 490 678 650 735 581 b 383 247 735 361 615 247 b 240 265 331 247 283 253 b 200 214 219 249 200 233 b 282 176 200 192 225 182 b 596 147 407 163 532 153 m 389 635 b 225 488 293 635 225 576 b 401 326 225 386 304 326 b 565 474 497 326 565 383 b 389 635 565 574 486 635 m 425 -187 b 656 -87 575 -187 656 -137 b 533 -10 656 -46 617 -19 b 236 24 417 3 331 13 b 175 -76 200 1 175 -36 b 425 -187 175 -153 271 -187"},"Ġ":{"ha":1067,"x_min":null,"x_max":null,"o":"m 543 1078 b 444 1164 486 1078 444 1113 b 543 1254 444 1214 485 1254 b 642 1167 600 1254 642 1219 b 543 1078 642 1114 600 1078 m 600 -28 b 51 472 281 -28 51 150 b 519 1011 51 790 275 1011 b 749 978 643 1011 715 978 b 814 1015 776 978 782 1015 b 875 943 842 1015 860 985 l 921 821 b 960 713 946 758 960 733 b 921 671 960 688 942 671 b 869 706 903 671 892 681 b 557 913 789 807 704 913 b 254 492 371 913 254 718 b 631 78 254 268 369 78 b 767 139 728 78 767 108 l 767 333 b 672 453 767 428 672 394 b 718 488 672 472 683 488 l 992 488 b 1038 453 1025 488 1038 472 b 949 333 1038 397 949 428 l 949 161 b 983 71 949 97 983 104 b 942 29 983 51 972 40 b 600 -28 888 11 751 -28"},"ġ":{"ha":811,"x_min":null,"x_max":null,"o":"m 388 819 b 289 906 331 819 289 854 b 388 996 289 956 329 996 b 486 908 444 996 486 961 b 388 819 486 856 444 819 m 596 147 b 817 -35 726 136 817 75 b 422 -265 817 -169 661 -265 b 31 -90 181 -265 31 -194 b 142 44 31 -35 72 14 b 64 153 94 67 64 104 b 167 294 64 207 113 258 b 57 467 97 332 57 392 b 410 714 57 599 181 714 b 510 706 446 714 479 711 b 688 885 550 833 640 885 b 800 821 721 885 763 860 b 825 776 815 807 825 794 b 788 742 825 754 810 742 b 581 686 742 742 624 781 b 735 490 678 650 735 581 b 383 247 735 361 615 247 b 240 265 331 247 283 253 b 200 214 219 249 200 233 b 282 176 200 192 225 182 b 596 147 407 163 532 153 m 389 635 b 225 488 293 635 225 576 b 401 326 225 386 304 326 b 565 474 497 326 565 383 b 389 635 565 574 486 635 m 425 -187 b 656 -87 575 -187 656 -137 b 533 -10 656 -46 617 -19 b 236 24 417 3 331 13 b 175 -76 200 1 175 -36 b 425 -187 175 -153 271 -187"},"Ģ":{"ha":1067,"x_min":null,"x_max":null,"o":"m 600 -28 b 51 472 281 -28 51 150 b 519 1011 51 790 275 1011 b 749 978 643 1011 715 978 b 814 1015 776 978 782 1015 b 875 943 842 1015 860 985 l 921 821 b 960 713 946 758 960 733 b 921 671 960 688 942 671 b 869 706 903 671 892 681 b 557 913 789 807 704 913 b 254 492 371 913 254 718 b 631 78 254 268 369 78 b 767 139 728 78 767 108 l 767 333 b 672 453 767 428 672 394 b 718 488 672 472 683 488 l 992 488 b 1038 453 1025 488 1038 472 b 949 333 1038 397 949 428 l 949 161 b 983 71 949 97 983 104 b 942 29 983 51 972 40 b 600 -28 888 11 751 -28 m 511 -347 b 483 -324 494 -347 483 -337 b 504 -292 483 -310 493 -301 b 553 -225 522 -278 553 -251 b 518 -194 553 -210 535 -201 b 474 -132 496 -183 474 -169 b 568 -56 474 -89 517 -56 b 660 -146 628 -56 660 -86 b 511 -347 660 -247 560 -347"},"ģ":{"ha":811,"x_min":null,"x_max":null,"o":"m 385 740 b 300 825 329 740 300 768 b 440 1017 300 922 394 1017 b 467 993 456 1017 467 1007 b 446 964 467 981 457 974 b 401 901 429 950 401 925 b 433 871 401 886 418 878 b 475 813 454 861 475 847 b 385 740 475 772 435 740 m 596 147 b 817 -35 726 136 817 75 b 422 -265 817 -169 661 -265 b 31 -90 181 -265 31 -194 b 142 44 31 -35 72 14 b 64 153 94 67 64 104 b 167 294 64 207 113 258 b 57 467 97 332 57 392 b 410 714 57 599 181 714 b 510 706 446 714 479 711 b 688 885 550 833 640 885 b 800 821 721 885 763 860 b 825 776 815 807 825 794 b 788 742 825 754 810 742 b 581 686 742 742 624 781 b 735 490 678 650 735 581 b 383 247 735 361 615 247 b 240 265 331 247 283 253 b 200 214 219 249 200 233 b 282 176 200 192 225 182 b 596 147 407 163 532 153 m 389 635 b 225 488 293 635 225 576 b 401 326 225 386 304 326 b 565 474 497 326 565 383 b 389 635 565 574 486 635 m 425 -187 b 656 -87 575 -187 656 -137 b 533 -10 656 -46 617 -19 b 236 24 417 3 331 13 b 175 -76 200 1 175 -36 b 425 -187 175 -153 271 -187"},"Ĥ":{"ha":1139,"x_min":null,"x_max":null,"o":"m 397 1060 b 361 1090 375 1060 361 1076 b 376 1128 361 1101 367 1113 b 489 1275 413 1178 449 1226 b 571 1311 511 1301 526 1311 b 653 1275 617 1311 631 1301 b 765 1128 694 1226 731 1179 b 782 1090 776 1113 782 1101 b 744 1060 782 1076 767 1060 b 688 1090 728 1060 710 1067 l 571 1208 l 454 1090 b 397 1060 432 1067 414 1060 m 993 150 b 1082 29 993 54 1082 86 b 1039 -4 1082 13 1069 -4 b 900 0 1006 -4 965 0 b 761 -4 835 0 794 -4 b 719 29 732 -4 719 13 b 808 150 719 86 808 54 l 808 422 b 768 456 808 446 800 456 l 371 456 b 331 422 339 456 331 446 l 331 150 b 419 29 331 54 419 86 b 378 -4 419 13 408 -4 b 238 0 344 -4 303 0 b 100 -4 172 0 133 -4 b 58 29 69 -4 58 13 b 147 150 58 86 147 54 l 147 836 b 58 957 147 932 58 900 b 103 990 58 974 72 990 b 238 986 136 990 172 986 b 378 990 303 986 344 990 b 419 957 408 990 419 974 b 331 836 419 900 331 932 l 331 579 b 371 546 331 556 339 546 l 768 546 b 808 579 800 546 808 556 l 808 836 b 719 957 808 932 719 900 b 761 990 719 974 732 990 b 900 986 794 990 835 986 b 1039 990 965 986 1006 990 b 1082 957 1069 990 1082 974 b 993 836 1082 900 993 932 l 993 150"},"ĥ":{"ha":869,"x_min":null,"x_max":null,"o":"m 82 1111 b 25 1081 60 1088 42 1081 b -11 1111 3 1081 -11 1097 b 4 1149 -11 1122 -6 1133 b 117 1296 40 1199 76 1247 b 199 1332 139 1322 154 1332 b 281 1296 244 1332 258 1322 b 393 1149 322 1247 358 1200 b 410 1111 404 1133 410 1122 b 372 1081 410 1097 394 1081 b 315 1111 356 1081 338 1088 l 199 1229 l 82 1111 m 774 171 b 871 28 790 43 871 85 b 826 -4 871 8 853 -4 b 697 0 790 -4 761 0 b 568 -4 631 0 604 -4 b 521 31 538 -4 521 11 b 608 131 521 81 608 56 b 606 171 608 146 607 160 l 574 394 b 439 572 561 478 532 572 b 288 375 367 572 288 515 l 288 156 b 374 29 288 49 374 83 b 335 -4 374 14 361 -4 b 204 0 303 -4 264 0 b 76 -4 144 0 107 -4 b 36 29 47 -4 36 13 b 121 156 36 83 121 49 l 121 829 b 25 931 121 915 25 872 b 140 1014 25 957 56 974 b 253 1056 221 1051 238 1056 b 288 1007 279 1056 288 1033 l 288 568 b 514 704 332 640 407 704 b 739 431 669 704 721 561 l 774 171"},"Ħ":{"ha":1147,"x_min":null,"x_max":null,"o":"m 996 681 l 996 150 b 1085 29 996 54 1085 86 b 1043 -4 1085 13 1072 -4 b 904 0 1010 -4 969 0 b 765 -4 839 0 799 -4 b 722 29 735 -4 722 13 b 811 150 722 86 811 54 l 811 422 b 771 456 811 446 804 456 l 375 456 b 335 422 343 456 335 446 l 335 150 b 424 29 335 54 424 86 b 382 -4 424 13 411 -4 b 242 0 349 -4 307 0 b 103 -4 176 0 136 -4 b 61 29 74 -4 61 13 b 150 150 61 86 150 54 l 150 681 l 72 681 b 24 725 36 681 24 694 b 72 771 24 756 36 771 l 150 771 l 150 836 b 61 957 150 932 61 900 b 106 990 61 974 76 990 b 242 986 139 990 176 986 b 382 990 307 986 349 990 b 424 957 411 990 424 974 b 335 836 424 900 335 932 l 335 768 l 811 768 l 811 836 b 722 957 811 932 722 900 b 765 990 722 974 735 990 b 904 986 799 990 839 986 b 1043 990 969 986 1010 990 b 1085 957 1072 990 1085 974 b 996 836 1085 900 996 932 l 996 771 l 1079 771 b 1128 725 1114 771 1128 756 b 1079 681 1128 694 1114 681 m 771 546 b 811 579 804 546 811 556 l 811 683 l 335 683 l 335 579 b 375 546 335 556 343 546 l 771 546"},"ħ":{"ha":868,"x_min":null,"x_max":null,"o":"m 774 171 b 871 28 792 43 871 85 b 826 -4 871 8 853 -4 b 697 0 790 -4 761 0 b 568 -4 631 0 604 -4 b 521 31 538 -4 521 11 b 608 131 521 81 608 56 b 606 171 608 146 607 160 l 574 374 b 439 550 560 457 532 550 b 288 353 367 550 288 493 l 288 156 b 374 29 288 49 374 83 b 335 -4 374 14 361 -4 b 204 0 303 -4 264 0 b 76 -4 144 0 107 -4 b 36 29 47 -4 36 13 b 121 156 36 83 121 49 l 121 751 l 36 751 b -12 794 1 751 -12 767 b 36 836 -12 821 1 836 l 121 836 b 25 936 119 919 25 879 b 138 1017 25 961 51 978 b 253 1056 218 1053 238 1056 b 288 1007 279 1056 288 1033 l 288 836 l 479 836 b 528 794 515 836 528 821 b 479 751 528 767 515 751 l 288 751 l 288 547 b 514 682 332 619 407 682 b 739 408 669 682 718 540 l 774 171"},"Ĩ":{"ha":478,"x_min":null,"x_max":null,"o":"m 319 1076 b 142 1181 239 1076 175 1181 b 96 1135 126 1181 111 1163 b 49 1089 81 1108 72 1089 b 15 1124 28 1089 15 1101 b 25 1169 15 1132 18 1149 b 143 1281 44 1226 88 1281 b 322 1175 224 1281 282 1175 b 368 1222 338 1175 351 1190 b 415 1268 383 1249 390 1268 b 449 1233 436 1268 449 1256 b 439 1186 449 1224 446 1207 b 319 1076 418 1128 376 1076 m 100 -4 b 58 29 69 -4 58 13 b 147 150 58 86 147 54 l 147 836 b 58 957 147 932 58 900 b 103 990 58 974 72 990 b 238 986 136 990 172 986 b 378 990 303 986 344 990 b 419 957 408 990 419 974 b 331 836 419 900 331 932 l 331 150 b 419 29 331 54 419 86 b 378 -4 419 13 408 -4 b 238 0 344 -4 303 0 b 100 -4 172 0 133 -4"},"ĩ":{"ha":422,"x_min":null,"x_max":null,"o":"m 294 818 b 117 922 214 818 150 922 b 71 876 101 922 86 904 b 24 831 56 850 47 831 b -10 865 3 831 -10 843 b 0 911 -10 874 -7 890 b 118 1022 19 968 63 1022 b 297 917 199 1022 257 917 b 343 964 313 917 326 932 b 390 1010 358 990 365 1010 b 424 975 411 1010 424 997 b 414 928 424 965 421 949 b 294 818 393 869 351 818 m 90 -4 b 51 29 63 -4 51 13 b 136 156 51 83 136 49 l 136 472 b 40 575 136 560 40 517 b 156 657 40 600 69 618 b 265 699 236 694 253 699 b 303 642 293 699 303 676 l 303 156 b 389 29 303 49 389 83 b 350 -4 389 14 376 -4 b 219 0 318 -4 279 0 b 90 -4 160 0 122 -4"},"Ī":{"ha":478,"x_min":null,"x_max":null,"o":"m 64 1125 b 22 1175 33 1125 22 1142 b 64 1224 22 1207 33 1224 l 229 1222 b 397 1224 271 1222 365 1224 b 439 1175 426 1224 439 1207 b 397 1125 439 1142 426 1125 b 231 1128 361 1125 271 1128 b 64 1125 190 1128 96 1125 m 100 -4 b 58 29 69 -4 58 13 b 147 150 58 86 147 54 l 147 836 b 58 957 147 932 58 900 b 103 990 58 974 72 990 b 238 986 136 990 172 986 b 378 990 303 986 344 990 b 419 957 408 990 419 974 b 331 836 419 900 331 932 l 331 150 b 419 29 331 54 419 86 b 378 -4 419 13 408 -4 b 238 0 344 -4 303 0 b 100 -4 172 0 133 -4"},"ī":{"ha":422,"x_min":null,"x_max":null,"o":"m 39 867 b -3 917 8 867 -3 883 b 39 965 -3 949 8 965 l 204 964 b 372 965 246 964 340 965 b 414 917 401 965 414 949 b 372 867 414 883 401 867 b 206 869 336 867 246 869 b 39 867 165 869 71 867 m 90 -4 b 51 29 63 -4 51 13 b 136 156 51 83 136 49 l 136 472 b 40 575 136 560 40 517 b 156 657 40 600 69 618 b 265 699 236 694 253 699 b 303 642 293 699 303 676 l 303 156 b 389 29 303 49 389 83 b 350 -4 389 14 376 -4 b 219 0 318 -4 279 0 b 90 -4 160 0 122 -4"},"Ĭ":{"ha":478,"x_min":null,"x_max":null,"o":"m 231 1065 b 46 1203 143 1065 81 1115 b 28 1272 33 1229 28 1256 b 65 1307 28 1294 46 1307 b 122 1253 90 1307 104 1283 b 231 1167 151 1197 185 1167 b 340 1253 278 1167 311 1197 b 397 1307 358 1283 371 1307 b 435 1272 417 1307 435 1294 b 417 1203 435 1256 429 1229 b 231 1065 382 1115 319 1065 m 100 -4 b 58 29 69 -4 58 13 b 147 150 58 86 147 54 l 147 836 b 58 957 147 932 58 900 b 103 990 58 974 72 990 b 238 986 136 990 172 986 b 378 990 303 986 344 990 b 419 957 408 990 419 974 b 331 836 419 900 331 932 l 331 150 b 419 29 331 54 419 86 b 378 -4 419 13 408 -4 b 238 0 344 -4 303 0 b 100 -4 172 0 133 -4"},"ĭ":{"ha":422,"x_min":null,"x_max":null,"o":"m 206 807 b 21 944 118 807 56 857 b 3 1014 8 971 3 997 b 40 1049 3 1036 21 1049 b 97 994 65 1049 79 1025 b 206 908 126 939 160 908 b 315 994 253 908 286 939 b 372 1049 333 1025 346 1049 b 410 1014 392 1049 410 1036 b 392 944 410 997 404 971 b 206 807 357 857 294 807 m 90 -4 b 51 29 63 -4 51 13 b 136 156 51 83 136 49 l 136 472 b 40 575 136 560 40 517 b 156 657 40 600 69 618 b 265 699 236 694 253 699 b 303 642 293 699 303 676 l 303 156 b 389 29 303 49 389 83 b 350 -4 389 14 376 -4 b 219 0 318 -4 279 0 b 90 -4 160 0 122 -4"},"Į":{"ha":478,"x_min":null,"x_max":null,"o":"m 331 150 b 419 29 331 54 419 86 b 378 -4 419 13 408 -4 b 289 -1 354 -4 326 -1 b 215 -149 243 -49 215 -93 b 254 -203 215 -185 232 -203 b 290 -193 269 -203 279 -199 b 311 -185 297 -190 304 -185 b 336 -211 325 -185 336 -197 b 317 -246 336 -225 329 -235 b 219 -278 294 -264 261 -278 b 113 -168 161 -278 113 -236 b 208 0 113 -110 146 -54 b 100 -4 160 -1 128 -4 b 58 29 69 -4 58 13 b 147 150 58 86 147 54 l 147 836 b 58 957 147 932 58 900 b 103 990 58 974 72 990 b 238 986 136 990 172 986 b 378 990 303 986 344 990 b 419 957 408 990 419 974 b 331 836 419 900 331 932 l 331 150"},"į":{"ha":422,"x_min":null,"x_max":null,"o":"m 175 822 b 86 901 125 822 86 853 b 233 1029 86 963 150 1029 b 325 947 283 1029 325 997 b 175 822 325 886 257 822 m 303 156 b 389 29 303 49 389 83 b 350 -4 389 14 376 -4 b 279 -1 331 -4 308 -3 b 207 -149 235 -49 207 -93 b 246 -203 207 -185 224 -203 b 282 -193 261 -203 271 -199 b 303 -185 289 -190 296 -185 b 326 -211 317 -185 326 -197 b 308 -246 326 -225 321 -235 b 211 -278 286 -264 253 -278 b 104 -168 153 -278 104 -236 b 200 0 104 -110 138 -54 b 90 -4 151 -1 118 -4 b 51 29 63 -4 51 13 b 136 156 51 83 136 49 l 136 472 b 40 575 136 560 40 517 b 156 657 40 600 69 618 b 265 699 236 694 253 699 b 303 642 293 699 303 676 l 303 156"},"İ":{"ha":478,"x_min":null,"x_max":null,"o":"m 232 1078 b 133 1164 175 1078 133 1113 b 232 1254 133 1214 174 1254 b 331 1167 289 1254 331 1219 b 232 1078 331 1114 289 1078 m 100 -4 b 58 29 69 -4 58 13 b 147 150 58 86 147 54 l 147 836 b 58 957 147 932 58 900 b 103 990 58 974 72 990 b 238 986 136 990 172 986 b 378 990 303 986 344 990 b 419 957 408 990 419 974 b 331 836 419 900 331 932 l 331 150 b 419 29 331 54 419 86 b 378 -4 419 13 408 -4 b 238 0 344 -4 303 0 b 100 -4 172 0 133 -4"},"ı":{"ha":422,"x_min":null,"x_max":null,"o":"m 90 -4 b 51 29 63 -4 51 13 b 136 156 51 83 136 49 l 136 472 b 40 575 136 560 40 517 b 156 657 40 600 69 618 b 265 699 236 694 253 699 b 303 642 293 699 303 676 l 303 156 b 389 29 303 49 389 83 b 350 -4 389 14 376 -4 b 219 0 318 -4 279 0 b 90 -4 160 0 122 -4"},"Ĳ":{"ha":1193,"x_min":null,"x_max":null,"o":"m 100 -4 b 58 29 69 -4 58 13 b 147 150 58 86 147 54 l 147 836 b 58 957 147 932 58 900 b 103 990 58 974 72 990 b 238 986 136 990 172 986 b 378 990 303 986 344 990 b 419 957 408 990 419 974 b 331 836 419 900 331 932 l 331 150 b 419 29 331 54 419 86 b 378 -4 419 13 408 -4 b 238 0 344 -4 303 0 b 100 -4 172 0 133 -4 m 769 -19 b 489 113 626 -19 489 40 b 532 283 489 138 500 189 b 579 329 543 314 561 331 b 618 288 601 329 614 314 b 760 75 639 139 675 75 b 881 225 836 75 881 138 l 879 836 b 779 957 881 932 779 897 b 822 990 779 974 793 990 b 971 986 858 990 901 986 b 1111 990 1036 986 1078 990 b 1153 957 1140 990 1153 974 b 1064 836 1153 900 1064 932 l 1064 233 b 769 -19 1064 65 951 -19"},"ĳ":{"ha":810,"x_min":null,"x_max":null,"o":"m 175 822 b 86 901 125 822 86 853 b 233 1029 86 963 150 1029 b 325 947 283 1029 325 997 b 175 822 325 886 257 822 m 586 822 b 497 901 536 822 497 853 b 643 1029 497 963 561 1029 b 736 947 693 1029 736 997 b 586 822 736 886 668 822 m 90 -4 b 51 29 63 -4 51 13 b 136 156 51 83 136 49 l 136 472 b 40 575 136 560 40 517 b 156 657 40 600 69 618 b 265 699 236 694 253 699 b 303 642 293 699 303 676 l 303 156 b 389 29 303 49 389 83 b 350 -4 389 14 376 -4 b 219 0 318 -4 279 0 b 90 -4 160 0 122 -4 m 551 -129 b 546 -12 551 -96 546 -60 l 546 472 b 451 575 546 560 451 517 b 567 657 451 600 482 618 b 676 699 647 694 664 699 b 713 642 704 699 713 676 l 713 -6 b 456 -267 713 -172 586 -267 b 372 -189 392 -267 374 -242 b 421 -71 371 -131 383 -71 b 453 -99 436 -71 443 -81 b 521 -171 478 -149 497 -171 b 551 -129 538 -171 551 -158"},"Ĵ":{"ha":715,"x_min":null,"x_max":null,"o":"m 679 1128 b 696 1090 690 1113 696 1101 b 658 1060 696 1076 681 1060 b 601 1090 642 1060 624 1067 l 485 1208 l 368 1090 b 311 1060 346 1067 328 1060 b 275 1090 289 1060 275 1076 b 290 1128 275 1101 281 1113 b 403 1275 326 1178 363 1226 b 485 1311 425 1301 440 1311 b 567 1275 531 1311 544 1301 b 679 1128 608 1226 644 1179 m 633 990 b 675 957 663 990 675 974 b 586 836 675 900 586 932 l 586 233 b 292 -19 586 65 474 -19 b 11 113 149 -19 11 40 b 54 283 11 138 22 189 b 101 329 65 314 83 331 b 140 288 124 329 136 314 b 282 75 161 139 197 75 b 403 225 358 75 403 138 l 401 836 b 301 957 403 932 301 897 b 344 990 301 974 315 990 b 493 986 381 990 424 986 b 633 990 558 986 600 990"},"ĵ":{"ha":388,"x_min":null,"x_max":null,"o":"m 390 869 b 407 832 401 854 407 843 b 369 801 407 818 392 801 b 313 832 353 801 335 808 l 196 950 l 79 832 b 22 801 57 808 39 801 b -14 832 0 801 -14 818 b 1 869 -14 843 -8 854 b 114 1017 38 919 74 968 b 196 1053 136 1043 151 1053 b 278 1017 242 1053 256 1043 b 390 869 319 968 356 921 m 254 699 b 290 642 282 699 290 676 l 290 -6 b 33 -267 290 -172 164 -267 b -50 -189 -31 -267 -49 -242 b -1 -71 -51 -131 -39 -71 b 31 -99 14 -71 21 -81 b 99 -171 56 -149 75 -171 b 129 -129 115 -171 129 -158 b 124 -12 129 -96 124 -60 l 124 472 b 29 575 124 560 29 517 b 144 657 29 600 60 618 b 254 699 225 694 242 699"},"Ķ":{"ha":1032,"x_min":null,"x_max":null,"o":"m 928 135 b 1042 28 975 63 1042 79 b 1003 -4 1042 10 1028 -4 b 850 0 976 -4 915 0 b 697 -4 785 0 738 -4 b 649 31 663 -4 649 10 b 724 115 649 79 724 64 b 706 163 724 128 718 144 l 478 515 l 331 379 l 331 150 b 419 29 331 54 419 86 b 378 -4 419 13 408 -4 b 238 0 344 -4 303 0 b 100 -4 172 0 133 -4 b 58 29 69 -4 58 13 b 147 150 58 86 147 54 l 147 836 b 58 957 147 932 58 900 b 103 990 58 974 72 990 b 238 986 136 990 172 986 b 378 990 303 986 344 990 b 419 957 408 990 419 974 b 331 836 419 900 331 932 l 331 510 l 678 835 b 715 890 701 858 715 869 b 650 954 715 925 650 910 b 701 989 650 978 669 989 b 832 985 740 989 790 985 b 969 989 874 985 939 989 b 1004 958 990 989 1004 976 b 860 868 1004 906 921 925 l 607 635 l 928 135 m 525 -56 b 617 -146 585 -56 617 -86 b 468 -347 617 -247 517 -347 b 440 -324 451 -347 440 -337 b 461 -292 440 -310 450 -301 b 510 -225 479 -278 510 -251 b 475 -194 510 -210 492 -201 b 431 -132 453 -183 431 -169 b 525 -56 431 -89 474 -56"},"ķ":{"ha":854,"x_min":null,"x_max":null,"o":"m 772 114 b 868 26 808 57 868 71 b 831 -4 868 7 851 -4 b 688 0 794 -4 753 0 b 558 -4 628 0 592 -4 b 513 29 529 -4 513 7 b 578 108 513 75 578 57 b 557 157 578 121 571 136 l 428 364 l 288 247 l 288 156 b 374 29 288 49 374 83 b 335 -4 374 14 361 -4 b 204 0 303 -4 264 0 b 76 -4 144 0 107 -4 b 36 29 47 -4 36 13 b 121 156 36 83 121 49 l 121 829 b 25 931 121 915 25 872 b 140 1014 25 957 56 974 b 253 1056 221 1051 238 1056 b 288 1007 279 1056 288 1033 l 288 353 l 508 546 b 544 596 531 565 544 578 b 485 660 544 631 485 615 b 529 693 485 682 500 693 b 643 689 557 693 606 689 b 779 693 681 689 749 693 b 818 661 801 693 818 681 b 675 571 818 611 739 625 l 546 463 l 772 114 m 450 -56 b 542 -146 510 -56 542 -86 b 393 -347 542 -247 442 -347 b 365 -324 376 -347 365 -337 b 386 -292 365 -310 375 -301 b 435 -225 404 -278 435 -251 b 400 -194 435 -210 417 -201 b 356 -132 378 -183 356 -169 b 450 -56 356 -89 399 -56"},"ĸ":{"ha":868,"x_min":null,"x_max":null,"o":"m 788 114 b 883 26 824 57 883 71 b 844 -4 883 7 867 -4 b 703 0 808 -4 768 0 b 572 -4 642 0 606 -4 b 528 29 544 -4 528 7 b 593 108 528 75 593 57 b 575 153 593 122 586 136 l 443 364 l 303 247 l 303 156 b 389 29 303 49 389 83 b 350 -4 389 14 376 -4 b 219 0 318 -4 279 0 b 90 -4 160 0 122 -4 b 51 29 63 -4 51 13 b 136 156 51 83 136 49 l 136 472 b 40 575 136 560 40 517 b 156 657 40 600 69 618 b 265 699 236 694 253 699 b 303 642 293 699 303 676 l 303 353 l 524 546 b 560 596 546 565 560 578 b 499 660 560 631 499 615 b 543 693 499 682 515 693 b 658 689 572 693 621 689 b 794 693 694 689 763 693 b 833 661 817 693 833 681 b 690 571 833 611 753 625 l 561 463 l 788 114"},"Ĺ":{"ha":894,"x_min":null,"x_max":null,"o":"m 254 1049 b 221 1071 233 1049 221 1058 b 233 1106 221 1081 225 1092 b 340 1276 275 1176 308 1228 b 418 1308 357 1300 372 1308 b 492 1279 476 1308 492 1301 b 444 1208 492 1260 478 1242 b 314 1078 414 1179 354 1115 b 254 1049 290 1054 272 1049 m 733 -31 b 639 0 696 -31 692 0 l 238 0 b 103 -4 175 0 129 -4 b 58 31 69 -4 58 11 b 147 150 58 86 147 54 l 147 836 b 58 957 147 932 58 900 b 103 990 58 974 72 990 b 238 986 136 990 172 986 b 378 990 303 986 344 990 b 419 957 408 990 419 974 b 331 836 419 900 331 932 l 331 147 b 390 90 331 107 349 90 l 528 90 b 808 269 635 90 707 163 b 863 306 831 292 843 306 b 897 268 881 306 897 290 b 858 160 897 243 888 219 l 797 31 b 733 -31 778 -10 761 -31"},"ĺ":{"ha":407,"x_min":null,"x_max":null,"o":"m 147 1092 b 114 1114 126 1092 114 1101 b 126 1149 114 1124 118 1135 b 233 1319 168 1219 201 1271 b 311 1351 250 1343 265 1351 b 385 1322 369 1351 385 1344 b 338 1251 385 1303 371 1285 b 207 1121 307 1222 247 1158 b 147 1092 183 1097 165 1092 m 76 -4 b 36 29 47 -4 36 13 b 121 156 36 83 121 49 l 121 829 b 25 931 121 915 25 872 b 140 1014 25 957 56 974 b 251 1056 221 1051 238 1056 b 288 997 279 1056 288 1032 l 288 156 b 374 29 288 49 374 83 b 335 -4 374 14 361 -4 b 204 0 303 -4 264 0 b 76 -4 144 0 107 -4"},"Ļ":{"ha":894,"x_min":null,"x_max":null,"o":"m 733 -31 b 639 0 696 -31 692 0 l 238 0 b 103 -4 175 0 129 -4 b 58 31 69 -4 58 11 b 147 150 58 86 147 54 l 147 836 b 58 957 147 932 58 900 b 103 990 58 974 72 990 b 238 986 136 990 172 986 b 378 990 303 986 344 990 b 419 957 408 990 419 974 b 331 836 419 900 331 932 l 331 147 b 390 90 331 107 349 90 l 528 90 b 808 269 635 90 707 163 b 863 306 831 292 843 306 b 897 268 881 306 897 290 b 858 160 897 243 888 219 l 797 31 b 733 -31 778 -10 761 -31 m 417 -347 b 389 -324 400 -347 389 -337 b 410 -292 389 -310 399 -301 b 458 -225 428 -278 458 -251 b 424 -194 458 -210 440 -201 b 379 -132 401 -183 379 -169 b 474 -56 379 -89 422 -56 b 565 -146 533 -56 565 -86 b 417 -347 565 -247 465 -347"},"ļ":{"ha":407,"x_min":null,"x_max":null,"o":"m 76 -4 b 36 29 47 -4 36 13 b 121 156 36 83 121 49 l 121 829 b 25 931 121 915 25 872 b 140 1014 25 957 56 974 b 251 1056 221 1051 238 1056 b 288 997 279 1056 288 1032 l 288 156 b 374 29 288 49 374 83 b 335 -4 374 14 361 -4 b 204 0 303 -4 264 0 b 76 -4 144 0 107 -4 m 157 -347 b 129 -324 140 -347 129 -337 b 150 -292 129 -310 139 -301 b 199 -225 168 -278 199 -251 b 164 -194 199 -210 181 -201 b 119 -132 142 -183 119 -169 b 214 -56 119 -89 163 -56 b 306 -146 274 -56 306 -86 b 157 -347 306 -247 206 -347"},"Ľ":{"ha":894,"x_min":null,"x_max":null,"o":"m 513 682 b 481 714 492 682 481 690 l 482 1000 b 526 1042 482 1032 492 1042 b 592 1000 571 1042 592 1029 b 554 718 592 925 571 790 b 513 682 547 694 535 682 m 733 -31 b 639 0 696 -31 692 0 l 238 0 b 103 -4 175 0 129 -4 b 58 31 69 -4 58 11 b 147 150 58 86 147 54 l 147 836 b 58 957 147 932 58 900 b 103 990 58 974 72 990 b 238 986 136 990 172 986 b 378 990 303 986 344 990 b 419 957 408 990 419 974 b 331 836 419 900 331 932 l 331 147 b 390 90 331 107 349 90 l 528 90 b 808 269 635 90 707 163 b 863 306 831 292 843 306 b 897 268 881 306 897 290 b 858 160 897 243 888 219 l 797 31 b 733 -31 778 -10 761 -31"},"ľ":{"ha":407,"x_min":null,"x_max":null,"o":"m 413 722 b 381 754 392 722 381 731 l 382 1040 b 426 1082 382 1072 392 1082 b 492 1040 471 1082 492 1069 b 454 758 492 965 471 831 b 413 722 447 735 435 722 m 76 -4 b 36 29 47 -4 36 13 b 121 156 36 83 121 49 l 121 829 b 25 931 121 915 25 872 b 140 1014 25 957 56 974 b 251 1056 221 1051 238 1056 b 288 997 279 1056 288 1032 l 288 156 b 374 29 288 49 374 83 b 335 -4 374 14 361 -4 b 204 0 303 -4 264 0 b 76 -4 144 0 107 -4"},"Ŀ":{"ha":896,"x_min":null,"x_max":null,"o":"m 733 -31 b 639 0 696 -31 692 0 l 238 0 b 103 -4 175 0 129 -4 b 58 31 69 -4 58 11 b 147 150 58 86 147 54 l 147 836 b 58 957 147 932 58 900 b 103 990 58 974 72 990 b 238 986 136 990 172 986 b 378 990 303 986 344 990 b 419 957 408 990 419 974 b 331 836 419 900 331 932 l 331 147 b 390 90 331 107 349 90 l 528 90 b 808 269 635 90 707 163 b 863 306 831 292 843 306 b 897 268 881 306 897 290 b 858 160 897 243 888 219 l 797 31 b 733 -31 778 -10 761 -31 m 675 610 b 771 528 732 610 771 579 b 661 436 771 476 725 436 b 567 518 604 436 567 467 b 675 610 567 569 611 610"},"ŀ":{"ha":467,"x_min":null,"x_max":null,"o":"m 76 -4 b 36 29 47 -4 36 13 b 121 156 36 83 121 49 l 121 829 b 25 931 121 915 25 872 b 140 1014 25 957 56 974 b 251 1056 221 1051 238 1056 b 288 997 279 1056 288 1032 l 288 156 b 374 29 288 49 374 83 b 335 -4 374 14 361 -4 b 204 0 303 -4 264 0 b 76 -4 144 0 107 -4 m 444 579 b 538 499 499 579 538 549 b 431 408 538 449 492 408 b 338 490 375 408 338 439 b 444 579 338 539 382 579"},"Ł":{"ha":926,"x_min":null,"x_max":null,"o":"m 893 306 b 929 268 911 306 929 290 b 890 160 929 243 918 219 l 829 31 b 764 -31 810 -10 793 -31 b 671 0 728 -31 722 0 l 269 0 b 135 -4 206 0 160 -4 b 89 31 101 -4 89 11 b 178 150 89 86 178 54 l 178 396 l 117 365 b 86 356 106 360 96 356 b 47 407 68 356 47 378 b 76 446 47 422 56 435 l 178 497 l 178 836 b 89 957 178 932 89 900 b 133 990 89 974 104 990 b 269 986 167 990 204 986 b 410 990 335 986 376 990 b 451 957 439 990 451 974 b 363 836 451 900 363 932 l 363 592 l 528 675 b 558 683 539 681 549 683 b 599 633 576 683 599 663 b 569 594 599 617 589 606 l 363 490 l 363 147 b 421 90 363 107 379 90 l 558 90 b 840 269 667 90 739 163 b 893 306 861 292 874 306"},"ł":{"ha":475,"x_min":null,"x_max":null,"o":"m 424 642 b 463 596 442 642 463 621 b 432 558 463 581 453 569 l 322 503 l 322 156 b 408 29 322 49 408 83 b 369 -4 408 14 396 -4 b 239 0 338 -4 299 0 b 111 -4 179 0 142 -4 b 71 29 82 -4 71 13 b 156 156 71 83 156 49 l 156 417 l 94 386 b 64 378 83 381 75 378 b 29 422 46 378 29 399 b 57 461 29 439 36 450 l 156 511 l 156 829 b 60 931 156 915 60 872 b 175 1014 60 957 90 974 b 286 1056 257 1051 272 1056 b 322 997 314 1056 322 1032 l 322 596 l 394 632 b 424 642 406 639 414 642"},"Ń":{"ha":1081,"x_min":null,"x_max":null,"o":"m 503 1049 b 469 1071 482 1049 469 1058 b 482 1106 469 1081 474 1092 b 589 1276 524 1176 557 1228 b 667 1308 606 1300 621 1308 b 740 1279 725 1308 740 1301 b 693 1208 740 1260 726 1242 b 563 1078 663 1179 603 1115 b 503 1049 539 1054 521 1049 m 994 990 b 1039 957 1025 990 1039 975 b 946 836 1039 900 946 932 l 946 36 b 899 -12 946 3 924 -12 b 831 28 867 -12 850 4 l 258 754 l 258 150 b 369 29 258 57 369 94 b 324 -4 369 10 354 -4 b 207 0 288 -4 242 0 b 99 -4 174 0 133 -4 b 56 31 69 -4 56 13 b 147 150 56 86 147 54 l 147 836 b 56 956 147 932 56 900 b 103 990 56 975 71 990 b 190 988 129 990 157 988 b 263 989 222 988 242 989 b 329 954 286 989 307 982 l 836 308 l 836 836 b 724 957 836 929 724 892 b 771 990 724 975 742 990 b 888 986 808 990 844 986 b 994 990 925 986 961 990"},"ń":{"ha":885,"x_min":null,"x_max":null,"o":"m 394 790 b 361 813 374 790 361 800 b 374 847 361 822 365 833 b 481 1018 415 918 449 969 b 558 1050 497 1042 513 1050 b 632 1021 617 1050 632 1043 b 585 950 632 1001 618 983 b 454 819 554 921 494 857 b 394 790 431 796 413 790 m 789 171 b 885 29 806 43 885 85 b 842 -4 885 8 867 -4 b 713 0 806 -4 776 0 b 582 -4 646 0 619 -4 b 536 31 551 -4 536 11 b 624 135 536 81 624 54 b 618 188 624 147 621 167 l 589 394 b 454 572 576 478 547 572 b 303 375 382 572 303 515 l 303 156 b 389 29 303 49 389 83 b 350 -4 389 14 376 -4 b 219 0 318 -4 279 0 b 90 -4 160 0 122 -4 b 51 29 63 -4 51 13 b 136 156 51 83 136 49 l 136 472 b 40 575 136 560 40 517 b 156 657 40 600 69 618 b 265 699 236 694 253 699 b 303 642 293 699 303 676 l 303 568 b 529 704 347 640 422 704 b 753 431 683 704 736 561 l 789 171"},"Ņ":{"ha":1081,"x_min":null,"x_max":null,"o":"m 994 990 b 1039 957 1025 990 1039 975 b 946 836 1039 900 946 932 l 946 36 b 899 -12 946 3 924 -12 b 831 28 867 -12 850 4 l 258 754 l 258 150 b 369 29 258 57 369 94 b 324 -4 369 10 354 -4 b 207 0 288 -4 242 0 b 99 -4 174 0 133 -4 b 56 31 69 -4 56 13 b 147 150 56 86 147 54 l 147 836 b 56 956 147 932 56 900 b 103 990 56 975 71 990 b 190 988 129 990 157 988 b 263 989 222 988 242 989 b 329 954 286 989 307 982 l 836 308 l 836 836 b 724 957 836 929 724 892 b 771 990 724 975 742 990 b 888 986 808 990 844 986 b 994 990 925 986 961 990 m 551 -56 b 643 -146 611 -56 643 -86 b 494 -347 643 -247 543 -347 b 467 -324 478 -347 467 -337 b 488 -292 467 -310 476 -301 b 536 -225 506 -278 536 -251 b 501 -194 536 -210 518 -201 b 457 -132 479 -183 457 -169 b 551 -56 457 -89 500 -56"},"ņ":{"ha":885,"x_min":null,"x_max":null,"o":"m 789 171 b 885 29 806 43 885 85 b 842 -4 885 8 867 -4 b 713 0 806 -4 776 0 b 582 -4 646 0 619 -4 b 536 31 551 -4 536 11 b 624 135 536 81 624 54 b 618 188 624 147 621 167 l 589 394 b 454 572 576 478 547 572 b 303 375 382 572 303 515 l 303 156 b 389 29 303 49 389 83 b 350 -4 389 14 376 -4 b 219 0 318 -4 279 0 b 90 -4 160 0 122 -4 b 51 29 63 -4 51 13 b 136 156 51 83 136 49 l 136 472 b 40 575 136 560 40 517 b 156 657 40 600 69 618 b 265 699 236 694 253 699 b 303 642 293 699 303 676 l 303 568 b 529 704 347 640 422 704 b 753 431 683 704 736 561 l 789 171 m 469 -56 b 561 -146 529 -56 561 -86 b 413 -347 561 -247 461 -347 b 385 -324 396 -347 385 -337 b 406 -292 385 -310 394 -301 b 454 -225 424 -278 454 -251 b 419 -194 454 -210 436 -201 b 375 -132 397 -183 375 -169 b 469 -56 375 -89 418 -56"},"Ň":{"ha":1081,"x_min":null,"x_max":null,"o":"m 463 1103 b 351 1250 422 1151 386 1199 b 335 1288 340 1265 335 1276 b 371 1318 335 1301 349 1318 b 429 1288 388 1318 406 1311 l 546 1172 l 661 1288 b 719 1318 685 1311 703 1318 b 756 1288 742 1318 756 1301 b 739 1250 756 1276 750 1265 b 628 1103 703 1200 667 1151 b 544 1067 604 1076 590 1067 b 463 1103 500 1067 486 1076 m 994 990 b 1039 957 1025 990 1039 975 b 946 836 1039 900 946 932 l 946 36 b 899 -12 946 3 924 -12 b 831 28 867 -12 850 4 l 258 754 l 258 150 b 369 29 258 57 369 94 b 324 -4 369 10 354 -4 b 207 0 288 -4 242 0 b 99 -4 174 0 133 -4 b 56 31 69 -4 56 13 b 147 150 56 86 147 54 l 147 836 b 56 956 147 932 56 900 b 103 990 56 975 71 990 b 190 988 129 990 157 988 b 263 989 222 988 242 989 b 329 954 286 989 307 982 l 836 308 l 836 836 b 724 957 836 929 724 892 b 771 990 724 975 742 990 b 888 986 808 990 844 986 b 994 990 925 986 961 990"},"ň":{"ha":885,"x_min":null,"x_max":null,"o":"m 354 844 b 243 992 314 893 278 940 b 226 1029 232 1007 226 1018 b 263 1060 226 1043 240 1060 b 321 1029 279 1060 297 1053 l 438 914 l 553 1029 b 611 1060 576 1053 594 1060 b 647 1029 633 1060 647 1043 b 631 992 647 1018 642 1007 b 519 844 594 942 558 893 b 436 808 496 818 482 808 b 354 844 392 808 378 818 m 789 171 b 885 29 806 43 885 85 b 842 -4 885 8 867 -4 b 713 0 806 -4 776 0 b 582 -4 646 0 619 -4 b 536 31 551 -4 536 11 b 624 135 536 81 624 54 b 618 188 624 147 621 167 l 589 394 b 454 572 576 478 547 572 b 303 375 382 572 303 515 l 303 156 b 389 29 303 49 389 83 b 350 -4 389 14 376 -4 b 219 0 318 -4 279 0 b 90 -4 160 0 122 -4 b 51 29 63 -4 51 13 b 136 156 51 83 136 49 l 136 472 b 40 575 136 560 40 517 b 156 657 40 600 69 618 b 265 699 236 694 253 699 b 303 642 293 699 303 676 l 303 568 b 529 704 347 640 422 704 b 753 431 683 704 736 561 l 789 171"},"Ŋ":{"ha":1081,"x_min":null,"x_max":null,"o":"m 996 990 b 1039 957 1026 990 1039 974 b 946 836 1039 900 946 932 l 946 -12 b 699 -274 946 -178 821 -274 b 615 -194 635 -274 617 -249 b 664 -71 614 -132 626 -71 b 696 -97 679 -71 686 -79 b 774 -176 724 -151 740 -176 b 829 -54 810 -176 829 -142 l 829 29 l 258 757 l 258 150 b 369 29 258 57 369 94 b 325 -4 369 13 354 -4 b 207 0 288 -4 242 0 b 97 -4 174 0 131 -4 b 56 29 68 -4 56 13 b 147 150 56 86 147 54 l 147 836 b 56 957 147 932 56 900 b 100 990 56 974 71 990 b 192 986 133 990 167 986 b 275 990 217 986 242 990 b 313 975 292 990 306 983 l 836 304 l 836 836 b 724 957 836 929 724 892 b 769 990 724 974 739 990 b 888 986 806 990 853 986 b 996 990 919 986 963 990"},"ŋ":{"ha":843,"x_min":null,"x_max":null,"o":"m 532 704 b 757 426 685 704 757 567 l 757 -12 b 500 -274 757 -178 631 -274 b 418 -196 436 -274 419 -249 b 465 -75 417 -135 429 -75 b 497 -103 481 -75 488 -85 b 565 -178 524 -154 542 -178 b 596 -135 582 -178 596 -164 b 590 -19 596 -103 590 -67 l 590 393 b 463 572 590 486 554 572 b 303 375 388 572 303 515 l 303 156 b 389 29 303 49 389 83 b 350 -4 389 14 376 -4 b 219 0 318 -4 279 0 b 90 -4 160 0 122 -4 b 51 29 63 -4 51 13 b 136 156 51 83 136 49 l 136 472 b 40 575 136 560 40 517 b 156 657 40 600 69 618 b 265 699 236 694 253 699 b 303 642 293 699 303 676 l 303 568 b 532 704 347 640 424 704"},"Ō":{"ha":1151,"x_min":null,"x_max":null,"o":"m 407 1125 b 365 1175 376 1125 365 1142 b 407 1224 365 1207 376 1224 l 572 1222 b 740 1224 614 1222 708 1224 b 782 1175 769 1224 782 1207 b 740 1125 782 1142 769 1125 b 574 1128 704 1125 614 1128 b 407 1125 533 1128 439 1125 m 575 -28 b 50 472 276 -28 50 168 b 575 1014 50 782 276 1014 b 1101 474 878 1014 1101 782 b 575 -28 1101 169 878 -28 m 575 75 b 897 492 781 75 897 264 b 576 915 897 714 776 915 b 254 488 375 915 254 715 b 575 75 254 264 376 75"},"ō":{"ha":865,"x_min":null,"x_max":null,"o":"m 261 867 b 219 917 231 867 219 883 b 261 965 219 949 231 965 l 426 964 b 594 965 468 964 563 965 b 636 917 624 965 636 949 b 594 867 636 883 624 867 b 428 869 558 867 468 869 b 261 867 388 869 293 867 m 422 -26 b 42 338 192 -26 42 128 b 443 715 42 554 211 715 b 822 350 672 715 822 561 b 422 -26 822 132 650 -26 m 456 64 b 643 297 574 64 643 158 b 410 625 643 454 550 625 b 222 390 292 625 222 531 b 456 64 222 235 314 64"},"Ŏ":{"ha":1151,"x_min":null,"x_max":null,"o":"m 574 1065 b 389 1203 486 1065 424 1115 b 371 1272 376 1229 371 1256 b 408 1307 371 1294 389 1307 b 465 1253 433 1307 447 1283 b 574 1167 494 1197 528 1167 b 683 1253 621 1167 654 1197 b 740 1307 701 1283 714 1307 b 778 1272 760 1307 778 1294 b 760 1203 778 1256 772 1229 b 574 1065 725 1115 663 1065 m 575 -28 b 50 472 276 -28 50 168 b 575 1014 50 782 276 1014 b 1101 474 878 1014 1101 782 b 575 -28 1101 169 878 -28 m 575 75 b 897 492 781 75 897 264 b 576 915 897 714 776 915 b 254 488 375 915 254 715 b 575 75 254 264 376 75"},"ŏ":{"ha":865,"x_min":null,"x_max":null,"o":"m 428 807 b 243 944 340 807 278 857 b 225 1014 231 971 225 997 b 263 1049 225 1036 243 1049 b 319 994 288 1049 301 1025 b 428 908 349 939 382 908 b 538 994 475 908 508 939 b 594 1049 556 1025 568 1049 b 632 1014 614 1049 632 1036 b 614 944 632 997 626 971 b 428 807 579 857 517 807 m 422 -26 b 42 338 192 -26 42 128 b 443 715 42 554 211 715 b 822 350 672 715 822 561 b 422 -26 822 132 650 -26 m 456 64 b 643 297 574 64 643 158 b 410 625 643 454 550 625 b 222 390 292 625 222 531 b 456 64 222 235 314 64"},"Ő":{"ha":1151,"x_min":null,"x_max":null,"o":"m 472 1040 b 446 1065 456 1040 446 1050 b 456 1103 446 1075 450 1088 b 531 1274 479 1167 503 1218 b 594 1308 544 1300 556 1308 b 656 1276 636 1308 656 1300 b 619 1208 656 1258 642 1242 b 522 1071 589 1161 557 1117 b 472 1040 504 1046 489 1040 m 664 1040 b 638 1065 649 1040 638 1050 b 647 1103 638 1075 642 1088 b 724 1274 672 1167 694 1218 b 788 1308 736 1300 749 1308 b 847 1276 828 1308 847 1300 b 813 1208 847 1258 835 1242 b 714 1071 782 1161 749 1117 b 664 1040 696 1046 681 1040 m 575 -28 b 50 472 276 -28 50 168 b 575 1014 50 782 276 1014 b 1101 474 878 1014 1101 782 b 575 -28 1101 169 878 -28 m 575 75 b 897 492 781 75 897 264 b 576 915 897 714 776 915 b 254 488 375 915 254 715 b 575 75 254 264 376 75"},"ő":{"ha":865,"x_min":null,"x_max":null,"o":"m 326 782 b 300 807 310 782 300 792 b 310 844 300 817 304 829 b 385 1015 333 908 357 960 b 449 1050 399 1042 410 1050 b 510 1018 490 1050 510 1042 b 474 950 510 1000 496 983 b 376 813 443 903 411 858 b 326 782 358 788 343 782 m 518 782 b 492 807 503 782 492 792 b 501 844 492 817 496 829 b 578 1015 526 908 549 960 b 642 1050 590 1042 603 1050 b 701 1018 682 1050 701 1042 b 667 950 701 1000 689 983 b 568 813 636 903 603 858 b 518 782 550 788 535 782 m 422 -26 b 42 338 192 -26 42 128 b 443 715 42 554 211 715 b 822 350 672 715 822 561 b 422 -26 822 132 650 -26 m 456 64 b 643 297 574 64 643 158 b 410 625 643 454 550 625 b 222 390 292 625 222 531 b 456 64 222 235 314 64"},"Œ":{"ha":1604,"x_min":null,"x_max":null,"o":"m 1549 299 b 1583 263 1567 299 1583 285 b 1546 157 1583 238 1574 215 l 1486 29 b 1422 -31 1467 -10 1449 -31 b 1329 0 1386 -31 1381 0 l 779 0 b 588 -28 715 -18 647 -28 b 50 472 272 -28 50 165 b 588 1014 50 779 276 1014 b 790 986 661 1014 729 1003 l 1288 986 b 1374 1017 1336 986 1340 1017 b 1442 947 1401 1017 1418 999 l 1494 835 b 1531 735 1521 782 1531 758 b 1497 699 1531 711 1514 699 b 1444 732 1478 699 1465 711 b 1178 896 1347 835 1292 896 l 1083 896 b 985 828 997 896 985 876 l 985 579 b 1025 546 985 556 993 546 l 1133 546 b 1269 649 1219 546 1218 649 b 1301 603 1286 649 1301 636 b 1297 501 1301 569 1297 536 b 1301 399 1297 465 1301 431 b 1269 353 1301 365 1286 353 b 1133 456 1218 353 1219 456 l 1025 456 b 985 422 993 456 985 446 l 985 158 b 1083 90 985 108 999 90 l 1217 90 b 1497 264 1338 90 1401 156 b 1549 299 1517 286 1529 299 m 586 71 b 800 254 708 71 800 135 l 800 710 b 588 915 800 819 732 915 b 254 488 375 915 254 714 b 586 71 254 263 375 71"},"œ":{"ha":1354,"x_min":null,"x_max":null,"o":"m 1293 190 b 1324 156 1311 190 1324 172 b 1311 121 1324 147 1319 135 b 993 -26 1265 47 1139 -26 b 719 94 886 -26 788 14 b 422 -26 649 17 543 -26 b 42 338 192 -26 42 128 b 443 715 42 554 211 715 b 726 593 561 715 661 669 b 999 715 794 674 892 715 b 1296 444 1176 715 1296 579 b 1263 393 1296 410 1286 400 l 831 263 b 1065 89 871 161 956 89 b 1251 167 1140 89 1204 121 b 1293 190 1269 183 1281 190 m 456 64 b 643 297 574 64 643 158 b 410 625 643 454 550 625 b 222 390 292 625 222 531 b 456 64 222 235 314 64 m 971 622 b 803 404 875 622 803 538 b 807 344 803 383 804 364 l 1088 433 b 1121 474 1113 440 1121 449 b 971 622 1121 540 1060 622"},"Ŕ":{"ha":1029,"x_min":null,"x_max":null,"o":"m 444 1049 b 411 1071 424 1049 411 1058 b 424 1106 411 1081 415 1092 b 531 1276 465 1176 499 1228 b 608 1308 547 1300 563 1308 b 682 1279 667 1308 682 1301 b 635 1208 682 1260 668 1242 b 504 1078 604 1179 544 1115 b 444 1049 481 1054 463 1049 m 864 174 b 1021 28 946 68 1021 85 b 983 -4 1021 8 1007 -4 b 824 0 953 -4 888 0 b 672 -4 764 0 708 -4 b 624 31 640 -4 624 7 b 693 110 624 78 693 61 b 663 172 693 131 678 151 l 547 325 b 483 358 526 350 508 360 b 364 358 444 357 404 357 b 331 328 339 360 331 350 l 331 150 b 422 29 331 54 422 86 b 381 -4 422 13 411 -4 b 238 0 347 -4 303 0 b 100 -4 172 0 133 -4 b 58 29 69 -4 58 13 b 147 150 58 86 147 54 l 147 836 b 58 957 147 932 58 900 b 104 990 58 974 69 990 b 231 986 131 990 179 986 b 458 994 289 986 382 994 b 931 668 774 994 931 861 b 707 382 931 525 843 421 l 864 174 m 454 443 b 728 667 615 443 728 490 b 451 900 728 822 611 900 b 331 832 367 900 331 886 l 331 492 b 454 443 331 453 357 443"},"ŕ":{"ha":668,"x_min":null,"x_max":null,"o":"m 326 790 b 293 813 306 790 293 800 b 306 847 293 822 297 833 b 413 1018 347 918 381 969 b 490 1050 429 1042 444 1050 b 564 1021 549 1050 564 1043 b 517 950 564 1001 550 983 b 386 819 486 921 426 857 b 326 790 363 796 344 790 m 546 704 b 658 626 613 704 658 668 b 622 488 658 596 646 553 b 579 446 614 461 601 446 b 538 486 558 446 549 464 b 463 557 517 532 496 557 b 303 285 403 557 303 467 l 303 156 b 406 29 303 49 406 88 b 367 -4 406 14 394 -4 b 219 0 332 -4 286 0 b 90 -4 160 0 122 -4 b 51 29 63 -4 51 13 b 136 156 51 83 136 49 l 136 472 b 40 575 136 560 40 517 b 156 657 40 600 69 618 b 265 699 236 694 253 699 b 303 642 293 699 303 676 l 303 515 b 546 704 347 625 446 704"},"Ŗ":{"ha":1029,"x_min":null,"x_max":null,"o":"m 864 174 b 1021 28 946 68 1021 85 b 983 -4 1021 8 1007 -4 b 824 0 953 -4 888 0 b 672 -4 764 0 708 -4 b 624 31 640 -4 624 7 b 693 110 624 78 693 61 b 663 172 693 131 678 151 l 547 325 b 483 358 526 350 508 360 b 364 358 444 357 404 357 b 331 328 339 360 331 350 l 331 150 b 422 29 331 54 422 86 b 381 -4 422 13 411 -4 b 238 0 347 -4 303 0 b 100 -4 172 0 133 -4 b 58 29 69 -4 58 13 b 147 150 58 86 147 54 l 147 836 b 58 957 147 932 58 900 b 104 990 58 974 69 990 b 231 986 131 990 179 986 b 458 994 289 986 382 994 b 931 668 774 994 931 861 b 707 382 931 525 843 421 l 864 174 m 454 443 b 728 667 615 443 728 490 b 451 900 728 822 611 900 b 331 832 367 900 331 886 l 331 492 b 454 443 331 453 357 443 m 519 -56 b 611 -146 579 -56 611 -86 b 463 -347 611 -247 511 -347 b 435 -324 446 -347 435 -337 b 456 -292 435 -310 444 -301 b 504 -225 474 -278 504 -251 b 469 -194 504 -210 486 -201 b 425 -132 447 -183 425 -169 b 519 -56 425 -89 468 -56"},"ŗ":{"ha":668,"x_min":null,"x_max":null,"o":"m 546 704 b 658 626 613 704 658 668 b 622 488 658 596 646 553 b 579 446 614 461 601 446 b 538 486 558 446 549 464 b 463 557 517 532 496 557 b 303 285 403 557 303 467 l 303 156 b 406 29 303 49 406 88 b 367 -4 406 14 394 -4 b 219 0 332 -4 286 0 b 90 -4 160 0 122 -4 b 51 29 63 -4 51 13 b 136 156 51 83 136 49 l 136 472 b 40 575 136 560 40 517 b 156 657 40 600 69 618 b 265 699 236 694 253 699 b 303 642 293 699 303 676 l 303 515 b 546 704 347 625 446 704 m 242 -56 b 333 -146 301 -56 333 -86 b 185 -347 333 -247 233 -347 b 157 -324 168 -347 157 -337 b 178 -292 157 -310 167 -301 b 226 -225 196 -278 226 -251 b 192 -194 226 -210 208 -201 b 147 -132 169 -183 147 -169 b 242 -56 147 -89 190 -56"},"Ř":{"ha":1029,"x_min":null,"x_max":null,"o":"m 404 1103 b 293 1250 364 1151 328 1199 b 276 1288 282 1265 276 1276 b 313 1318 276 1301 290 1318 b 371 1288 329 1318 347 1311 l 488 1172 l 603 1288 b 661 1318 626 1311 644 1318 b 697 1288 683 1318 697 1301 b 681 1250 697 1276 692 1265 b 569 1103 644 1200 608 1151 b 486 1067 546 1076 532 1067 b 404 1103 442 1067 428 1076 m 864 174 b 1021 28 946 68 1021 85 b 983 -4 1021 8 1007 -4 b 824 0 953 -4 888 0 b 672 -4 764 0 708 -4 b 624 31 640 -4 624 7 b 693 110 624 78 693 61 b 663 172 693 131 678 151 l 547 325 b 483 358 526 350 508 360 b 364 358 444 357 404 357 b 331 328 339 360 331 350 l 331 150 b 422 29 331 54 422 86 b 381 -4 422 13 411 -4 b 238 0 347 -4 303 0 b 100 -4 172 0 133 -4 b 58 29 69 -4 58 13 b 147 150 58 86 147 54 l 147 836 b 58 957 147 932 58 900 b 104 990 58 974 69 990 b 231 986 131 990 179 986 b 458 994 289 986 382 994 b 931 668 774 994 931 861 b 707 382 931 525 843 421 l 864 174 m 454 443 b 728 667 615 443 728 490 b 451 900 728 822 611 900 b 331 832 367 900 331 886 l 331 492 b 454 443 331 453 357 443"},"ř":{"ha":668,"x_min":null,"x_max":null,"o":"m 286 844 b 175 992 246 893 210 940 b 158 1029 164 1007 158 1018 b 194 1060 158 1043 172 1060 b 253 1029 211 1060 229 1053 l 369 914 l 485 1029 b 543 1060 508 1053 526 1060 b 579 1029 565 1060 579 1043 b 563 992 579 1018 574 1007 b 451 844 526 942 490 893 b 368 808 428 818 414 808 b 286 844 324 808 310 818 m 546 704 b 658 626 613 704 658 668 b 622 488 658 596 646 553 b 579 446 614 461 601 446 b 538 486 558 446 549 464 b 463 557 517 532 496 557 b 303 285 403 557 303 467 l 303 156 b 406 29 303 49 406 88 b 367 -4 406 14 394 -4 b 219 0 332 -4 286 0 b 90 -4 160 0 122 -4 b 51 29 63 -4 51 13 b 136 156 51 83 136 49 l 136 472 b 40 575 136 560 40 517 b 156 657 40 600 69 618 b 265 699 236 694 253 699 b 303 642 293 699 303 676 l 303 515 b 546 704 347 625 446 704"},"Ś":{"ha":935,"x_min":null,"x_max":null,"o":"m 401 1049 b 368 1071 381 1049 368 1058 b 381 1106 368 1081 372 1092 b 488 1276 422 1176 456 1228 b 565 1308 504 1300 519 1308 b 639 1279 624 1308 639 1301 b 592 1208 639 1260 625 1242 b 461 1078 561 1179 501 1115 b 401 1049 438 1054 419 1049 m 201 -28 b 143 32 175 -28 160 -4 l 86 154 b 39 278 54 226 39 253 b 74 318 39 304 57 318 b 128 283 96 318 115 297 b 518 78 228 176 350 78 b 729 239 657 78 729 143 b 454 440 729 356 619 392 b 75 754 276 492 75 556 b 371 1007 75 897 200 1007 b 575 974 485 1007 543 974 b 642 1015 608 974 607 1015 b 717 935 674 1015 686 985 l 756 869 b 813 744 800 794 813 764 b 783 713 813 726 799 713 b 726 749 763 713 747 728 b 396 910 636 842 526 910 b 244 792 303 910 244 864 b 506 621 244 699 340 671 b 900 276 703 564 900 497 b 532 -21 900 92 750 -21 b 278 19 399 -21 313 19 b 201 -28 240 19 235 -28"},"ś":{"ha":749,"x_min":null,"x_max":null,"o":"m 314 790 b 281 813 293 790 281 800 b 293 847 281 822 285 833 b 400 1018 335 918 368 969 b 478 1050 417 1042 432 1050 b 551 1021 536 1050 551 1043 b 504 950 551 1001 538 983 b 374 819 474 921 414 857 b 314 790 350 796 332 790 m 169 -24 b 119 29 143 -24 131 6 l 75 124 b 39 215 53 171 39 193 b 71 250 39 238 53 250 b 119 221 86 250 101 238 b 414 69 206 136 306 69 b 547 167 497 69 547 114 b 350 279 547 238 468 251 b 56 503 208 311 56 361 b 306 704 56 618 160 704 b 469 679 385 704 446 679 b 524 707 494 679 494 707 b 582 657 550 707 564 683 l 631 579 b 663 504 647 551 663 522 b 633 472 663 485 649 472 b 585 501 617 472 601 488 b 326 621 511 567 414 621 b 221 543 261 621 221 589 b 414 435 221 481 289 467 b 711 203 565 400 711 354 b 417 -15 711 67 585 -15 b 236 13 321 -15 260 13 b 169 -24 204 13 201 -24"},"Ŝ":{"ha":935,"x_min":null,"x_max":null,"o":"m 271 1060 b 235 1090 249 1060 235 1076 b 250 1128 235 1101 240 1113 b 363 1275 286 1178 322 1226 b 444 1311 385 1301 400 1311 b 526 1275 490 1311 504 1301 b 639 1128 568 1226 604 1179 b 656 1090 650 1113 656 1101 b 618 1060 656 1076 640 1060 b 561 1090 601 1060 583 1067 l 444 1208 l 328 1090 b 271 1060 306 1067 288 1060 m 506 621 b 900 276 703 564 900 497 b 532 -21 900 92 750 -21 b 278 19 399 -21 313 19 b 201 -28 240 19 235 -28 b 143 32 175 -28 160 -4 l 86 154 b 39 278 54 226 39 253 b 74 318 39 304 57 318 b 128 283 96 318 115 297 b 518 78 228 176 350 78 b 729 239 657 78 729 143 b 454 440 729 356 619 392 b 75 754 276 492 75 556 b 371 1007 75 897 200 1007 b 575 974 485 1007 543 974 b 642 1015 608 974 607 1015 b 717 935 674 1015 686 985 l 756 869 b 813 744 800 794 813 764 b 783 713 813 726 799 713 b 726 749 763 713 747 728 b 396 910 636 842 526 910 b 244 792 303 910 244 864 b 506 621 244 699 340 671"},"ŝ":{"ha":749,"x_min":null,"x_max":null,"o":"m 183 801 b 147 832 161 801 147 818 b 163 869 147 843 153 854 b 275 1017 199 919 235 968 b 357 1053 297 1043 313 1053 b 439 1017 403 1053 417 1043 b 551 869 481 968 517 921 b 568 832 563 854 568 843 b 531 801 568 818 553 801 b 474 832 514 801 496 808 l 357 950 l 240 832 b 183 801 218 808 200 801 m 414 435 b 711 203 565 400 711 354 b 417 -15 711 67 585 -15 b 236 13 321 -15 260 13 b 169 -24 204 13 201 -24 b 119 29 143 -24 131 6 l 75 124 b 39 215 53 171 39 193 b 71 250 39 238 53 250 b 119 221 86 250 101 238 b 414 69 206 136 306 69 b 547 167 497 69 547 114 b 350 279 547 238 468 251 b 56 503 208 311 56 361 b 306 704 56 618 160 704 b 469 679 385 704 446 679 b 524 707 494 679 494 707 b 582 657 550 707 564 683 l 631 579 b 663 504 647 551 663 522 b 633 472 663 485 649 472 b 585 501 617 472 601 488 b 326 621 511 567 414 621 b 221 543 261 621 221 589 b 414 435 221 481 289 467"},"Ş":{"ha":935,"x_min":null,"x_max":null,"o":"m 518 -21 l 506 -69 b 550 -64 519 -65 535 -64 b 679 -167 624 -64 679 -107 b 526 -278 679 -232 615 -278 b 401 -249 478 -278 431 -265 b 382 -218 388 -239 382 -231 b 407 -190 382 -203 392 -190 b 440 -199 415 -190 428 -194 b 521 -217 463 -207 492 -217 b 585 -175 560 -217 585 -200 b 528 -136 585 -151 565 -136 b 467 -151 508 -136 488 -143 b 424 -111 453 -147 428 -126 l 450 -15 b 278 19 363 -6 304 19 b 201 -28 240 19 235 -28 b 143 32 175 -28 160 -4 l 86 154 b 39 278 54 226 39 253 b 74 318 39 304 57 318 b 128 283 96 318 115 297 b 518 78 228 176 350 78 b 729 239 657 78 729 143 b 454 440 729 356 619 392 b 75 754 276 492 75 556 b 371 1007 75 897 200 1007 b 575 974 485 1007 543 974 b 642 1015 608 974 607 1015 b 717 935 674 1015 686 985 l 756 869 b 813 744 800 794 813 764 b 783 713 813 726 799 713 b 726 749 763 713 747 728 b 396 910 636 842 526 910 b 244 792 303 910 244 864 b 506 621 244 699 340 671 b 900 276 703 564 900 497 b 532 -21 900 92 750 -21"},"ş":{"ha":749,"x_min":null,"x_max":null,"o":"m 401 -15 l 388 -69 b 432 -64 401 -65 417 -64 b 561 -167 506 -64 561 -107 b 408 -278 561 -232 497 -278 b 283 -249 360 -278 313 -265 b 264 -218 269 -239 264 -231 b 289 -190 264 -203 274 -190 b 322 -199 297 -190 310 -194 b 403 -217 344 -207 374 -217 b 467 -175 442 -217 467 -200 b 410 -136 467 -151 447 -136 b 349 -151 390 -136 369 -143 b 306 -111 335 -147 310 -126 l 335 -8 b 236 13 285 0 251 13 b 169 -24 204 13 201 -24 b 119 29 143 -24 131 6 l 75 124 b 39 215 53 171 39 193 b 71 250 39 238 53 250 b 119 221 86 250 101 238 b 414 69 206 136 306 69 b 547 167 497 69 547 114 b 350 279 547 238 468 251 b 56 503 208 311 56 361 b 306 704 56 618 160 704 b 469 679 385 704 446 679 b 524 707 494 679 494 707 b 582 657 550 707 564 683 l 631 579 b 663 504 647 551 663 522 b 633 472 663 485 649 472 b 585 501 617 472 601 488 b 326 621 511 567 414 621 b 221 543 261 621 221 589 b 414 435 221 481 289 467 b 711 203 565 400 711 354 b 417 -15 711 67 585 -15"},"Š":{"ha":935,"x_min":null,"x_max":null,"o":"m 361 1103 b 250 1250 321 1151 285 1199 b 233 1288 239 1265 233 1276 b 269 1318 233 1301 247 1318 b 328 1288 286 1318 304 1311 l 444 1172 l 560 1288 b 618 1318 583 1311 601 1318 b 654 1288 640 1318 654 1301 b 638 1250 654 1276 649 1265 b 526 1103 601 1200 565 1151 b 443 1067 503 1076 489 1067 b 361 1103 399 1067 385 1076 m 506 621 b 900 276 703 564 900 497 b 532 -21 900 92 750 -21 b 278 19 399 -21 313 19 b 201 -28 240 19 235 -28 b 143 32 175 -28 160 -4 l 86 154 b 39 278 54 226 39 253 b 74 318 39 304 57 318 b 128 283 96 318 115 297 b 518 78 228 176 350 78 b 729 239 657 78 729 143 b 454 440 729 356 619 392 b 75 754 276 492 75 556 b 371 1007 75 897 200 1007 b 575 974 485 1007 543 974 b 642 1015 608 974 607 1015 b 717 935 674 1015 686 985 l 756 869 b 813 744 800 794 813 764 b 783 713 813 726 799 713 b 726 749 763 713 747 728 b 396 910 636 842 526 910 b 244 792 303 910 244 864 b 506 621 244 699 340 671"},"š":{"ha":749,"x_min":null,"x_max":null,"o":"m 274 844 b 163 992 233 893 197 940 b 146 1029 151 1007 146 1018 b 182 1060 146 1043 160 1060 b 240 1029 199 1060 217 1053 l 357 914 l 472 1029 b 531 1060 496 1053 514 1060 b 567 1029 553 1060 567 1043 b 550 992 567 1018 561 1007 b 439 844 514 942 478 893 b 356 808 415 818 401 808 b 274 844 311 808 297 818 m 414 435 b 711 203 565 400 711 354 b 417 -15 711 67 585 -15 b 236 13 321 -15 260 13 b 169 -24 204 13 201 -24 b 119 29 143 -24 131 6 l 75 124 b 39 215 53 171 39 193 b 71 250 39 238 53 250 b 119 221 86 250 101 238 b 414 69 206 136 306 69 b 547 167 497 69 547 114 b 350 279 547 238 468 251 b 56 503 208 311 56 361 b 306 704 56 618 160 704 b 469 679 385 704 446 679 b 524 707 494 679 494 707 b 582 657 550 707 564 683 l 631 579 b 663 504 647 551 663 522 b 633 472 663 485 649 472 b 585 501 617 472 601 488 b 326 621 511 567 414 621 b 221 543 261 621 221 589 b 414 435 221 481 289 467"},"Ţ":{"ha":1043,"x_min":null,"x_max":null,"o":"m 360 -4 b 319 31 331 -4 319 13 b 429 150 319 92 429 56 l 429 835 b 374 896 429 876 415 896 l 333 896 b 85 735 242 896 176 840 b 33 700 65 713 53 700 b 0 739 15 700 0 714 b 31 835 0 761 10 786 l 78 947 b 143 1017 99 999 115 1017 b 229 986 176 1017 182 986 l 813 986 b 900 1017 861 986 867 1017 b 965 947 928 1017 943 999 l 1013 835 b 1043 739 1032 786 1043 761 b 1008 700 1043 714 1026 700 b 958 735 990 700 978 713 b 708 896 867 840 800 896 l 669 896 b 614 835 628 896 614 876 l 614 150 b 724 31 614 56 724 92 b 682 -4 724 13 713 -4 b 521 0 642 -4 592 0 b 360 -4 451 0 400 -4 m 485 -347 b 457 -324 468 -347 457 -337 b 479 -292 457 -310 467 -301 b 526 -225 496 -278 526 -251 b 492 -194 526 -210 508 -201 b 447 -132 469 -183 447 -169 b 543 -56 447 -89 490 -56 b 633 -146 601 -56 633 -86 b 485 -347 633 -247 533 -347"},"ţ":{"ha":571,"x_min":null,"x_max":null,"o":"m 526 160 b 560 125 547 160 560 143 b 528 64 560 106 547 83 b 324 -17 479 14 410 -17 b 129 124 211 -17 129 47 b 133 356 129 153 133 260 l 133 600 l 50 600 b 6 636 24 600 6 614 b 46 685 6 660 21 672 b 213 885 133 726 174 774 b 269 947 235 928 246 947 b 300 904 288 947 300 935 l 300 688 l 515 688 b 544 661 535 688 544 679 b 540 628 544 651 542 636 b 510 600 538 608 528 600 l 300 600 l 300 225 b 389 92 300 121 338 92 b 492 140 435 92 463 117 b 526 160 500 149 513 160 m 319 -56 b 410 -146 379 -56 410 -86 b 261 -347 410 -247 310 -347 b 233 -324 246 -347 233 -337 b 256 -292 233 -310 243 -301 b 303 -225 274 -278 303 -251 b 269 -194 303 -210 285 -201 b 225 -132 247 -183 225 -169 b 319 -56 225 -89 267 -56"},"Ť":{"ha":1043,"x_min":null,"x_max":null,"o":"m 446 1103 b 335 1250 406 1151 369 1199 b 318 1288 324 1265 318 1276 b 354 1318 318 1301 332 1318 b 413 1288 371 1318 389 1311 l 529 1172 l 644 1288 b 703 1318 668 1311 686 1318 b 739 1288 725 1318 739 1301 b 722 1250 739 1276 733 1265 b 611 1103 686 1200 650 1151 b 528 1067 588 1076 574 1067 b 446 1103 483 1067 469 1076 m 1013 835 b 1043 739 1032 786 1043 761 b 1008 700 1043 714 1026 700 b 958 735 990 700 978 713 b 708 896 867 840 800 896 l 669 896 b 614 835 628 896 614 876 l 614 150 b 724 31 614 56 724 92 b 682 -4 724 13 713 -4 b 521 0 642 -4 592 0 b 360 -4 451 0 400 -4 b 319 31 331 -4 319 13 b 429 150 319 92 429 56 l 429 835 b 374 896 429 876 415 896 l 333 896 b 85 735 242 896 176 840 b 33 700 65 713 53 700 b 0 739 15 700 0 714 b 31 835 0 761 10 786 l 78 947 b 143 1017 99 999 115 1017 b 229 986 176 1017 182 986 l 813 986 b 900 1017 861 986 867 1017 b 965 947 928 1017 943 999 l 1013 835"},"ť":{"ha":571,"x_min":null,"x_max":null,"o":"m 404 794 b 372 826 383 794 372 803 l 374 1113 b 418 1154 374 1144 383 1154 b 483 1113 463 1154 483 1142 b 446 831 483 1038 463 903 b 404 794 439 807 426 794 m 526 160 b 560 125 547 160 560 143 b 528 64 560 106 547 83 b 324 -17 479 14 410 -17 b 129 124 211 -17 129 47 b 133 356 129 153 133 260 l 133 600 l 50 600 b 6 636 24 600 6 614 b 46 685 6 660 21 672 b 213 885 133 726 174 774 b 269 947 235 928 246 947 b 300 904 288 947 300 935 l 300 688 l 515 688 b 544 661 535 688 544 679 b 540 628 544 651 542 636 b 510 600 538 608 528 600 l 300 600 l 300 225 b 389 92 300 121 338 92 b 492 140 435 92 463 117 b 526 160 500 149 513 160"},"Ŧ":{"ha":1044,"x_min":null,"x_max":null,"o":"m 1013 835 b 1044 739 1033 786 1044 761 b 1010 700 1044 714 1028 700 b 960 735 990 700 978 713 b 710 896 868 840 801 896 l 671 896 b 614 835 628 896 614 876 l 614 522 l 788 522 b 836 476 824 522 836 507 b 788 431 836 446 824 431 l 614 431 l 614 150 b 725 31 614 56 725 92 b 683 -4 725 13 713 -4 b 522 0 643 -4 593 0 b 361 -4 451 0 401 -4 b 319 31 331 -4 319 13 b 431 150 319 92 431 56 l 431 431 l 256 431 b 208 476 221 431 208 446 b 256 522 208 507 221 522 l 431 522 l 431 835 b 374 896 431 876 415 896 l 335 896 b 85 735 243 896 176 840 b 35 700 67 713 54 700 b 0 739 17 700 0 714 b 32 835 0 761 11 786 l 78 947 b 143 1017 100 999 117 1017 b 231 986 176 1017 182 986 l 814 986 b 901 1017 863 986 868 1017 b 967 947 928 1017 944 999 l 1013 835"},"ŧ":{"ha":579,"x_min":null,"x_max":null,"o":"m 535 160 b 567 125 554 160 567 143 b 536 64 567 106 554 83 b 331 -17 486 14 418 -17 b 136 124 218 -17 136 47 b 140 331 136 150 140 242 l 64 331 b 15 372 28 331 15 344 b 64 414 15 400 28 414 l 140 414 l 140 600 l 58 600 b 13 636 31 600 13 614 b 54 685 13 660 28 672 b 221 885 140 726 181 774 b 276 947 242 928 253 947 b 307 904 294 947 307 935 l 307 688 l 524 688 b 553 661 542 688 553 679 b 549 628 553 651 550 636 b 517 600 544 608 536 600 l 307 600 l 307 414 l 458 414 b 507 372 493 414 507 400 b 458 331 507 344 493 331 l 307 331 l 307 225 b 397 92 307 121 344 92 b 499 140 442 92 471 117 b 535 160 508 149 519 160"},"Ũ":{"ha":1017,"x_min":null,"x_max":null,"o":"m 614 1076 b 436 1181 533 1076 469 1181 b 390 1135 421 1181 406 1163 b 343 1089 375 1108 367 1089 b 310 1124 322 1089 310 1101 b 319 1169 310 1132 313 1149 b 438 1281 339 1226 382 1281 b 617 1175 518 1281 576 1175 b 663 1222 632 1175 646 1190 b 710 1268 678 1249 685 1268 b 743 1233 731 1268 743 1256 b 733 1186 743 1224 740 1207 b 614 1076 713 1128 671 1076 m 510 -28 b 99 308 283 -28 99 61 b 104 394 99 333 101 365 l 138 790 b 142 849 139 813 142 835 b 90 915 142 893 114 906 b 53 957 71 924 53 932 b 94 990 53 974 64 990 b 233 986 128 990 168 986 b 382 990 299 986 349 990 b 425 957 413 990 425 974 b 386 914 425 931 406 922 b 325 836 360 901 329 889 l 289 393 b 285 317 288 368 285 336 b 543 90 285 163 382 92 b 806 314 694 90 806 150 b 801 390 806 333 803 364 l 763 836 b 696 910 758 888 725 899 b 649 957 671 919 649 926 b 694 990 649 974 664 990 b 814 986 731 990 779 986 b 924 990 846 986 889 990 b 965 957 953 990 965 974 b 926 915 965 932 946 924 b 872 849 901 906 872 893 b 876 790 872 835 875 813 l 913 385 b 918 303 915 351 918 324 b 510 -28 918 61 736 -26"},"ũ":{"ha":896,"x_min":null,"x_max":null,"o":"m 251 831 b 218 865 231 831 218 843 b 228 911 218 874 221 890 b 346 1022 247 968 290 1022 b 525 917 426 1022 485 917 b 571 964 540 917 554 932 b 618 1010 586 990 593 1010 b 651 975 639 1010 651 997 b 642 928 651 965 649 949 b 522 818 621 869 579 818 b 344 922 442 818 378 922 b 299 876 329 922 314 904 b 251 831 283 850 275 831 m 764 197 b 875 78 764 111 875 126 b 743 10 875 46 846 32 b 633 -11 674 -7 649 -11 b 597 40 606 -11 597 15 l 597 118 b 360 -17 553 44 476 -17 b 124 251 208 -17 124 83 l 124 479 b 17 589 124 565 17 536 b 140 667 17 618 46 633 b 253 699 222 696 240 699 b 290 640 286 699 290 668 l 290 290 b 426 113 290 178 325 113 b 597 313 511 113 597 174 l 597 479 b 478 589 597 565 478 533 b 614 668 478 618 508 632 b 728 699 692 694 717 699 b 764 640 760 699 764 668 l 764 197"},"Ū":{"ha":1017,"x_min":null,"x_max":null,"o":"m 358 1125 b 317 1175 328 1125 317 1142 b 358 1224 317 1207 328 1224 l 524 1222 b 692 1224 565 1222 660 1224 b 733 1175 721 1224 733 1207 b 692 1125 733 1142 721 1125 b 525 1128 656 1125 565 1128 b 358 1125 485 1128 390 1125 m 510 -28 b 99 308 283 -28 99 61 b 104 394 99 333 101 365 l 138 790 b 142 849 139 813 142 835 b 90 915 142 893 114 906 b 53 957 71 924 53 932 b 94 990 53 974 64 990 b 233 986 128 990 168 986 b 382 990 299 986 349 990 b 425 957 413 990 425 974 b 386 914 425 931 406 922 b 325 836 360 901 329 889 l 289 393 b 285 317 288 368 285 336 b 543 90 285 163 382 92 b 806 314 694 90 806 150 b 801 390 806 333 803 364 l 763 836 b 696 910 758 888 725 899 b 649 957 671 919 649 926 b 694 990 649 974 664 990 b 814 986 731 990 779 986 b 924 990 846 986 889 990 b 965 957 953 990 965 974 b 926 915 965 932 946 924 b 872 849 901 906 872 893 b 876 790 872 835 875 813 l 913 385 b 918 303 915 351 918 324 b 510 -28 918 61 736 -26"},"ū":{"ha":896,"x_min":null,"x_max":null,"o":"m 267 867 b 225 917 236 867 225 883 b 267 965 225 949 236 965 l 432 964 b 600 965 474 964 568 965 b 642 917 629 965 642 949 b 600 867 642 883 629 867 b 433 869 564 867 474 869 b 267 867 393 869 299 867 m 764 197 b 875 78 764 111 875 126 b 743 10 875 46 846 32 b 633 -11 674 -7 649 -11 b 597 40 606 -11 597 15 l 597 118 b 360 -17 553 44 476 -17 b 124 251 208 -17 124 83 l 124 479 b 17 589 124 565 17 536 b 140 667 17 618 46 633 b 253 699 222 696 240 699 b 290 640 286 699 290 668 l 290 290 b 426 113 290 178 325 113 b 597 313 511 113 597 174 l 597 479 b 478 589 597 565 478 533 b 614 668 478 618 508 632 b 728 699 692 694 717 699 b 764 640 760 699 764 668 l 764 197"},"Ŭ":{"ha":1017,"x_min":null,"x_max":null,"o":"m 525 1065 b 340 1203 438 1065 375 1115 b 322 1272 328 1229 322 1256 b 360 1307 322 1294 340 1307 b 417 1253 385 1307 399 1283 b 525 1167 446 1197 479 1167 b 635 1253 572 1167 606 1197 b 692 1307 653 1283 665 1307 b 729 1272 711 1307 729 1294 b 711 1203 729 1256 724 1229 b 525 1065 676 1115 614 1065 m 510 -28 b 99 308 283 -28 99 61 b 104 394 99 333 101 365 l 138 790 b 142 849 139 813 142 835 b 90 915 142 893 114 906 b 53 957 71 924 53 932 b 94 990 53 974 64 990 b 233 986 128 990 168 986 b 382 990 299 986 349 990 b 425 957 413 990 425 974 b 386 914 425 931 406 922 b 325 836 360 901 329 889 l 289 393 b 285 317 288 368 285 336 b 543 90 285 163 382 92 b 806 314 694 90 806 150 b 801 390 806 333 803 364 l 763 836 b 696 910 758 888 725 899 b 649 957 671 919 649 926 b 694 990 649 974 664 990 b 814 986 731 990 779 986 b 924 990 846 986 889 990 b 965 957 953 990 965 974 b 926 915 965 932 946 924 b 872 849 901 906 872 893 b 876 790 872 835 875 813 l 913 385 b 918 303 915 351 918 324 b 510 -28 918 61 736 -26"}}}
